<?xml version="1.0" encoding="UTF-8"?>
<svg id="Camada_2" data-name="Camada 2" xmlns="http://www.w3.org/2000/svg" viewBox="0 0 218.4 142.7">
  <defs>
    <style>
      .cls-1 {
        fill: #e6e6e6;
      }
    </style>
  </defs>
  <g id="Camada_2-2" data-name="Camada 2">
    <path class="cls-1" d="M42.6,142.7c-11.4,0-21.4-4.1-29.9-12.4C4.2,122.1,0,111.8,0,99.4c0-23.8,12.6-46.3,37.7-67.5C62.8,10.6,78.7,0,85.5,0s7.3,2.1,7.3,6.2-8.5,10.2-25.5,24c-18.4,15.5-27.7,28.7-27.7,39.7s5.6,12.3,16.7,17.8c12.4,6.1,18.6,14.8,18.6,26.2s-3,14.5-8.9,20.2c-6,5.7-13.8,8.6-23.5,8.6h.1ZM168.5,142.7c-11.6,0-21.7-4.1-30-12.4-8.4-8.2-12.6-18.6-12.6-30.9,0-23.8,12.6-46.3,37.7-67.5C188.7,10.6,204.7,0,211.5,0s6.9,2.1,6.9,6.2-8.4,10.2-25.1,24c-18.4,15.5-27.7,28.7-27.7,39.7s5.6,12.3,16.7,17.8c12.1,6.1,18.2,14.8,18.2,26.2s-2.9,14.5-8.7,20.2-13.6,8.6-23.3,8.6h0Z"/>
  </g>
</svg>