<svg id="Layer_1" data-name="Layer 1" xmlns="http://www.w3.org/2000/svg" viewBox="0 0 540.88 222.35"><title>BNI logo - Brandlogos.net</title><g id="g10"><g id="g12"><path id="path28" d="M265.71,377.33c25.73,6,46.37,25.09,46.37,55.59,0,39.06-32.72,62.26-83.54,62.26h-115V272.83H226.32c39.39,0,73.37,14.61,73.37,58.45,0,23.5-17.47,39.07-34,45.42Zm-58.45-17.79c15.56,0,24.14-6.35,24.14-17.47,0-12.07-6.67-18.11-22.55-18.11h-27v35.58ZM218.7,444c16.2,0,25.1-5.4,25.1-17.79,0-11.12-8.26-17.16-26.68-17.16H181.85V444H218.7" transform="translate(-113.56 -272.82)" style="fill:#d11c2f"/><path id="path30" d="M490.68,382.41V272.83h66.7V495.18H497L404.28,377.65h-.64V495.18H336.31V272.83h67.34l86.08,109.58h1" transform="translate(-113.56 -272.82)" style="fill:#d11c2f"/><path id="path32" d="M586.14,272.82h68.3l-68.3,68Z" transform="translate(-113.56 -272.82)" style="fill:#d11c2f"/><path id="path34" d="M586.14,366.87l68.3-68V495.18h-68.3V366.87" transform="translate(-113.56 -272.82)" style="fill:#d11c2f"/></g></g></svg>