<svg xmlns="http://www.w3.org/2000/svg" height="301.25" width="300" viewBox="0 0 300 301.246"><title>Delta Cafes</title><path fill="#DB3F44" d="M0,301.23h300c-41.3-101.49-89.82-202.08-150-301.23-47.2,83.63-98.087,189.33-150,301.23z"/><polygon fill="#F80C01" points="150,0,0,301.23,300,301.23"/><g fill="#B30C28"><path d="M0,301.23c49.998-100.4,99.995-200.82,150-301.23-67.364,92.295-109.54,180.58-150,301.23z"/><path d="M300,301.23c-50.003-100.41-99.995-200.82-150-301.23,67.364,92.294,109.55,180.58,150,301.24v-0.006z"/><path fill="#FFD911" d="M87.975,240.36c-0.765-0.824-1.583-1.442-2.447-1.836-0.87-0.396-1.828-0.594-2.875-0.594-0.845,0-1.67,0.169-2.474,0.51-0.803,0.338-1.501,0.819-2.09,1.429-0.613,0.633-1.07,1.342-1.376,2.127-0.308,0.781-0.46,1.642-0.46,2.586,0,0.739,0.089,1.433,0.272,2.06,0.185,0.622,0.454,1.197,0.818,1.723,0.642,0.907,1.426,1.612,2.365,2.097,0.934,0.493,1.945,0.737,3.03,0.737,1.019,0,1.968-0.212,2.84-0.633,0.879-0.421,1.676-1.05,2.396-1.886v2.521c-0.793,0.576-1.648,1.015-2.565,1.309-0.91,0.292-1.857,0.443-2.83,0.443-0.847,0-1.671-0.128-2.471-0.383-0.795-0.249-1.551-0.617-2.25-1.091-1.167-0.81-2.056-1.81-2.668-2.985-0.616-1.183-0.926-2.472-0.926-3.879,0-1.228,0.204-2.355,0.617-3.358,0.409-1.011,1.036-1.922,1.882-2.747,0.819-0.784,1.72-1.369,2.714-1.764,0.987-0.385,2.067-0.586,3.245-0.586,0.923,0,1.814,0.143,2.681,0.423,0.87,0.28,1.724,0.711,2.571,1.303l0.001,2.48zm30.405-0.24l-2.547,5.886h5.093l-2.54-5.89zm0-4.21l7.273,16.608h-2.067l-2.072-4.895h-6.247l-2.078,4.895h-2.062l7.26-16.61zm31.03,16.61v-15.977h8.433v1.733h-6.531v4.579h6.531v1.77h-6.531v7.891h-1.9v0.01zm33.45,0v-15.977h8.435v1.733h-6.535v4.579h6.535v1.77h-6.535v6.125h6.535v1.766h-8.435v0.012zm2.71-17.57l2.229-3.801h2.195l-3.115,3.801h-1.314,0.004zm36.86,8.7c1.041,0.442,1.834,1.037,2.355,1.767,0.529,0.74,0.792,1.603,0.792,2.607,0,1.477-0.462,2.656-1.406,3.557-0.928,0.897-2.169,1.352-3.718,1.352-1.257,0-2.313-0.325-3.166-0.97-0.854-0.642-1.424-1.556-1.728-2.742l1.728-0.852c0.233,0.966,0.62,1.698,1.147,2.193,0.535,0.501,1.212,0.751,2.019,0.751,0.956,0,1.73-0.272,2.313-0.824,0.592-0.552,0.885-1.258,0.885-2.152,0-0.706-0.199-1.328-0.614-1.854-0.411-0.525-1.033-0.973-1.864-1.336l-1.945-0.83c-1.06-0.448-1.856-1.014-2.37-1.717-0.522-0.699-0.783-1.536-0.783-2.512,0-1.135,0.42-2.077,1.269-2.809,0.839-0.749,1.914-1.122,3.234-1.122,0.96,0,1.79,0.211,2.495,0.617,0.7,0.406,1.252,1.005,1.636,1.803l-1.576,0.998c-0.352-0.62-0.753-1.072-1.193-1.378-0.444-0.298-0.948-0.45-1.51-0.45-0.71,0-1.296,0.217-1.752,0.652-0.457,0.434-0.681,0.991-0.681,1.667,0,0.57,0.172,1.063,0.522,1.471,0.351,0.416,0.89,0.788,1.626,1.106l2.29,0.99z"/><path d="M0,301.23h300c-108.7-17.41-191.87-17.41-300,0z"/></g><g fill="#FFF"><path d="M87.422,214.18h0.632c3.249,0,5.52-1.141,6.834-3.447,1.305-2.288,1.964-6.532,1.964-12.718,0-5.081-0.607-8.571-1.816-10.488-1.195-1.926-3.275-2.893-6.247-2.893-0.359,0-0.63,0-0.815,0.018-0.19,0.012-0.363,0.045-0.551,0.094v29.435h-0.001zm-13.151,11.52v-53.164h18.134c6.125,0,10.587,1.893,13.394,5.673,2.808,3.781,4.205,9.836,4.205,18.144,0,10.245-1.624,17.693-4.864,22.36-3.238,4.66-8.368,6.982-15.394,6.982h-15.486v0.004l0.011,0.01zm51.059-27.33l9.24,0.035v-0.381c0-2.315-0.36-4.007-1.087-5.096-0.711-1.084-1.857-1.619-3.398-1.619-1.464,0-2.605,0.605-3.41,1.813-0.82,1.23-1.26,2.98-1.34,5.26zm17.23,23.91c-1.709,1.588-3.558,2.739-5.548,3.481-2.002,0.729-4.301,1.101-6.934,1.101-5.375,0-9.402-2.021-12.102-6.05-2.685-4.027-4.03-10.047-4.03-18.051,0-7.94,1.276-13.769,3.814-17.487,2.552-3.708,6.542-5.568,12.011-5.568,5.237,0,9.013,1.753,11.324,5.268,2.309,3.515,3.466,9.322,3.466,17.41,0,1.229-0.041,3.162-0.122,5.795l-0.038,0.45h-18.6c0.053,2.197,0.698,3.889,1.945,5.102,1.25,1.205,2.956,1.814,5.131,1.814,1.624,0,3.238-0.324,4.825-0.979,1.585-0.655,3.212-1.668,4.865-3.04v10.756h-0.001v0.004-0.004zm6.68-52.22h13.153v55.643h-13.153v-55.639zm43.45,53.51c-1.868,0.983-3.654,1.708-5.373,2.195-1.715,0.491-3.411,0.746-5.087,0.746-3.734,0-6.477-1.058-8.248-3.153-1.775-2.083-2.662-5.316-2.662-9.671v-20.815h-5.79v-8.068c3.05-2.027,5.643-4.234,7.777-6.619,2.137-2.386,3.855-4.983,5.14-7.774h6.021v10.444h8.222v12.018h-8.222v19.172c0,1.119,0.313,1.971,0.942,2.548,0.627,0.59,1.54,0.875,2.754,0.875,0.685,0,1.411-0.16,2.162-0.452,0.767-0.303,1.542-0.744,2.362-1.329l0.01,9.87zm20.97,2.13v-5.652h-0.313c-0.859,2.157-2.016,3.769-3.443,4.805-1.434,1.041-3.208,1.55-5.332,1.55-3.2,0-5.586-1.038-7.162-3.108-1.572-2.08-2.359-5.177-2.359-9.326,0-1.834,0.229-3.443,0.672-4.813,0.438-1.387,1.145-2.588,2.08-3.635,1.289-1.472,3.518-3.008,6.692-4.615,0.603-0.305,1.041-0.529,1.339-0.675l0.031-0.033c4.539-2.276,6.805-4.245,6.805-5.903,0-0.855-0.376-1.553-1.112-2.072-0.751-0.527-1.746-0.784-2.981-0.784-1.805,0-3.693,0.498-5.657,1.5-1.969,1-4.004,2.505-6.097,4.508v-11.604c1.934-2.045,4.097-3.547,6.45-4.506,2.366-0.953,5.105-1.429,8.222-1.429,4.838,0,8.384,1.17,10.663,3.505,2.282,2.352,3.435,6.023,3.435,11.031v31.259h-11.941l0.001-0.01zm-0.24-20.74c-0.552,0.488-1.328,1.155-2.326,1.993-2.855,2.395-4.286,4.459-4.286,6.188,0,1.177,0.289,2.121,0.849,2.81,0.568,0.686,1.329,1.027,2.3,1.027,1.231,0,2.12-0.468,2.657-1.385,0.537-0.921,0.806-2.452,0.806-4.624v-6.02z"/><path d="M220.76,169.74c1.441,0,2.75,0.588,3.697,1.537,0.948,0.946,1.536,2.252,1.536,3.696,0,1.443-0.588,2.751-1.536,3.698-0.949,0.949-2.256,1.537-3.697,1.537s-2.748-0.588-3.696-1.537v0.004c-0.948-0.951-1.536-2.259-1.536-3.702,0-1.444,0.588-2.754,1.533-3.701,0.96-0.95,2.27-1.54,3.71-1.54zm3.26,1.97c-0.833-0.838-1.989-1.356-3.262-1.356-1.271,0-2.425,0.519-3.261,1.356-0.836,0.834-1.354,1.989-1.354,3.264,0,1.272,0.519,2.425,1.354,3.262v0.003c0.834,0.834,1.989,1.353,3.261,1.353s2.423-0.519,3.26-1.355c0.838-0.837,1.355-1.993,1.355-3.262,0-1.26-0.52-2.42-1.36-3.25z"/><path d="M218.42,178.2v-6.474h2.352c0.492,0,0.854,0.063,1.089,0.184,0.236,0.122,0.423,0.32,0.575,0.598,0.153,0.287,0.221,0.611,0.221,0.979,0,0.491-0.123,0.882-0.38,1.19-0.254,0.301-0.621,0.499-1.106,0.574,0.196,0.121,0.345,0.24,0.451,0.36,0.212,0.249,0.391,0.518,0.549,0.826l0.925,1.761h-0.877l-0.708-1.346c-0.274-0.529-0.479-0.882-0.621-1.066s-0.274-0.309-0.405-0.366c-0.126-0.066-0.315-0.094-0.552-0.094h-0.813v2.872h-0.698v0.015-0.005zm0.7-3.61h1.511c0.325,0,0.58-0.036,0.747-0.118,0.173-0.079,0.309-0.204,0.406-0.373,0.105-0.169,0.152-0.37,0.152-0.594,0-0.329-0.091-0.582-0.287-0.771-0.186-0.186-0.476-0.282-0.856-0.282h-1.67v2.139h-0.002l0.002-0.01z"/></g></svg>