<?xml version="1.0" encoding="UTF-8"?>
<svg id="Camada_1" xmlns="http://www.w3.org/2000/svg" version="1.1" viewBox="0 0 202 64">
  <!-- Generator: Adobe Illustrator 29.4.0, SVG Export Plug-In . SVG Version: 2.1.0 Build 152)  -->
  <defs>
    <style>
      .st0 {
        fill: #231f20;
      }
    </style>
  </defs>
  <path class="st0" d="M145.3,40.1c-.7-1.7-2.7-2.6-4.4-2l1.9-14.2c.9-5.4-2.8-10.6-8.2-11.5-.6-.1-1.3-.2-2-.1-7.1,0-10.9,5.6-11.8,10.7-.5,2.9-.9,3.4-1.9,4.5l-7.4,7.5,4-31.2c.2-2-1.3-3.7-3.3-3.9-1.9-.2-3.5,1.1-3.8,3l-1.3,10.2c-1.3-.5-2.7-.8-4.1-.8-6.2,0-11.4,4.6-12.3,10.7-.3,2.7-.9,3.6-1.9,4.7l-8.8,10.1c-1.2,1.2-4.5,5.2-9.6,5.2s-3-2.8-3-2.8l7.6-5.3c3.1-2.2,9.7-6.8,9.7-13.1s-4.4-9.7-10.1-9.7c-6.2,0-11.5,4.5-12.3,10.7l-2,13.8v.2h0l-2.3,1.7c-1.6,1.2-1.9,3.5-.7,5,.7.9,1.7,1.4,2.9,1.4.3,0,.6,0,1-.1,1.5,3.3,4.6,5.4,9.1,5.4,8.3,0,12.9-5.4,14.8-7.5l3.8-4.4c-1,7.8,4.1,11.9,9.7,11.9s8.8-2.1,15-7.8l5.1-4.9-2.9,22.1c-.3,2,1,3.8,2.9,4.2s3.8-1,4.2-2.9c0-.1,0-.2,0-.3l1.4-11.2c1.3.6,2.7.8,4.1.8,1.7,0,3.3-.4,4.9-1l10.2-4.5c1.8-.8,2.6-2.9,1.8-4.7M68.8,24.1c.5-2.8,2.9-4.8,5.7-4.8,2.7,0,3,1.9,3,2.7,0,2.9-4.6,6.1-9.7,9.7l1-7.6M105.7,23.8l-1.9,14.9c-.4,3.2-2.7,4.4-4.5,4.4-2.7,0-3.7-1.5-3.3-4.4l1.9-14.9c.4-3.2,2.7-4.4,4.5-4.4,2.7,0,3.7,1.5,3.3,4.4M135.4,23.8l-1.9,14.9c-.4,3.2-2.7,4.4-4.5,4.4-2.7,0-3.7-1.5-3.3-4.4l1.9-14.9c.4-3.2,2.7-4.4,4.5-4.4,2.7,0,3.7,1.5,3.3,4.4"/>
</svg>