<?xml version="1.0" encoding="UTF-8"?>
<svg id="Camada_2" data-name="Camada 2" xmlns="http://www.w3.org/2000/svg" xmlns:xlink="http://www.w3.org/1999/xlink" viewBox="0 0 97.82 103.55">
  <defs>
    <style>
      .cls-1 {
        fill: none;
        stroke: #1e1e36;
      }

      .cls-2 {
        filter: url(#outer-glow-1);
      }

      .cls-3 {
        fill: #1e1e36;
      }

      .cls-4 {
        opacity: .7;
      }
    </style>
    <filter id="outer-glow-1" x="-25.6" y="-25.62" width="149.04" height="154.8" filterUnits="userSpaceOnUse">
      <feOffset dx="0" dy="0"/>
      <feGaussianBlur result="blur" stdDeviation="8.5"/>
      <feFlood flood-color="#4faecd" flood-opacity="1"/>
      <feComposite in2="blur" operator="in"/>
      <feComposite in="SourceGraphic"/>
    </filter>
  </defs>
  <g id="Camada_1-2" data-name="Camada 1">
    <g class="cls-2">
      <g>
        <g class="cls-4">
          <g>
            <g>
              <path class="cls-3" d="M.03,54.15s1.3.57,3.68.8c0,0,4.14,1.14,11.66,2.03,3.76.45,8.37.83,13.72.98,2.68.07,5.54.09,8.58.03.38,0,.77-.02,1.16-.03.54-.05,1.1-.08,1.63-.18,1.06-.18,2.13-.48,3.14-.94,2.04-.87,3.85-2.33,5.24-4.14l.33-.52s.16-.19.43-.61c.27-.42.65-1.06,1.04-1.96.35-.91.77-2.08.91-3.54.17-1.67.01-2.72-.04-4.21,0,0-.78-9.66-1.3-11.44,0,0-4.61-11.26-1.25-29.99,0,0-2.72,10.48.02,24.77,0,0-2.35,3.94-.02,13.13,0,0-3.7-3.48-2.67-22.77,0,0-.35,3.46.84,18.7,0,0-1.47-2.93-1.37-6.89,0,0,.4,2.18.88,6.3.24,2.06.49,4.6.72,7.61.05.75.11,1.53.17,2.34.05.84.1,1.56-.01,2.37-.19,1.59-.86,3.29-2.08,4.71.96-1.17,1.23-1.89,1.31-2.04.06-.16-.12.22-.59.94-.48.71-1.32,1.74-2.66,2.6-1.33.88-3.16,1.54-5.22,1.53-8.45.12-19.24.01-22.32-1.25,0,0-15.8-.08-15.96,1.65"/>
              <path class="cls-1" d="M49.83,35.95s-1.76-3.92-2.85-10.37c-1.09-6.45-1.52-15.42,1.15-25.59"/>
            </g>
            <path class="cls-1" d="M48.18,45.5s-.05-.31-.15-.86c-.13-.56-.31-1.38-.54-2.41-.45-2.06-1.02-4.98-1.5-8.38-.97-6.8-1.6-15.55-.25-23.38"/>
          </g>
        </g>
        <g class="cls-4">
          <g>
            <g>
              <path class="cls-3" d="M48.42,103.52s.57-1.22.8-3.47c0,0,1.14-3.89,2.04-10.98.45-3.54.84-7.88.99-12.92.08-2.52.09-5.22.03-8.08-.02-.72-.04-1.44-.06-2.18-.01-.37-.03-.74-.04-1.11-.04-.49-.09-1.05-.17-1.56-.35-2.05-1.2-4.07-2.51-5.78l-.39-.43s-.14-.19-.44-.55c-.32-.34-.78-.86-1.5-1.45-1.4-1.15-3.9-2.69-7.52-2.88,0,0-.19,0-.53,0-.39-.01-.67.04-1.13.08-.88.09-2.07.2-3.31.32-2.48.26-5.18.58-6.02.84,0,0-10.61,4.6-28.25,1.22,0,0,9.86,2.73,23.32,0,0,0,3.7,2.35,12.37.03,0,0-3.29,3.7-21.45,2.64,0,0,3.26.36,17.61-.82,0,0-2.76,1.47-6.5,1.37,0,0,2.05-.4,5.93-.87,1.93-.23,4.36-.5,7.15-.7,1.25-.07,2.67.15,4.06.76,1.37.64,2.73,1.67,3.72,3.14-.82-1.17-1.41-1.6-1.51-1.71-.13-.1.16.17.69.78.52.61,1.24,1.63,1.71,3.06.23.71.41,1.52.46,2.38.05.89.04,1.86.06,2.85.11,7.96,0,18.12-1.27,21.02,0,0-.09,14.88,1.64,15.02"/>
              <path class="cls-1" d="M33.86,53.76s-3.7,1.75-9.77,2.84c-6.08,1.09-14.53,1.5-24.09-1.17"/>
            </g>
            <path class="cls-1" d="M42.66,56.25s-.29-.07-.82-.1c-.52-.07-1.29-.07-2.19.03-.84.12-2.03.41-3.37.66-1.33.26-2.82.52-4.42.76-6.41.96-14.65,1.59-22.01.22"/>
          </g>
        </g>
        <g class="cls-4">
          <g>
            <g>
              <path class="cls-3" d="M97.79,55.14s-1.22-.57-3.47-.8c0,0-3.89-1.14-10.98-2.04-3.54-.45-7.88-.84-12.92-.99-2.52-.08-5.22-.09-8.08-.03-.72.02-1.44.04-2.18.06-.37.01-.74.03-1.11.04-.49.04-1.05.09-1.56.17-2.05.35-4.07,1.2-5.78,2.51l-.43.39s-.19.14-.55.44c-.34.32-.86.78-1.45,1.5-1.15,1.4-2.69,3.9-2.88,7.52,0,0,0,.19,0,.53-.01.39.04.67.08,1.13.09.88.2,2.07.32,3.31.26,2.48.58,5.18.84,6.02,0,0,4.6,10.61,1.22,28.25,0,0,2.73-9.86,0-23.32,0,0,2.35-3.7.03-12.37,0,0,3.7,3.29,2.64,21.45,0,0,.36-3.26-.82-17.61,0,0,1.47,2.76,1.37,6.49,0,0-.4-2.05-.87-5.93-.23-1.93-.5-4.36-.7-7.15-.07-1.25.15-2.67.76-4.06.64-1.37,1.67-2.73,3.14-3.72-1.17.82-1.6,1.41-1.71,1.51-.1.13.17-.16.78-.69.61-.52,1.63-1.24,3.06-1.71.71-.23,1.52-.41,2.38-.46.89-.05,1.86-.04,2.85-.06,7.96-.11,18.12,0,21.02,1.27,0,0,14.88.09,15.02-1.64"/>
              <path class="cls-1" d="M48.02,69.69s1.75,3.7,2.84,9.77c1.09,6.08,1.5,14.53-1.17,24.09"/>
            </g>
            <path class="cls-1" d="M50.52,60.89s-.07.29-.1.82c-.07.52-.07,1.29.03,2.19.12.84.41,2.03.66,3.37.26,1.33.52,2.82.76,4.42.96,6.41,1.59,14.65.22,22.01"/>
          </g>
        </g>
        <g class="cls-4">
          <g>
            <g>
              <path class="cls-3" d="M49.4.03s-.58,1.3-.8,3.68c0,0-1.15,4.13-2.05,11.65-.45,3.76-.84,8.36-1,13.72-.08,2.68-.1,5.54-.04,8.58.03,1.52.08,3.08.15,4.69.02.4.04.81.06,1.21l.03.61.02.31.04.41c.1,1.17.36,2.26.75,3.34.07.19.17.38.25.56,0,0,.09.23.28.69.22.44.54,1.12,1.1,1.93.56.8,1.33,1.77,2.47,2.68,1.12.91,2.59,1.8,4.41,2.35,0,0,.76.24,1.97.37.58.08,1.34.09,2.08.07.6-.06,1.24-.12,1.9-.18,2.64-.25,5.5-.57,6.39-.83,0,0,11.26-4.59,30-1.2,0,0-10.47-2.74-24.77-.03,0,0-3.93-2.36-13.13-.04,0,0,3.49-3.69,22.78-2.63,0,0-3.46-.36-18.7.8,0,0,2.93-1.47,6.9-1.36,0,0-2.18.4-6.3.87-1.03.11-2.19.23-3.45.36-.32.03-.64.06-.97.09-.33.03-.68.06-.96.06-.3.02-.61.02-.93-.02-.32-.01-.65-.06-.98-.13-1.33-.24-2.71-.87-3.95-1.9-1.23-1.04-2.29-2.51-2.83-4.31.46,1.44.93,2.06,1.01,2.21.1.13-.12-.22-.47-1.01-.35-.79-.73-2.03-.76-3.66-.03-1.66-.07-3.63-.1-5.74-.1-8.45.02-19.24,1.29-22.32,0,0,.1-15.81-1.62-15.96"/>
              <path class="cls-1" d="M61.86,55.5s3.92-1.75,10.37-2.83c6.45-1.08,15.42-1.49,25.58,1.19"/>
            </g>
            <path class="cls-1" d="M52.96,51.6s.07.03.2.1c.14.06.34.14.6.24.52.21,1.29.45,2.24.58.95.14,2.08.15,3.27-.1,1.41-.26,2.99-.52,4.69-.76,6.81-.96,15.56-1.57,23.38-.2"/>
          </g>
        </g>
      </g>
      <g>
        <g class="cls-4">
          <g>
            <g>
              <path class="cls-3" d="M30.37,73.24s.7-.27,1.68-1.08c0,0,1.97-1.12,5.12-3.6,1.57-1.24,3.44-2.82,5.5-4.77,1.03-.97,2.11-2.04,3.22-3.2l.42-.44c.18-.22.38-.44.54-.68.33-.47.62-.98.82-1.52.44-1.09.57-2.31.41-3.51l-.07-.32s-.01-.13-.07-.39c-.06-.26-.15-.64-.35-1.12-.21-.47-.49-1.07-.98-1.66-.56-.69-1.01-1.02-1.59-1.56,0,0-3.9-3.32-4.77-3.8,0,0-5.94-2.48-11.69-10.75,0,0,2.9,4.94,9.27,9.26,0,0,.59,2.35,4.91,4.92,0,0-2.69.08-9.52-7.52,0,0,1.16,1.43,7.31,6.68,0,0-1.65-.54-3.09-2.07,0,0,.97.66,2.68,2.03.86.68,1.91,1.54,3.11,2.58.58.53,1.31,1.06,1.82,1.7.52.67.91,1.55.99,2.54-.08-.8-.25-1.17-.27-1.25-.03-.08.04.13.13.57.09.44.16,1.14-.02,1.97-.17.83-.6,1.76-1.38,2.52-3.12,3.2-7.19,7.2-8.82,7.88,0,0-5.94,5.88-5.35,6.59"/>
              <path class="cls-1" d="M42.19,47.81s-8.48-3.22-14.09-12.81"/>
            </g>
            <path class="cls-1" d="M45.14,51.99s-.14-.1-.38-.26c-.26-.17-.64-.41-1.1-.7-.94-.6-2.24-1.48-3.7-2.57-2.91-2.18-6.42-5.22-8.84-8.65"/>
          </g>
        </g>
        <g class="cls-4">
          <g>
            <g>
              <path class="cls-3" d="M66.94,73.61s-.24-.67-1-1.6c0,0-1.03-1.88-3.34-4.87-1.16-1.49-2.63-3.26-4.46-5.2-.91-.97-1.92-1.99-3.01-3.04-.28-.26-.55-.52-.84-.79l-.43-.4c-.2-.17-.43-.36-.65-.52-.9-.63-1.97-1.07-3.1-1.22l-.31-.02s-.5-.11-1.47-.02c-.95.09-2.47.45-3.89,1.74-.12.07-.88.98-1.71,2.01-.83,1.03-1.72,2.15-1.94,2.56,0,0-2.25,5.69-10.11,11.02,0,0,4.71-2.67,8.73-8.72,0,0,2.26-.5,4.64-4.62,0,0,.15,2.61-7.03,9.01,0,0,1.35-1.08,6.28-6.89,0,0-.48,1.58-1.92,2.94,0,0,.62-.92,1.89-2.54.64-.81,1.44-1.81,2.41-2.94.86-.99,2.5-1.8,4.37-1.45-.74-.13-1.12-.07-1.21-.07-.08.01.13,0,.55.03.42.04,1.07.15,1.78.51.35.18.72.41,1.06.72.35.32.71.68,1.09,1.04,3.02,2.94,6.78,6.78,7.39,8.34,0,0,5.53,5.6,6.23,5.01"/>
              <path class="cls-1" d="M42.87,60.44s-2.89,8.14-12.04,13.29"/>
            </g>
            <path class="cls-1" d="M47.1,58.08s-.13.08-.34.27c-.22.17-.51.46-.81.83-.27.36-.61.91-1.01,1.51-.4.59-.86,1.25-1.37,1.94-2.04,2.76-4.89,6.07-8.15,8.32"/>
          </g>
        </g>
        <g class="cls-4">
          <g>
            <g>
              <path class="cls-3" d="M67.3,37.04s-.67.24-1.6,1c0,0-1.88,1.03-4.87,3.34-1.49,1.16-3.26,2.63-5.2,4.46-.97.91-1.99,1.92-3.04,3.01-.26.28-.52.55-.79.84l-.4.43c-.17.2-.36.43-.52.65-.63.9-1.07,1.97-1.22,3.1l-.02.31s-.11.5-.02,1.47c.09.95.45,2.47,1.74,3.89.07.12.98.88,2.01,1.71,1.03.83,2.15,1.72,2.56,1.94,0,0,5.69,2.25,11.02,10.11,0,0-2.67-4.71-8.72-8.73,0,0-.5-2.26-4.62-4.64,0,0,2.61-.15,9.01,7.03,0,0-1.08-1.35-6.89-6.28,0,0,1.58.48,2.94,1.92,0,0-.92-.62-2.54-1.89-.81-.64-1.81-1.44-2.94-2.41-.99-.86-1.8-2.5-1.45-4.37-.13.74-.07,1.12-.07,1.21.01.08,0-.13.03-.55.04-.42.15-1.07.51-1.78.18-.35.41-.72.72-1.06.32-.35.68-.71,1.04-1.09,2.94-3.02,6.78-6.78,8.34-7.39,0,0,5.6-5.53,5.01-6.23"/>
              <path class="cls-1" d="M54.13,61.1s8.14,2.89,13.29,12.04"/>
            </g>
            <path class="cls-1" d="M51.77,56.88s.08.13.27.34c.17.22.46.51.83.81.36.27.91.61,1.51,1.01.59.4,1.25.86,1.94,1.37,2.76,2.04,6.07,4.89,8.32,8.15"/>
          </g>
        </g>
        <g class="cls-4">
          <g>
            <g>
              <path class="cls-3" d="M28.59,34.53s.27.7,1.08,1.68c0,0,1.12,1.97,3.59,5.13,1.24,1.58,2.81,3.44,4.76,5.51.97,1.03,2.04,2.11,3.2,3.23.58.56,1.18,1.12,1.81,1.7.34.3.59.54,1.01.9.47.4.98.71,1.53.97.1.05.2.08.31.12,0,0,.12.05.36.16.25.08.62.22,1.13.31,1,.19,2.66.25,4.45-.69,0,0,.37-.2.88-.6.25-.19.54-.47.8-.75.2-.24.42-.51.65-.78.89-1.08,1.84-2.27,2.08-2.7,0,0,2.5-5.93,10.77-11.67,0,0-4.94,2.89-9.28,9.26,0,0-2.35.59-4.93,4.9,0,0-.08-2.69,7.54-9.5,0,0-1.43,1.16-6.69,7.3,0,0,.55-1.65,2.07-3.09,0,0-.67.96-2.03,2.68-.35.43-.74.91-1.16,1.42-.46.55-.84,1.05-1.43,1.44-1.15.81-3.08,1.17-4.86.22.71.37,1.12.42,1.2.45.09.01-.13-.04-.55-.2-.42-.16-1.03-.49-1.65-1.09-.63-.61-1.38-1.33-2.19-2.11-3.2-3.12-7.19-7.21-7.87-8.83,0,0-5.87-5.95-6.58-5.36"/>
              <path class="cls-1" d="M54,50.62s3.24-8.48,12.84-14.06"/>
            </g>
            <path class="cls-1" d="M49.21,52.49s.16-.05.43-.17c.27-.12.65-.32,1.06-.62.41-.3.83-.72,1.18-1.26.43-.62.93-1.31,1.47-2.04,2.19-2.9,5.23-6.41,8.67-8.82"/>
          </g>
        </g>
      </g>
    </g>
  </g>
</svg>