<?xml version="1.0" encoding="UTF-8"?>
<svg id="Camada_1" data-name="Camada 1" xmlns="http://www.w3.org/2000/svg" viewBox="0 0 170.55 180.54">
  <defs>
    <style>
      .cls-1 {
        fill: #1d56bc;
      }

      .cls-2 {
        fill: none;
        stroke: #1d56bc;
      }

      .cls-3 {
        opacity: .7;
      }
    </style>
  </defs>
  <g>
    <g class="cls-3">
      <g>
        <g>
          <path class="cls-1" d="M.06,94.41s2.26,1,6.42,1.39c0,0,7.21,1.98,20.32,3.54,6.56.78,14.59,1.45,23.93,1.7,4.67.13,9.67.16,14.97.04.67-.02,1.34-.03,2.01-.05.94-.09,1.92-.13,2.85-.31.93-.18,1.86-.34,2.77-.65.46-.14.92-.27,1.37-.44l1.34-.55c3.55-1.52,6.72-4.06,9.13-7.22l.58-.91s.06-.09.19-.26c.12-.18.33-.43.55-.8.22-.37.5-.84.83-1.39.31-.57.62-1.26.98-2.03.62-1.59,1.34-3.63,1.59-6.16.29-2.91.02-4.74-.06-7.34,0,0-1.36-16.84-2.26-19.95,0,0-2.01-4.91-3.29-13.9-1.28-8.99-1.82-22.05,1.11-38.39,0,0-4.75,18.27.03,43.19,0,0-4.1,6.86-.03,22.9,0,0-6.45-6.06-4.65-39.7,0,0-.62,6.03,1.46,32.6,0,0-2.57-5.11-2.4-12.02,0,0,.7,3.8,1.53,10.98.41,3.59.86,8.03,1.26,13.26.09,1.31.19,2.67.29,4.07.04.69.12,1.45.09,2.09,0,.33,0,.67,0,1.01-.04.34-.07.69-.11,1.04-.18,1.39-.53,2.83-1.15,4.21-.59,1.4-1.41,2.77-2.47,4.01,1.67-2.05,2.15-3.3,2.28-3.56.11-.27-.21.39-1.02,1.64-.83,1.23-2.29,3.03-4.64,4.54-2.31,1.53-5.5,2.69-9.1,2.67-14.73.2-33.54.02-38.91-2.18,0,0-27.56-.13-27.82,2.88"/>
          <path class="cls-2" d="M86.88,62.69s-3.06-6.83-4.97-18.08c-1.9-11.25-2.65-26.89,2-44.61"/>
        </g>
        <path class="cls-2" d="M84.01,79.32s0-.13-.06-.39c-.05-.25-.12-.62-.21-1.1-.22-.98-.54-2.4-.95-4.19-.78-3.6-1.78-8.68-2.62-14.61-1.69-11.86-2.79-27.12-.43-40.76"/>
      </g>
    </g>
    <g class="cls-3">
      <g>
        <g>
          <path class="cls-1" d="M84.41,180.49s1-2.13,1.39-6.05c0,0,1.99-6.79,3.55-19.14.78-6.17,1.46-13.74,1.72-22.53.13-4.4.16-9.1.06-14.09-.04-1.25-.07-2.51-.11-3.8-.02-.64-.05-1.29-.07-1.94-.07-.86-.15-1.83-.3-2.72-.62-3.57-2.1-7.1-4.38-10.08l-.68-.75s-.24-.34-.77-.95c-.55-.6-1.37-1.51-2.62-2.53-.61-.52-1.37-1.03-2.19-1.59-.86-.51-1.8-1.08-2.91-1.54-2.18-.96-4.87-1.74-8.01-1.88,0,0-.33,0-.92,0-.15,0-.31,0-.48,0-.17,0-.29.02-.45.03-.31.03-.66.06-1.04.09-1.53.15-3.61.35-5.77.56-4.33.45-9.03,1.01-10.5,1.46,0,0-4.63,2.01-13.1,3.28-8.47,1.27-20.77,1.8-36.15-1.14,0,0,17.19,4.77,40.67.01,0,0,6.45,4.11,21.56.05,0,0-5.73,6.45-37.4,4.61,0,0,5.68.62,30.7-1.43,0,0-4.82,2.56-11.32,2.38,0,0,3.58-.7,10.34-1.52,3.37-.4,7.59-.86,12.46-1.23,2.18-.12,4.66.26,7.07,1.33,2.38,1.12,4.76,2.91,6.48,5.47-1.43-2.03-2.45-2.79-2.64-2.98-.22-.17.28.3,1.21,1.36.9,1.07,2.16,2.85,2.98,5.34.39,1.24.72,2.65.8,4.16.08,1.55.08,3.25.11,4.97.19,13.87,0,31.58-2.21,36.64,0,0-.16,25.95,2.85,26.2"/>
          <path class="cls-2" d="M59.03,93.73s-6.44,3.06-17.03,4.95c-10.59,1.89-25.32,2.62-42-2.04"/>
        </g>
        <path class="cls-2" d="M74.38,98.08s-.5-.11-1.43-.18c-.23-.02-.48-.04-.76-.07-.28,0-.58,0-.91,0-.64-.03-1.37.06-2.16.12-.81.13-1.54.25-2.6.49-1.01.21-2.11.43-3.26.66-2.32.45-4.91.91-7.71,1.33-11.18,1.68-25.54,2.77-38.38.39"/>
      </g>
    </g>
    <g class="cls-3">
      <g>
        <g>
          <path class="cls-1" d="M170.49,96.13s-2.13-1-6.05-1.39c0,0-6.79-1.99-19.14-3.55-6.17-.78-13.74-1.46-22.53-1.72-4.4-.13-9.1-.16-14.09-.06-1.25.04-2.51.07-3.8.11-.64.02-1.29.05-1.94.07-.86.07-1.83.15-2.72.3-3.57.62-7.1,2.1-10.08,4.38l-.75.68s-.34.24-.95.77c-.6.55-1.51,1.37-2.53,2.62-.52.61-1.03,1.37-1.59,2.19-.51.86-1.08,1.8-1.54,2.91-.96,2.18-1.74,4.87-1.88,8.01,0,0,0,.33,0,.92,0,.15,0,.31,0,.48,0,.17.02.29.03.45.03.31.06.66.09,1.04.15,1.53.35,3.61.56,5.77.45,4.33,1.01,9.03,1.46,10.5,0,0,2.01,4.63,3.28,13.1,1.27,8.47,1.8,20.77-1.14,36.15,0,0,4.77-17.19.01-40.67,0,0,4.11-6.45.05-21.56,0,0,6.45,5.73,4.61,37.4,0,0,.62-5.68-1.43-30.7,0,0,2.56,4.82,2.38,11.32,0,0-.7-3.58-1.52-10.34-.4-3.37-.86-7.59-1.23-12.46-.12-2.18.26-4.66,1.33-7.07,1.12-2.38,2.91-4.76,5.47-6.48-2.03,1.43-2.79,2.45-2.98,2.64-.17.22.3-.28,1.36-1.21,1.07-.9,2.85-2.16,5.34-2.98,1.24-.39,2.65-.72,4.16-.8,1.55-.08,3.25-.08,4.97-.11,13.87-.19,31.58,0,36.64,2.21,0,0,25.95.16,26.2-2.85"/>
          <path class="cls-2" d="M83.73,121.51s3.06,6.44,4.95,17.03c1.89,10.59,2.62,25.32-2.04,42"/>
        </g>
        <path class="cls-2" d="M88.08,106.16s-.11.5-.18,1.43c-.02.23-.04.48-.07.76,0,.28,0,.58,0,.91-.03.64.06,1.37.12,2.16.13.81.25,1.54.49,2.6.21,1.01.43,2.11.66,3.26.45,2.32.91,4.91,1.33,7.71,1.68,11.18,2.77,25.54.39,38.38"/>
      </g>
    </g>
    <g class="cls-3">
      <g>
        <g>
          <path class="cls-1" d="M86.13.06s-1,2.26-1.4,6.42c0,0-2,7.21-3.57,20.31-.79,6.55-1.47,14.58-1.75,23.92-.14,4.67-.17,9.66-.07,14.97.05,2.65.14,5.38.26,8.18.03.7.07,1.4.1,2.11l.06,1.07.03.54.07.72.18,1.51c.07.5.19.97.29,1.46.18.97.52,1.92.84,2.86.12.34.29.66.44.98,0,0,.16.41.49,1.21.39.77.93,1.96,1.91,3.37.97,1.4,2.32,3.08,4.3,4.67,1.95,1.59,4.52,3.13,7.68,4.1,0,0,1.33.41,3.43.65,1.02.14,2.34.16,3.62.12,1.04-.1,2.17-.2,3.32-.31,4.6-.44,9.59-1,11.15-1.45,0,0,4.92-2,13.91-3.27,8.99-1.26,22.05-1.79,38.39,1.17,0,0-18.26-4.78-43.19-.04,0,0-6.85-4.11-22.9-.07,0,0,6.08-6.44,39.71-4.58,0,0-6.03-.63-32.6,1.4,0,0,5.11-2.56,12.02-2.37,0,0-3.8.7-10.98,1.51-1.8.2-3.8.41-6.02.62-.55.05-1.12.1-1.7.16-.58.05-1.19.11-1.68.11-.26,0-.53.02-.8.03-.27,0-.54-.04-.82-.05-.56-.02-1.12-.11-1.7-.22-2.31-.41-4.73-1.51-6.9-3.31-2.14-1.81-3.99-4.37-4.94-7.51.8,2.52,1.63,3.59,1.75,3.85.18.24-.22-.39-.81-1.75-.6-1.37-1.28-3.54-1.32-6.38-.05-2.9-.11-6.33-.18-10.01-.18-14.73.04-33.54,2.25-38.91,0,0,.18-27.56-2.83-27.83"/>
          <path class="cls-2" d="M107.85,96.77s6.84-3.05,18.09-4.94c11.25-1.88,26.89-2.6,44.61,2.08"/>
        </g>
        <path class="cls-2" d="M92.34,89.96s.12.06.35.17c.24.1.59.24,1.05.42.9.36,2.25.78,3.91,1.02,1.66.25,3.62.25,5.7-.18,2.46-.45,5.22-.9,8.18-1.32,11.87-1.67,27.12-2.74,40.76-.36"/>
      </g>
    </g>
  </g>
  <g>
    <g class="cls-3">
      <g>
        <g>
          <path class="cls-1" d="M52.94,127.7s1.22-.47,2.92-1.88c0,0,3.44-1.95,8.93-6.28,2.74-2.16,6-4.92,9.59-8.31,1.8-1.7,3.67-3.56,5.62-5.58.24-.26.49-.51.73-.77.32-.38.67-.77.95-1.18.57-.81,1.07-1.7,1.44-2.66.76-1.9.99-4.03.71-6.12l-.12-.56s-.02-.23-.12-.68c-.1-.45-.27-1.11-.6-1.96-.37-.83-.86-1.86-1.71-2.9-.98-1.2-1.77-1.78-2.77-2.72,0,0-6.81-5.79-8.31-6.62,0,0-10.35-4.33-20.38-18.75,0,0,5.06,8.61,16.17,16.14,0,0,1.03,4.1,8.56,8.58,0,0-4.68.15-16.59-13.11,0,0,2.03,2.49,12.74,11.65,0,0-2.87-.95-5.39-3.6,0,0,1.68,1.16,4.68,3.53,1.5,1.19,3.32,2.68,5.43,4.49,1.02.92,2.29,1.85,3.17,2.97.91,1.16,1.58,2.71,1.72,4.43-.14-1.39-.43-2.04-.48-2.18-.06-.14.07.22.23,1,.15.77.28,1.99-.04,3.43-.29,1.44-1.05,3.06-2.41,4.4-5.44,5.59-12.54,12.56-15.37,13.74,0,0-10.36,10.26-9.33,11.48"/>
          <path class="cls-2" d="M73.56,83.35s-3.7-1.41-8.62-4.9c-4.92-3.49-11.05-9.07-15.94-17.44"/>
        </g>
        <path class="cls-2" d="M78.7,90.65s-.24-.17-.66-.46c-.45-.29-1.11-.7-1.92-1.22-1.64-1.05-3.91-2.58-6.45-4.49-5.07-3.81-11.19-9.1-15.41-15.09"/>
      </g>
    </g>
    <g class="cls-3">
      <g>
        <g>
          <path class="cls-1" d="M116.7,128.34s-.42-1.17-1.74-2.78c0,0-1.8-3.28-5.83-8.49-2.02-2.6-4.59-5.68-7.78-9.07-1.59-1.69-3.34-3.47-5.25-5.29-.48-.45-.97-.91-1.46-1.38-.25-.23-.5-.46-.75-.7-.35-.29-.74-.63-1.13-.91-1.57-1.11-3.44-1.87-5.41-2.13l-.54-.03s-.21-.04-.64-.07c-.43-.02-1.08-.05-1.93.03-1.66.16-4.3.79-6.78,3.03,0,0-.12.12-.34.34-.26.25-.41.46-.69.79-.52.63-1.22,1.48-1.95,2.37-1.45,1.79-3,3.75-3.38,4.47,0,0-3.92,9.92-17.62,19.22,0,0,8.21-4.65,15.22-15.21,0,0,3.95-.88,8.08-8.05,0,0,.27,4.55-12.26,15.71,0,0,2.36-1.89,10.95-12.02,0,0-.84,2.76-3.34,5.13,0,0,1.08-1.6,3.3-4.44,1.11-1.41,2.52-3.16,4.2-5.12.77-.86,1.84-1.65,3.14-2.15,1.31-.47,2.87-.69,4.47-.38-1.3-.22-1.96-.12-2.1-.13-.14.02.22,0,.96.06.74.06,1.87.26,3.11.88.61.32,1.26.72,1.85,1.26.61.55,1.24,1.19,1.9,1.82,5.26,5.12,11.81,11.82,12.88,14.53,0,0,9.65,9.76,10.87,8.73"/>
          <path class="cls-2" d="M74.75,105.38s-1.27,3.55-4.52,8.22c-3.26,4.67-8.49,10.45-16.48,14.95"/>
        </g>
        <path class="cls-2" d="M82.12,101.26s-.23.14-.6.47c-.38.29-.89.8-1.41,1.45-.47.62-1.06,1.59-1.76,2.63-.7,1.04-1.5,2.18-2.39,3.38-3.55,4.81-8.52,10.59-14.21,14.5"/>
      </g>
    </g>
    <g class="cls-3">
      <g>
        <g>
          <path class="cls-1" d="M117.35,64.58s-1.17.42-2.78,1.74c0,0-3.28,1.8-8.49,5.83-2.6,2.02-5.68,4.59-9.07,7.78-1.69,1.59-3.47,3.34-5.29,5.25-.45.48-.91.97-1.38,1.46-.23.25-.46.5-.7.75-.29.35-.63.74-.91,1.13-1.11,1.57-1.87,3.44-2.13,5.41l-.03.54s-.04.21-.07.64c-.02.43-.05,1.08.03,1.93.16,1.66.79,4.3,3.03,6.78,0,0,.12.12.34.34.25.26.46.41.79.69.63.52,1.48,1.22,2.37,1.95,1.79,1.45,3.75,3,4.47,3.38,0,0,9.92,3.92,19.22,17.62,0,0-4.65-8.21-15.21-15.22,0,0-.88-3.95-8.05-8.08,0,0,4.55-.27,15.71,12.26,0,0-1.89-2.36-12.02-10.95,0,0,2.76.84,5.13,3.34,0,0-1.6-1.08-4.44-3.3-1.41-1.11-3.16-2.52-5.12-4.2-.86-.77-1.65-1.84-2.15-3.14-.47-1.31-.69-2.87-.38-4.47-.22,1.3-.12,1.96-.13,2.1.02.14,0-.22.06-.96.06-.74.26-1.87.88-3.11.32-.61.72-1.26,1.26-1.85.55-.61,1.19-1.24,1.82-1.9,5.12-5.26,11.82-11.81,14.53-12.88,0,0,9.76-9.65,8.73-10.87"/>
          <path class="cls-2" d="M94.38,106.54s3.55,1.27,8.22,4.52c4.67,3.26,10.45,8.49,14.95,16.48"/>
        </g>
        <path class="cls-2" d="M90.27,99.17s.14.23.47.6c.29.38.8.89,1.45,1.41.62.47,1.59,1.06,2.63,1.76,1.04.7,2.18,1.5,3.38,2.39,4.81,3.55,10.59,8.52,14.5,14.21"/>
      </g>
    </g>
    <g class="cls-3">
      <g>
        <g>
          <path class="cls-1" d="M49.85,60.2s.47,1.22,1.88,2.92c0,0,1.95,3.44,6.26,8.94,2.16,2.75,4.91,6.01,8.29,9.6,1.69,1.8,3.55,3.68,5.57,5.62,1.01.97,2.06,1.96,3.16,2.96.27.25.55.5.83.75l.42.38.21.19.3.24c.83.7,1.71,1.23,2.67,1.69.17.08.36.14.53.2,0,0,.21.09.63.27.43.15,1.08.38,1.98.54,1.74.34,4.63.44,7.76-1.2,0,0,.65-.34,1.53-1.04.43-.33.94-.82,1.4-1.31.35-.43.73-.89,1.13-1.36,1.55-1.89,3.21-3.96,3.63-4.71,0,0,4.35-10.34,18.78-20.35,0,0-8.62,5.04-16.17,16.14,0,0-4.1,1.03-8.59,8.54,0,0-.14-4.68,13.14-16.57,0,0-2.49,2.02-11.67,12.72,0,0,.96-2.87,3.61-5.39,0,0-1.16,1.68-3.54,4.67-.6.74-1.28,1.57-2.02,2.48-.37.43-.79.98-1.16,1.36-.19.21-.38.41-.62.6-.22.2-.46.38-.72.55-1.02.71-2.33,1.2-3.82,1.34-1.48.12-3.13-.14-4.66-.96,1.24.64,1.95.73,2.09.78.15.02-.23-.06-.96-.35-.74-.29-1.8-.85-2.88-1.89-1.11-1.07-2.41-2.33-3.81-3.68-5.58-5.45-12.53-12.56-13.71-15.4,0,0-10.24-10.38-11.47-9.35"/>
          <path class="cls-2" d="M94.15,88.25s1.42-3.7,4.92-8.61c3.5-4.91,9.09-11.03,17.47-15.91"/>
        </g>
        <path class="cls-2" d="M85.8,91.51s.07-.02.2-.07c.13-.05.31-.13.55-.23.47-.2,1.13-.55,1.84-1.08.71-.53,1.45-1.26,2.06-2.2.75-1.09,1.61-2.29,2.57-3.56,3.81-5.06,9.12-11.17,15.11-15.38"/>
      </g>
    </g>
  </g>
</svg>