<?xml version="1.0" encoding="UTF-8"?>
<svg id="Camada_2" data-name="Camada 2" xmlns="http://www.w3.org/2000/svg" viewBox="0 0 218.4 142.7">
  <defs>
    <style>
      .cls-1 {
        fill: #e6e6e6;
      }
    </style>
  </defs>
  <g id="Camada_2-2" data-name="Camada 2">
    <path class="cls-1" d="M49.9,0c11.4,0,21.4,4.1,30,12.2,8.6,8.1,12.9,18.5,12.9,31.1,0,23.8-12.6,46.3-37.7,67.5-25.1,21.2-41.2,31.9-48.2,31.9S0,140.6,0,136.5s8.4-10.2,25.1-24c18.7-15.5,28-28.8,28-39.7s-5.7-12.2-17.1-17.8c-12.1-6.1-18.2-14.8-18.2-26.2s2.9-14.5,8.7-20.2C32.4,2.9,40.2,0,49.9,0ZM175.8,0c11.4,0,21.4,4.1,29.9,12.2,8.5,8.1,12.7,18.5,12.7,31.1,0,23.5-12.6,46-37.7,67.3-25.1,21.4-41.1,32-47.9,32s-6.9-2.1-6.9-6.2,8.4-10.2,25.1-24c18.4-15.5,27.7-28.8,27.7-39.7s-5.6-12.2-16.7-17.8c-12.4-6.1-18.6-14.8-18.6-26.2s3-14.5,8.9-20.2c6-5.7,13.8-8.5,23.5-8.5h0Z"/>
  </g>
</svg>