<?xml version="1.0" encoding="UTF-8"?>
<svg id="Camada_1" xmlns="http://www.w3.org/2000/svg" version="1.1" viewBox="0 0 202 64">
  <!-- Generator: Adobe Illustrator 29.4.0, SVG Export Plug-In . SVG Version: 2.1.0 Build 152)  -->
  <defs>
    <style>
      .st0 {
        fill: #00378c;
      }

      .st1 {
        fill: #fff;
      }

      .st2 {
        fill: #c51828;
      }

      .st3 {
        fill: #a51220;
      }

      .st4 {
        fill: #003da5;
      }

      .st5 {
        fill: #dc1c2e;
      }

      .st6 {
        fill: #626366;
      }

      .st7 {
        fill: #002d6f;
      }

      .st8 {
        fill: #404041;
      }
    </style>
  </defs>
  <g>
    <path class="st4" d="M104,47.4c0,3.1-2.1,4.5-4.9,4.5h-3v4.8h-2.7v-13.5h5.9c2.6,0,4.7,1.4,4.7,4.3h0ZM101.3,47.4c0-1.2-.8-1.7-2-1.7h-3.1v3.5h3.2c1.3,0,1.9-.6,1.9-1.8Z"/>
    <path class="st4" d="M117.8,49.8c0,4.4-2.5,7-6,7s-6-2.6-6-7,2.5-7,6-7,5.9,2.6,5.9,7h0ZM115,49.9c0-2.7-1.3-4.3-3.2-4.3s-3.2,1.5-3.2,4.3,1.3,4.3,3.2,4.3,3.2-1.5,3.2-4.3Z"/>
    <path class="st4" d="M131.5,56.6h-3.1l-2.4-4.9h-2.7v4.9h-2.7v-13.5h6.3c2.6,0,4.7,1.4,4.7,4.3s-.9,3.3-2.6,4l2.6,5.3ZM128.7,47.4c0-1.2-.7-1.7-1.9-1.7h-3.5v3.5h3.5c1.3,0,1.9-.6,1.9-1.8Z"/>
    <path class="st4" d="M143.5,45.7h-3.9v10.9h-2.7v-10.9h-3.9v-2.7h10.5v2.7h0Z"/>
    <path class="st4" d="M157,50.6c0,3.9-2.1,6.2-5.5,6.2s-5.5-2.2-5.5-6.2v-7.6h2.7v7.6c0,2.2,1,3.5,2.8,3.5s2.8-1.3,2.8-3.5v-7.6h2.7v7.6h0Z"/>
    <path class="st4" d="M171,51.4c0,3.5-2.3,5.5-5.4,5.5s-5.9-2.7-5.9-7,2.5-7,6-7,4.2,1.3,5.1,3.4l-2.6,1.1c-.5-1-1.1-1.8-2.6-1.8s-3.2,1.8-3.2,4.3,1.2,4.3,3.2,4.3,2.5-.9,2.7-2.1h-2.1v-2.5h4.9v1.8h0Z"/>
    <path class="st4" d="M185.6,56.6h-3l-1.1-3h-5l-1.1,3h-2.9l5.2-13.5h2.6l5.1,13.5h0ZM180.6,51l-.9-2.5c-.3-.8-.5-1.6-.7-2.1-.1.5-.4,1.3-.7,2.1l-.9,2.5h3.1,0Z"/>
    <path class="st4" d="M197.6,56.6h-9.5v-13.5h2.7v10.9h6.8v2.7Z"/>
  </g>
  <g>
    <g>
      <path class="st5" d="M70.6,18.9h0c0-2.7-.8-4.8-2.3-6.2-1.7-1.6-4.3-2.5-7.5-2.5h-10.3v26.1h5.9v-8.5h3.4l5,8.5h6.7l-5.8-9.7c2.3-1,5-3.1,5-7.7h0ZM64.7,19.1h0c0,2.4-1.6,3.8-4.3,3.8h-4v-7.6h3.9c2.9,0,4.4,1.3,4.4,3.8h0ZM153.1,10.1l-9.8,26.3h5.9l2-5.6h9.2l2,5.6h6.1l-9.8-26.3h-5.5,0ZM158.6,25.8h-5.6l2.8-8,2.8,8ZM185.6,23l7.8-12.8h-6.5l-4.6,8.3-4.5-8.3h-6.7l7.7,12.8-8.1,13.3h6.5l4.9-8.8,4.9,8.8h6.7l-8.1-13.3h0ZM82.6,31.3v-5.6h10.5v-5.1h-10.5v-5.4h11.9v-5.1h-17.7v26.1h11l2.7-5.1h-7.9ZM132.7,10.2l-5.9,8.5-6-8.5h0l-6,11.4v14.7h5.7v-16.2l6.2,8h0c0,0,.2,0,.2,0l6.2-8.1v16.2h5.7V10.2h-6.1,0Z"/>
      <polygon class="st4" points="107.6 10.2 93.8 36.3 100.9 36.3 114.7 10.2 107.6 10.2"/>
    </g>
    <path class="st5" d="M196.5,9.3c1.1,0,1.9.9,1.9,1.9s-.9,1.9-1.9,1.9-1.9-.8-1.9-1.9.9-1.9,1.9-1.9c0,0,0,0,0,0ZM196.5,9.6c-.9,0-1.6.7-1.6,1.6s.7,1.6,1.6,1.6c.9,0,1.6-.7,1.6-1.6s-.7-1.6-1.6-1.6c0,0,0,0,0,0ZM196.1,12.4h-.3v-2.1c.2,0,.4,0,.6,0s.5,0,.7.2c.1,0,.2.2.2.4s-.2.5-.4.5h0c.2,0,.3.2.4.5,0,.3.1.5.1.5h-.4c0,0-.1-.3-.1-.5,0-.3-.2-.4-.5-.4h-.2v.9h0ZM196.1,11.2h.3c.3,0,.5-.1.5-.4s-.1-.4-.5-.4-.2,0-.3,0v.7Z"/>
  </g>
  <g>
    <g>
      <path class="st1" d="M21.4,52.8c-.2,0-.3,0-.4-.2l-2.1-2.1c-.8-.8-1.6-1.6-2.3-2.4l-.3-.3-.3-.3-.3-.3-.3-.3-.3-.3-.3-.3-.3-.3-.3-.3-.3-.3-.3-.3-.3-.3-.3-.3c0,0-.3-.3-.3-.3,0,0-.3-.3-.3-.3,0,0-.2-.3-.3-.3-3.8-4.2-6.1-7.4-6.9-9.4h0c0-.2,0-.2,0-.3,0,0,0,0,0,0,0,0,0,0,0,0,0,0,0,0,0,0,0,0,0,0,0,0-.7-1.9-1.2-4.1-1.4-6.2-.3-2.8,0-5.4.7-7.8,0,0,0,0,0,0,0,0,0-.1,0-.1.3-1.2.9-2.4,1.5-3.6,1.3-2.3,2.8-3.8,3.8-4.6.9-.8,1.9-1.3,2.5-1.5,0,0,0,0,0,0,2.3-2.1,4.9-2.4,6.3-2.4s.5,0,.7,0h0s0,0,0,0c1.4-1,3.4-1.1,4.2-1.1s.2,0,.2,0h0c0,0,.1,0,.2,0,.8,0,2.8.1,4.2,1.1,0,0,0,0,0,0h0c.2,0,.4,0,.7,0,1.4,0,4,.3,6.3,2.4,0,0,0,0,0,0,.7.2,1.6.7,2.5,1.5,1,.8,2.5,2.3,3.8,4.6.7,1.2,1.2,2.4,1.6,3.6,0,0,0,0,0,0,0,0,0,0,0,0,0,0,0,.1,0,.2h0c0,.2,0,.2,0,.3,0,0,0,.2,0,.2h0c0,.1,0,.2,0,.3,0,0,0,0,0,.1h0c0,.2,0,.3,0,.4,0,0,0,.1,0,.1,0,.2,0,.3,0,.4h0c.2,1,.3,2,.3,3h0c0,.2,0,.3,0,.5,0,4.1-1.1,7.4-1.6,8.7,0,0,0,0,0,.1,0,.1,0,.2,0,.2h0c0,.1,0,.2,0,.2,0,0,0,0,0,.1,0,0,0,0,0,0,0,0,0,0,0,.1,0,0,0,0,0,.1,0,0,0,.1,0,.1,0,0,0,0,0,.1h0c-.1.3-.3.6-.4.8h0c-1.1,1.8-3,4.3-5.6,7.2,0,0,0,0,0,0,0,.1-.2.2-.3.3h0c0,.1-.2.2-.3.3h0c0,.1-.2.2-.3.3h0c0,.1-.2.2-.3.3h0c0,.1-.2.2-.3.3h0c0,.1-.2.2-.3.3h0c0,.1-.2.2-.3.3h0c0,.1-.2.2-.3.3,0,0-.2.2-.3.3l-.3.3c0,.1-.3.3-.3.3-2.5,2.6-4.7,4.8-5.8,5.9-.1.1-.3.2-.4.2h-4.8Z"/>
      <path class="st1" d="M22.5,57.7c-.2,0-.4-.1-.4-.3l-.7-2.4c-.2,0-.4-.2-.4-.4v-.3c0-.2.2-.4.4-.4h4.7c.2,0,.4.2.4.4v.3c0,.2-.2.4-.4.4l-.7,2.4c0,.2-.2.3-.4.3h-2.7Z"/>
      <g>
        <path class="st1" d="M28.9,57.3c-.9,0-1.6-.7-1.6-1.6s.7-1.6,1.6-1.6,1.6.7,1.6,1.6-.7,1.6-1.6,1.6Z"/>
        <path class="st1" d="M28.9,54.2c.8,0,1.5.7,1.5,1.5s-.7,1.5-1.5,1.5-1.5-.6-1.5-1.5.7-1.5,1.5-1.5h0Z"/>
      </g>
    </g>
    <g>
      <g>
        <g>
          <path class="st5" d="M23.8,6.9c-.5,0-2.8,0-4.2,1.1,0,0-3.9-.6-7,2.3-.7,0-3.7,1.7-6.1,5.8-.6,1.1-1.2,2.3-1.5,3.5.5-.6,2.3-3.1,6.1-2.7.3-.2,2.6-2.8,7.6-1.9.7-.7,3.1-1.5,5.2-1.5,2.1,0,4.5.8,5.2,1.5,4.9-.9,7.3,1.7,7.6,1.9,3.8-.3,5.6,2.1,6.1,2.7-.3-1.2-.9-2.3-1.5-3.5-2.4-4.1-5.4-5.8-6.1-5.8-3.1-3-7-2.3-7-2.3-1.4-1.2-3.8-1.2-4.2-1.1"/>
          <path class="st2" d="M19.5,8.1s-3.9-.6-7,2.3c-.7,0-3.7,1.7-6.1,5.8-.6,1.1-1.2,2.3-1.5,3.5.5-.6,2.3-3.1,6.1-2.7.3-.2,2.6-2.8,7.5-1.9.5-3.9,1-6.9,1-6.9h0Z"/>
          <path class="st3" d="M11,16.9s0,0,0,0c.7-3.7,1.5-6.5,1.5-6.5-.7,0-3.7,1.7-6.1,5.8-.6,1.1-1.2,2.3-1.5,3.5.5-.6,2.3-3.1,6.1-2.7h0Z"/>
          <path class="st2" d="M28,8.1s3.9-.6,7,2.3c.7,0,3.7,1.7,6.1,5.8.6,1.1,1.2,2.3,1.5,3.5-.5-.6-2.3-3.1-6.1-2.7-.3-.2-2.6-2.8-7.5-1.9-.5-3.9-1-6.9-1-6.9h0Z"/>
          <path class="st3" d="M36.5,16.9s0,0,0,0c-.7-3.7-1.5-6.5-1.5-6.5.7,0,3.7,1.7,6.1,5.8.6,1.1,1.2,2.3,1.5,3.5-.5-.6-2.3-3.1-6.1-2.7h0Z"/>
        </g>
        <g>
          <polygon class="st8" points="23.9 54.4 23.8 54.4 21.7 54.4 21.7 54.5 22.5 57.3 23.9 57.3 23.9 54.4"/>
          <polygon class="st6" points="23.8 54.4 23.9 54.4 26 54.4 25.9 54.5 25.2 57.3 23.8 57.3 23.8 54.4"/>
          <path class="st6" d="M26.2,54.6h-4.7s0,0,0,0v-.3s0,0,0,0h4.7s0,0,0,0v.3s0,0,0,0Z"/>
          <polygon class="st8" points="25.9 54.6 25.9 54.6 21.7 54.6 21.7 54.6 25.9 54.6"/>
        </g>
        <g>
          <path class="st4" d="M36.8,31.5c0,0-2.5-2.5-7.2-2.1-.3-.2-2-1.1-5.8-1.3-3.5,0-5.5,1.1-5.8,1.3-4.8-.4-7.2,2.1-7.2,2.1-2.9,0-4.8,1.9-5,2.2,0,.2,0,.2.1.3,1.8,4.5,11.3,14.1,15.5,18.2h4.8c4.2-4.1,13.7-13.7,15.5-18.2,0-.1,0-.1.1-.3-.2-.2-2.1-2.3-5-2.2Z"/>
          <path class="st0" d="M29.6,29.4c4.8-.4,7.2,2.1,7.2,2.1,2.9,0,4.8,1.9,5,2.2,0,.2,0,.2-.1.3-1.8,4.5-11.3,14.1-15.5,18.2h-1.3c3.3-7.1,4.5-15.4,4.7-22.8h0Z"/>
          <path class="st7" d="M36.8,31.5h0c2.9,0,4.8,1.9,5,2.2,0,.2,0,.2-.1.3-1.8,4.5-11.3,14.1-15.5,18.2,0,0,6.3-9.2,9.9-18,.3-.8.6-1.7.8-2.7h0Z"/>
          <path class="st0" d="M18,29.4c-4.8-.4-7.2,2.1-7.2,2.1-2.9,0-4.8,1.9-5,2.2,0,.2,0,.2.1.3,1.8,4.5,11.3,14.1,15.5,18.2h1.3c-3.3-7.1-4.5-15.4-4.7-22.8h0Z"/>
          <path class="st7" d="M10.7,31.5h0c-2.9,0-4.8,1.9-5,2.2,0,.2,0,.2.1.3,1.8,4.5,11.3,14.1,15.5,18.2,0,0-6.3-9.2-9.9-18-.3-.8-.6-1.7-.8-2.7h0Z"/>
        </g>
        <g>
          <path class="st4" d="M13.3,22.2h0c0-.5-.2-.9-.5-1.1-.4-.2-.9-.3-1.5,0-.7.2-1.4.5-2.1.8,0,1.8.2,3.6.3,5.3.5-.2.7-.3,1.1-.4,0-.7,0-1,0-1.7.3,0,.4-.1.7-.2.4.6.6.8,1.1,1.4.5-.2.8-.2,1.3-.4-.4-.6-.8-1.1-1.2-1.6.6-.4,1-1.1.9-1.9h0ZM12.1,22.5h0c0,.5-.3.9-.8,1.1-.3.1-.5.2-.8.3,0-.6,0-.9,0-1.6.3-.1.5-.2.8-.3.6-.2.9,0,.9.5h0Z"/>
          <path class="st4" d="M30.5,19.4c-.7,1.7-1.4,3.4-2.1,5.1.5,0,.7,0,1.2.2.2-.4.3-.7.4-1.1.8.1,1.1.2,1.9.3.2.5.2.7.4,1.2.5.1.7.2,1.2.3-.6-2-1.2-3.9-1.8-5.8-.5,0-.7-.1-1.1-.2h0ZM31.5,22.8c-.5,0-.7-.1-1.2-.2.2-.6.4-.9.6-1.6.2.7.3,1,.5,1.8h0Z"/>
          <path class="st4" d="M37.2,23.7c.6-.7,1.1-1.4,1.7-2-.5-.2-.8-.3-1.3-.5-.4.5-.6.8-1,1.4-.3-.7-.6-1.3-.8-2-.5-.2-.8-.2-1.4-.4.5,1,1,2.1,1.5,3.1-.6.7-1.2,1.5-1.7,2.3.5.1.8.2,1.3.4.4-.6.6-.9,1.1-1.5.3.7.6,1.4.9,2.1.5.2.8.3,1.3.5-.5-1.1-1-2.2-1.5-3.3h0Z"/>
          <path class="st4" d="M16,24.1c0-.5,0-.7,0-1.1.7-.1,1.4-.3,2.2-.4,0-.4,0-.6,0-1-.7.1-1.4.2-2.2.4,0-.4,0-.7,0-1.1.8-.2,1.6-.3,2.5-.4,0-.4,0-.6,0-1-1.2.2-2.5.4-3.7.7,0,1.8.1,3.6.2,5.4.7-.2,1.5-.3,2.2-.5.2-.5.3-.7.5-1.1-.6.1-1,.2-1.6.3h0Z"/>
          <path class="st4" d="M26.2,18.9c-.4.6-.8,1.1-1.2,1.7-.4-.6-.8-1.2-1.3-1.8h0c-.4.8-.8,1.6-1.2,2.4,0,1,0,2,0,3,.5,0,.7,0,1.2,0,0-1.1,0-2.2,0-3.3.4.5.9,1.1,1.3,1.7,0,0,0,0,0,0h0c.4-.5.9-1.1,1.3-1.6,0,1.1,0,2.2,0,3.4.5,0,.7,0,1.2,0,0-1.8,0-3.6,0-5.4-.5,0-.8,0-1.3,0h0Z"/>
          <path class="st5" d="M19.7,24.5c.9-1.9,1.9-3.8,2.8-5.6-.6,0-.9,0-1.5,0-1,1.9-1.9,3.8-2.8,5.8.6,0,.9-.1,1.5-.2h0Z"/>
        </g>
      </g>
      <path class="st6" d="M28.9,54.2c.8,0,1.5.7,1.5,1.5s-.7,1.5-1.5,1.5-1.5-.6-1.5-1.5.7-1.5,1.5-1.5h0ZM28.9,54.5c-.7,0-1.2.6-1.2,1.2s.5,1.2,1.2,1.2c.7,0,1.2-.5,1.2-1.2s-.5-1.2-1.2-1.2h0ZM28.6,56.6h-.3v-1.6c.1,0,.3,0,.5,0s.4,0,.5.1c0,0,.2.2.2.3s-.1.3-.3.4h0c.1,0,.2.2.3.4,0,.3,0,.4.1.4h-.3c0,0,0-.2-.1-.4,0-.2-.1-.3-.4-.3h-.2v.7h0ZM28.6,55.7h.2c.2,0,.4,0,.4-.3s-.1-.3-.4-.3-.1,0-.2,0v.6h0Z"/>
    </g>
  </g>
</svg>