<?xml version="1.0" encoding="utf-8"?>
<!-- Generator: Adobe Illustrator 19.2.1, SVG Export Plug-In . SVG Version: 6.00 Build 0)  -->
<svg version="1.1" id="layer" xmlns="http://www.w3.org/2000/svg" xmlns:xlink="http://www.w3.org/1999/xlink" x="0px" y="0px"
	 viewBox="0 0 652 652" style="enable-background:new 0 0 652 652;" xml:space="preserve">
<style type="text/css">
	.st0{fill:#0B72FD;}
</style>
<path class="st0" d="M166.7,257.7c-7.9-3.1-17-0.9-22.7,5.4l-43.3,47.7l-43.3-47.7c-7.6-8.5-20.6-9.1-29.1-1.5
	c-3.7,3.3-6.1,7.9-6.7,12.9c-0.1,0.7-0.1,1.6-0.1,2.3v87.3c-0.1,8.5,5.3,16.2,13.2,19.2l0,0c2.4,0.9,4.9,1.3,7.5,1.4l0,0
	c5.8,0,11.3-2.5,15.2-6.8L74,359.7l11.9,17.3c3.5,5,9.1,7.8,14.8,7.8c3.5,0,7.1-1.1,10.2-3.2c1.8-1.2,3.3-2.8,4.6-4.6l11.9-17.3
	l16.6,18.3l0,0c7.7,8.4,20.6,9.1,29.1,1.3c4.3-3.9,6.7-9.4,6.7-15.2v-87.2C179.9,268.4,174.6,260.7,166.7,257.7z M159.2,371.7
	c-1.1,0-2.1-0.2-3-0.6c-0.9-0.4-1.8-1.1-2.6-1.9l-18.7-20.6l31.8-46.3l0.1,61.8C166.8,368.3,163.4,371.7,159.2,371.7z M47.8,369.2
	c-2.8,3.1-7.6,3.3-10.7,0.6c-1.6-1.5-2.5-3.5-2.5-5.6v-61.9l31.8,46.3L47.8,369.2z M36,281.2c-0.9-1.3-1.3-2.9-1.3-4.4v-0.2
	c0-3,1.9-5.8,4.9-6.9c0.9-0.4,1.9-0.6,2.9-0.6c2.1,0,4.1,0.9,5.4,2.5l0,0L92,320.4l-16.5,18.2L36,281.2z M104.8,369.4
	c-1.5,2.2-4.6,2.8-6.8,1.2l0,0c-0.5-0.4-0.9-0.8-1.2-1.2l-13.6-19.8l17.7-19.5l17.7,19.5L104.8,369.4z M126,338.7l-16.5-18.2
	l44.2-48.7c2.9-3,7.7-3.3,10.7-0.5c1.6,1.5,2.5,3.5,2.5,5.6c0,1.6-0.5,3.1-1.3,4.4L126,338.7z"/>
<path class="st0" d="M285.7,297.7c5.7,0,10.4,1.9,14,5.8s5.3,9.2,5.3,16V355h-13v-31.8c0-4.6-0.9-8-2.8-10.3
	c-1.9-2.3-4.5-3.5-7.8-3.5c-3.7,0-6.7,1.3-9.2,4c-2.4,2.7-3.6,6.4-3.6,11.3V355h-13v-31.8c0-4.6-0.9-8-2.8-10.3
	c-1.9-2.3-4.5-3.5-7.8-3.5c-3.7,0-6.7,1.3-9.2,4c-2.4,2.7-3.6,6.4-3.6,11.3V355h-13v-56.5h12.8v8c1.9-2.9,4.4-5,7.5-6.5
	c3-1.5,6.4-2.3,10-2.3c8.2,0,13.9,3.6,17.1,10.6c1.9-3.3,4.5-6,8-7.8C277.8,298.7,281.6,297.7,285.7,297.7z M364.3,347.7
	c-5.5,5.5-12.4,8.2-20.6,8.2s-15.1-2.7-20.6-8.2c-5.5-5.5-8.2-12.4-8.2-20.9s2.7-15.4,8.2-20.9c5.5-5.5,12.4-8.2,20.6-8.2
	s15.1,2.7,20.6,8.2c5.5,5.4,8.2,12.5,8.2,20.9C372.6,335.3,369.9,342.2,364.3,347.7z M332.5,339.5c2.9,3.2,6.7,4.9,11.3,4.9
	c4.6,0,8.4-1.6,11.3-4.9s4.4-7.5,4.4-12.7s-1.5-9.5-4.4-12.7s-6.7-4.9-11.3-4.9c-4.6,0-8.4,1.6-11.3,4.9s-4.4,7.5-4.4,12.7
	S329.5,336.3,332.5,339.5z M414,297.7c6.2,0,11.1,1.9,14.8,5.8s5.6,9.2,5.6,16.1V355h-13v-31.6c0-4.6-1.1-8-3.2-10.4
	c-2.1-2.3-5-3.5-8.7-3.5c-4.2,0-7.6,1.3-10.2,4.1c-2.6,2.7-3.9,6.5-3.9,11.5V355h-13v-56.5h12.7v8.2c2-2.9,4.6-5,8-6.7
	C406.6,298.5,410.1,297.7,414,297.7z M501.1,325.3c0,1.1-0.1,2.6-0.2,4.4h-43.8c0.6,4.9,2.3,8.7,5.4,11.3c3,2.6,6.8,3.9,11.3,3.9
	c3.3,0,6.1-0.6,8.6-2c2.5-1.3,4.3-3.2,5.4-5.6h12.6c-1.6,5.7-4.7,10.2-9.6,13.5c-4.9,3.3-10.6,5-17.3,5c-8.6,0-15.6-2.6-21.1-8
	c-5.4-5.3-8.1-12.2-8.1-20.7c0-8.7,2.8-15.7,8.4-21.3c5.6-5.4,12.5-8.1,20.9-8.1c8,0,14.5,2.5,19.7,7.5
	C498.5,310.3,501.1,317,501.1,325.3z M483.3,311.5c-2.5-2-5.7-3-9.6-3c-3.9,0-7.3,1.1-10.1,3.2s-4.7,5-5.8,8.9h30.4
	C487.4,316.6,485.8,313.5,483.3,311.5z M533.4,355.9c-7.3,0-13-1.7-17.4-5.1c-4.4-3.4-6.7-8-7-13.9h12.6c0.4,2.7,1.6,4.8,3.8,6.3
	c2.2,1.5,5,2.3,8.6,2.3c3.3,0,5.9-0.6,7.8-1.9c1.9-1.3,2.7-3,2.7-5.2c0-1.7-0.7-3-2.1-4s-3.9-1.8-7.5-2.5l-9.1-1.7
	c-10.9-1.9-16.3-6.9-16.3-15c0-5.2,2.1-9.4,6.3-12.6c4.2-3.2,9.9-4.9,17.1-4.9c7,0,12.6,1.6,16.7,4.8s6.3,7.7,6.8,13.5H544
	c-0.8-5.3-4.7-8-11.8-8c-3.3,0-5.8,0.6-7.5,1.8c-1.8,1.2-2.6,2.7-2.6,4.6c0,1.5,0.7,2.7,2,3.6c1.3,0.9,3.9,1.7,7.5,2.3l9.1,1.6
	c10.9,2,16.4,7.1,16.4,15.4c0,5.6-2.1,10-6.3,13.5C546.4,354.2,540.7,355.9,533.4,355.9z M621.6,325.3c0,1.1-0.1,2.6-0.2,4.4h-43.8
	c0.6,4.9,2.3,8.7,5.4,11.3c3,2.6,6.8,3.9,11.3,3.9c3.3,0,6.1-0.6,8.6-2c2.5-1.3,4.3-3.2,5.4-5.6h12.6c-1.6,5.7-4.7,10.2-9.6,13.5
	c-4.9,3.3-10.6,5-17.3,5c-8.6,0-15.6-2.6-21.1-8c-5.4-5.3-8.1-12.2-8.1-20.7c0-8.7,2.8-15.7,8.4-21.3c5.6-5.4,12.6-8.1,20.9-8.1
	c8,0,14.5,2.5,19.7,7.5C619,310.3,621.6,317,621.6,325.3z M603.8,311.5c-2.5-2-5.7-3-9.6-3s-7.3,1.1-10.1,3.2s-4.7,5-5.8,8.9h30.4
	C607.9,316.6,606.3,313.5,603.8,311.5z"/>
</svg>
