<?xml version="1.0" encoding="UTF-8"?>
<svg id="Camada_1" data-name="Camada 1" xmlns="http://www.w3.org/2000/svg" viewBox="0 0 250 54">
  <defs>
    <style>
      .cls-1 {
        fill: #fff;
      }
    </style>
  </defs>
  <g>
    <g>
      <path d="M99.5,31.4c4.7,0,7.8,2.3,7.8,6.7s-1.7,4.9-3.8,5.8l4.2,7.8h-4.6l-3.6-7.1h-2.9v7.1h-4.2v-20.2h7.1v-.1ZM96.7,35v6h3.1c1.9,0,3.2-1,3.2-3s-1.4-3-3.3-3c0,0-3,0-3,0Z"/>
      <path d="M119.7,31c6.1,0,10.6,4.7,10.6,10.5s-4.5,10.5-10.6,10.5-10.6-4.6-10.6-10.5,4.5-10.5,10.6-10.5ZM119.7,48c3.7,0,6.2-2.9,6.2-6.5s-2.6-6.5-6.2-6.5-6.2,3-6.2,6.5,2.6,6.5,6.2,6.5Z"/>
      <path d="M133.1,51.6v-20.2h6.4c6.9,0,11.2,4.2,11.2,10.1s-4.3,10.1-11.2,10.1h-6.5.1ZM137.5,35v13h2.1c4.3,0,6.9-2.8,6.9-6.5s-2.6-6.5-6.9-6.5h-2.1Z"/>
      <path d="M160.8,31.4c4.7,0,7.8,2.3,7.8,6.7s-1.7,4.9-3.8,5.8l4.2,7.8h-4.6l-3.6-7.1h-2.9v7.1h-4.2v-20.2h7.1v-.1ZM157.9,35v6h3.1c1.9,0,3.2-1,3.2-3s-1.4-3-3.3-3h-3Z"/>
      <path d="M171.7,51.6v-20.2h4.3v20.2h-4.3Z"/>
      <path d="M189.7,52c-6.4,0-10.9-4.6-10.9-10.5s4.5-10.5,10.8-10.5,5.2.8,6.3,1.4v4c-1.3-.6-3.3-1.4-6.1-1.4-4.2,0-6.7,3-6.7,6.5s2.5,6.6,6.5,6.6,2.1-.2,2.8-.4v-5.4h4.1v8.2c-1.8.9-4.4,1.5-6.9,1.5h.1Z"/>
      <path d="M216.4,44.2c0,4.7-3.1,7.7-8.4,7.7s-8.4-3-8.4-7.7v-12.9h4.3v12.4c0,2.6,1.5,4.2,4.1,4.2s4.1-1.6,4.1-4.2v-12.4h4.3v12.8h0v.1Z"/>
      <path d="M220.2,51.6v-20.2h13v3.6h-8.7v4.6h7.4v3.5h-7.4v4.9h9.1v3.6h-13.4Z"/>
      <path d="M235.5,50.8v-4.2c1.4.7,3.2,1.3,5.1,1.5.6,0,1.3,0,1.8-.1,1.5-.2,2.4-.8,2.4-1.8s-1.2-2-4-3.1c-3.5-1.3-5.6-2.8-5.6-6.3s3-5.9,7.3-5.9,4,.5,5.3,1v4c-1.2-.7-3.1-1.2-4.9-1.2s-3.4.8-3.4,2.1,1.1,2,3.8,3c3.5,1.4,5.7,2.9,5.7,6.3s-2.8,5.8-7.5,5.8-4.5-.5-6-1.2h0v.1Z"/>
    </g>
    <g>
      <path d="M95,11.4l-.6-.8v14.8h-2.1V4.9h0l9,11.8,9-11.8h0v20.5h-2.1v-14.8c-.3.4-.7,1-1.1,1.6l-5.9,7.6-6.4-8.4h.2Z"/>
      <path d="M122.3,4.9h0l9.2,20.5h-2.2l-2.2-4.9h-9.6l-2.1,4.9h-2.3l9.2-20.5h0ZM126.3,18.8c-1.5-3.3-2.7-6.3-4-9.4-1.3,3.2-2.6,6.1-4,9.4h8Z"/>
      <path d="M140.6,5.3c4.3,0,6.9,2.2,6.9,6s-1.9,5.1-4.4,5.7l4.7,8.5h-2.4l-4.5-8.2h-4.6v8.2h-2.1V5.3h6.4ZM136.3,7v8.4h4.3c2.9,0,4.7-1.6,4.7-4.2s-1.8-4.2-4.8-4.2h-4.2Z"/>
      <path d="M166.6,8.5c-1.5-.8-3.6-1.6-6.1-1.6-4.9,0-8.4,3.6-8.4,8.4s3.5,8.4,8.4,8.4,4.8-.8,6.3-1.5v2c-1,.6-3.2,1.5-6.3,1.5-6.1,0-10.6-4.5-10.6-10.4s4.5-10.4,10.6-10.4,5.1.9,6.1,1.5v2h0v.1Z"/>
      <path d="M178.9,4.9c5.8,0,10.3,4.6,10.3,10.4s-4.4,10.4-10.3,10.4-10.3-4.6-10.3-10.4,4.4-10.4,10.3-10.4ZM178.9,23.8c4.7,0,8.1-3.6,8.1-8.4s-3.4-8.4-8.1-8.4-8.1,3.6-8.1,8.4,3.4,8.4,8.1,8.4Z"/>
    </g>
  </g>
  <g>
    <g>
      <path class="cls-1" d="M98.5,30.4c4.7,0,7.8,2.3,7.8,6.7s-1.7,4.9-3.8,5.8l4.2,7.8h-4.6l-3.6-7.1h-2.9v7.1h-4.2v-20.2h7.1v-.1ZM95.7,34v6h3.1c1.9,0,3.2-1,3.2-3s-1.4-3-3.3-3c0,0-3,0-3,0Z"/>
      <path class="cls-1" d="M118.7,30c6.1,0,10.6,4.7,10.6,10.5s-4.5,10.5-10.6,10.5-10.6-4.6-10.6-10.5,4.5-10.5,10.6-10.5ZM118.7,47c3.7,0,6.2-2.9,6.2-6.5s-2.6-6.5-6.2-6.5-6.2,3-6.2,6.5,2.6,6.5,6.2,6.5Z"/>
      <path class="cls-1" d="M132.1,50.6v-20.2h6.4c6.9,0,11.2,4.2,11.2,10.1s-4.3,10.1-11.2,10.1h-6.5.1ZM136.5,34v13h2.1c4.3,0,6.9-2.8,6.9-6.5s-2.6-6.5-6.9-6.5h-2.1Z"/>
      <path class="cls-1" d="M159.8,30.4c4.7,0,7.8,2.3,7.8,6.7s-1.7,4.9-3.8,5.8l4.2,7.8h-4.6l-3.6-7.1h-2.9v7.1h-4.2v-20.2h7.1v-.1ZM156.9,34v6h3.1c1.9,0,3.2-1,3.2-3s-1.4-3-3.3-3h-3Z"/>
      <path class="cls-1" d="M170.7,50.6v-20.2h4.3v20.2h-4.3Z"/>
      <path class="cls-1" d="M188.7,51c-6.4,0-10.9-4.6-10.9-10.5s4.5-10.5,10.8-10.5,5.2.8,6.3,1.4v4c-1.3-.6-3.3-1.4-6.1-1.4-4.2,0-6.7,3-6.7,6.5s2.5,6.6,6.5,6.6,2.1-.2,2.8-.4v-5.4h4.1v8.2c-1.8.9-4.4,1.5-6.9,1.5h.1Z"/>
      <path class="cls-1" d="M215.4,43.2c0,4.7-3.1,7.7-8.4,7.7s-8.4-3-8.4-7.7v-12.9h4.3v12.4c0,2.6,1.5,4.2,4.1,4.2s4.1-1.6,4.1-4.2v-12.4h4.3v12.8h0v.1Z"/>
      <path class="cls-1" d="M219.2,50.6v-20.2h13v3.6h-8.7v4.6h7.4v3.5h-7.4v4.9h9.1v3.6h-13.4Z"/>
      <path class="cls-1" d="M234.5,49.8v-4.2c1.4.7,3.2,1.3,5.1,1.5.6,0,1.3,0,1.8-.1,1.5-.2,2.4-.8,2.4-1.8s-1.2-2-4-3.1c-3.5-1.3-5.6-2.8-5.6-6.3s3-5.9,7.3-5.9,4,.5,5.3,1v4c-1.2-.7-3.1-1.2-4.9-1.2s-3.4.8-3.4,2.1,1.1,2,3.8,3c3.5,1.4,5.7,2.9,5.7,6.3s-2.8,5.8-7.5,5.8-4.5-.5-6-1.2h0v.1Z"/>
    </g>
    <g>
      <path class="cls-1" d="M94,10.4l-.6-.8v14.8h-2.1V3.9h0l9,11.8,9-11.8h0v20.5h-2.1v-14.8c-.3.4-.7,1-1.1,1.6l-5.9,7.6-6.4-8.4h.2Z"/>
      <path class="cls-1" d="M121.3,3.9h0l9.2,20.5h-2.2l-2.2-4.9h-9.6l-2.1,4.9h-2.3l9.2-20.5h0ZM125.3,17.8c-1.5-3.3-2.7-6.3-4-9.4-1.3,3.2-2.6,6.1-4,9.4h8Z"/>
      <path class="cls-1" d="M139.6,4.3c4.3,0,6.9,2.2,6.9,6s-1.9,5.1-4.4,5.7l4.7,8.5h-2.4l-4.5-8.2h-4.6v8.2h-2.1V4.3h6.4ZM135.3,6v8.4h4.3c2.9,0,4.7-1.6,4.7-4.2s-1.8-4.2-4.8-4.2h-4.2Z"/>
      <path class="cls-1" d="M165.6,7.5c-1.5-.8-3.6-1.6-6.1-1.6-4.9,0-8.4,3.6-8.4,8.4s3.5,8.4,8.4,8.4,4.8-.8,6.3-1.5v2c-1,.6-3.2,1.5-6.3,1.5-6.1,0-10.6-4.5-10.6-10.4s4.5-10.4,10.6-10.4,5.1.9,6.1,1.5v2h0v.1Z"/>
      <path class="cls-1" d="M177.9,3.9c5.8,0,10.3,4.6,10.3,10.4s-4.4,10.4-10.3,10.4-10.3-4.6-10.3-10.4,4.4-10.4,10.3-10.4ZM177.9,22.8c4.7,0,8.1-3.6,8.1-8.4s-3.4-8.4-8.1-8.4-8.1,3.6-8.1,8.4,3.4,8.4,8.1,8.4Z"/>
    </g>
  </g>
  <g>
    <g>
      <path d="M62.45,19.86c.9-1.6,2.69-2.79,4.69-2.79s1.6.2,2.3.5c2,1,3.29,3.19,2.99,5.59-.4,2.3-2.3,4.19-4.59,4.39-1.3.1-2.59-.2-3.59-.9l-.3.5-7.23,12.06h0l7.59,12.79h14.17l-7.34-12.57h0c7.88-1.8,13.67-8.78,13.67-17.16s-3.69-12.37-9.08-15.37h0c-1.4-.8-2.99-1.4-4.59-1.7h0c-1.2-.3-2.49-.4-3.79-.4-5.19,0-9.78,2.2-12.97,5.79-.8.8-1.4,1.7-2,2.69-.1.2-.3.5-.4.7l-4.89,8.38-3.29,5.69L31.01,6.49c-.3-.6-1.2-.6-1.5,0l-5.99,10.38,20.46,35.13,18.46-32.13h0Z"/>
      <polygon points="33.51 45.51 30.11 39.52 20.13 22.56 20.13 22.56 13.45 34.24 13.45 34.24 16.44 39.52 23.73 52 23.73 52 29.71 52 37.3 52 37.3 52 33.51 45.51"/>
      <polygon points="10.15 39.92 10.15 39.92 3.17 52 10.15 52 17.14 52 17.14 52 10.15 39.92"/>
    </g>
    <path d="M49.03,52l4.04-6.73c.21-.35.71-.35.92,0l3.99,6.73h-8.94,0Z"/>
  </g>
  <g>
    <g>
      <path class="cls-1" d="M61.45,18.86c.9-1.6,2.69-2.79,4.69-2.79s1.6.2,2.3.5c2,1,3.29,3.19,2.99,5.59-.4,2.3-2.3,4.19-4.59,4.39-1.3.1-2.59-.2-3.59-.9l-.3.5-7.23,12.06h0l7.59,12.79h14.17l-7.34-12.57h0c7.88-1.8,13.67-8.78,13.67-17.16s-3.69-12.37-9.08-15.37h0c-1.4-.8-2.99-1.4-4.59-1.7h0c-1.2-.3-2.49-.4-3.79-.4-5.19,0-9.78,2.2-12.97,5.79-.8.8-1.4,1.7-2,2.69-.1.2-.3.5-.4.7l-4.89,8.38-3.29,5.69L30.01,5.49c-.3-.6-1.2-.6-1.5,0l-5.99,10.38,20.46,35.13,18.46-32.13h0Z"/>
      <polygon class="cls-1" points="32.51 44.51 29.11 38.52 19.13 21.56 19.13 21.56 12.45 33.24 12.45 33.24 15.44 38.52 22.73 51 22.73 51 28.71 51 36.3 51 36.3 51 32.51 44.51"/>
      <polygon class="cls-1" points="9.15 38.92 9.15 38.92 2.17 51 9.15 51 16.14 51 16.14 51 9.15 38.92"/>
    </g>
    <path class="cls-1" d="M48.03,51l4.04-6.73c.21-.35.71-.35.92,0l3.99,6.73h-8.94,0Z"/>
  </g>
</svg>