<?xml version="1.0" encoding="UTF-8"?>
<svg id="Camada_1" xmlns="http://www.w3.org/2000/svg" version="1.1" viewBox="0 0 250 54">
  <!-- Generator: Adobe Illustrator 29.4.0, SVG Export Plug-In . SVG Version: 2.1.0 Build 152)  -->
  <defs>
    <style>
      .st0 {
        fill: #fff;
      }
    </style>
  </defs>
  <g>
    <g>
      <path d="M98.5,31.4c4.7,0,7.8,2.3,7.8,6.7s-1.7,4.9-3.8,5.8l4.2,7.8h-4.6l-3.6-7.1h-2.9v7.1h-4.2v-20.2h7.1,0ZM95.7,35v6h3.1c1.9,0,3.2-1,3.2-3s-1.4-3-3.3-3h-3Z"/>
      <path d="M118.7,31c6.1,0,10.6,4.7,10.6,10.5s-4.5,10.5-10.6,10.5-10.6-4.6-10.6-10.5,4.5-10.5,10.6-10.5ZM118.7,48c3.7,0,6.2-2.9,6.2-6.5s-2.6-6.5-6.2-6.5-6.2,3-6.2,6.5,2.6,6.5,6.2,6.5Z"/>
      <path d="M132.1,51.6v-20.2h6.4c6.9,0,11.2,4.2,11.2,10.1s-4.3,10.1-11.2,10.1h-6.5,0ZM136.5,35v13h2.1c4.3,0,6.9-2.8,6.9-6.5s-2.6-6.5-6.9-6.5h-2.1,0Z"/>
      <path d="M159.8,31.4c4.7,0,7.8,2.3,7.8,6.7s-1.7,4.9-3.8,5.8l4.2,7.8h-4.6l-3.6-7.1h-2.9v7.1h-4.2v-20.2h7.1,0ZM156.9,35v6h3.1c1.9,0,3.2-1,3.2-3s-1.4-3-3.3-3h-3Z"/>
      <path d="M170.7,51.6v-20.2h4.3v20.2h-4.3Z"/>
      <path d="M188.7,52c-6.4,0-10.9-4.6-10.9-10.5s4.5-10.5,10.8-10.5,5.2.8,6.3,1.4v4c-1.3-.6-3.3-1.4-6.1-1.4-4.2,0-6.7,3-6.7,6.5s2.5,6.6,6.5,6.6,2.1-.2,2.8-.4v-5.4h4.1v8.2c-1.8.9-4.4,1.5-6.9,1.5h0Z"/>
      <path d="M215.4,44.2c0,4.7-3.1,7.7-8.4,7.7s-8.4-3-8.4-7.7v-12.9h4.3v12.4c0,2.6,1.5,4.2,4.1,4.2s4.1-1.6,4.1-4.2v-12.4h4.3v12.8h0Z"/>
      <path d="M219.2,51.6v-20.2h13v3.6h-8.7v4.6h7.4v3.5h-7.4v4.9h9.1v3.6s-13.4,0-13.4,0Z"/>
      <path d="M234.5,50.8v-4.2c1.4.7,3.2,1.3,5.1,1.5.6,0,1.3,0,1.8-.1,1.5-.2,2.4-.8,2.4-1.8s-1.2-2-4-3.1c-3.5-1.3-5.6-2.8-5.6-6.3s3-5.9,7.3-5.9,4,.5,5.3,1v4c-1.2-.7-3.1-1.2-4.9-1.2s-3.4.8-3.4,2.1,1.1,2,3.8,3c3.5,1.4,5.7,2.9,5.7,6.3s-2.8,5.8-7.5,5.8-4.5-.5-6-1.2h0Z"/>
    </g>
    <g>
      <path d="M94,11.4l-.6-.8c0,.6,0,1.3,0,1.9v12.9h-2.1V4.9h0l9,11.8,9-11.8h0v20.5h-2.1v-12.9c0-.6,0-1.2,0-1.9-.3.4-.7,1-1.1,1.6l-5.9,7.6-6.4-8.4h0Z"/>
      <path d="M121.3,4.9h0l9.2,20.5h-2.2l-2.2-4.9h-9.6l-2.1,4.9h-2.3l9.2-20.5h0ZM125.3,18.8c-1.5-3.3-2.7-6.3-4-9.4-1.3,3.2-2.6,6.1-4,9.4h8Z"/>
      <path d="M139.6,5.3c4.3,0,6.9,2.2,6.9,6s-1.9,5.1-4.4,5.7l4.7,8.5h-2.4l-4.5-8.2h-4.6v8.2h-2.1V5.3h6.4,0ZM135.3,7v8.4h4.3c2.9,0,4.7-1.6,4.7-4.2s-1.8-4.2-4.8-4.2h-4.2Z"/>
      <path d="M165.6,8.5c-1.5-.8-3.6-1.6-6.1-1.6-4.9,0-8.4,3.6-8.4,8.4s3.5,8.4,8.4,8.4,4.8-.8,6.3-1.5v2c-1,.6-3.2,1.5-6.3,1.5-6.1,0-10.6-4.5-10.6-10.4s4.5-10.4,10.6-10.4,5.1.9,6.1,1.5v2h0Z"/>
      <path d="M177.9,4.9c5.8,0,10.3,4.6,10.3,10.4s-4.4,10.4-10.3,10.4-10.3-4.6-10.3-10.4,4.4-10.4,10.3-10.4ZM177.9,23.8c4.7,0,8.1-3.6,8.1-8.4s-3.4-8.4-8.1-8.4-8.1,3.6-8.1,8.4,3.4,8.4,8.1,8.4Z"/>
    </g>
  </g>
  <g>
    <path d="M61.4,19.8c.9-1.6,2.7-2.8,4.7-2.8s1.6.2,2.3.5c2,1,3.3,3.2,3,5.6-.4,2.3-2.3,4.2-4.6,4.4-1.3.1-2.6-.2-3.6-.9l-.3.5-5.8,10.1-1.2,2.2h0s7.3,12.5,7.3,12.5h14.2l-7.3-12.5h0c7.9-1.8,13.7-8.8,13.7-17.2s-3.7-12.4-9.1-15.4h0c-1.4-.8-3-1.4-4.6-1.7h0c-1.2-.3-2.5-.4-3.8-.4-5.2,0-9.8,2.2-13,5.8-.8.8-1.4,1.7-2,2.7-.1.2-.3.5-.4.7l-4.9,8.4-3.3,5.7L29.9,6.4c-.3-.6-1.2-.6-1.5,0l-6,10.4,20.5,35.2,6.7-11.7h0s.5-.8.5-.8l2.8-4.9.2-.4,6.8-11.8,1.5-2.5"/>
    <polygon points="32.4 45.5 29 39.5 19 22.5 19 22.5 12.3 34.2 12.3 34.2 15.3 39.5 22.6 52 22.6 52 28.6 52 36.2 52 36.2 52 32.4 45.5"/>
    <polygon points="9 39.9 9 39.9 2 52 9 52 16 52 16 52 9 39.9"/>
  </g>
  <g>
    <g>
      <path class="st0" d="M98.5,30.4c4.7,0,7.8,2.3,7.8,6.7s-1.7,4.9-3.8,5.8l4.2,7.8h-4.6l-3.6-7.1h-2.9v7.1h-4.2v-20.2h7.1,0ZM95.7,34v6h3.1c1.9,0,3.2-1,3.2-3s-1.4-3-3.3-3h-3Z"/>
      <path class="st0" d="M118.7,30c6.1,0,10.6,4.7,10.6,10.5s-4.5,10.5-10.6,10.5-10.6-4.6-10.6-10.5,4.5-10.5,10.6-10.5ZM118.7,47c3.7,0,6.2-2.9,6.2-6.5s-2.6-6.5-6.2-6.5-6.2,3-6.2,6.5,2.6,6.5,6.2,6.5Z"/>
      <path class="st0" d="M132.1,50.6v-20.2h6.4c6.9,0,11.2,4.2,11.2,10.1s-4.3,10.1-11.2,10.1h-6.5,0ZM136.5,34v13h2.1c4.3,0,6.9-2.8,6.9-6.5s-2.6-6.5-6.9-6.5h-2.1,0Z"/>
      <path class="st0" d="M159.8,30.4c4.7,0,7.8,2.3,7.8,6.7s-1.7,4.9-3.8,5.8l4.2,7.8h-4.6l-3.6-7.1h-2.9v7.1h-4.2v-20.2h7.1,0ZM156.9,34v6h3.1c1.9,0,3.2-1,3.2-3s-1.4-3-3.3-3h-3Z"/>
      <path class="st0" d="M170.7,50.6v-20.2h4.3v20.2h-4.3Z"/>
      <path class="st0" d="M188.7,51c-6.4,0-10.9-4.6-10.9-10.5s4.5-10.5,10.8-10.5,5.2.8,6.3,1.4v4c-1.3-.6-3.3-1.4-6.1-1.4-4.2,0-6.7,3-6.7,6.5s2.5,6.6,6.5,6.6,2.1-.2,2.8-.4v-5.4h4.1v8.2c-1.8.9-4.4,1.5-6.9,1.5h0Z"/>
      <path class="st0" d="M215.4,43.2c0,4.7-3.1,7.7-8.4,7.7s-8.4-3-8.4-7.7v-12.9h4.3v12.4c0,2.6,1.5,4.2,4.1,4.2s4.1-1.6,4.1-4.2v-12.4h4.3v12.8h0Z"/>
      <path class="st0" d="M219.2,50.6v-20.2h13v3.6h-8.7v4.6h7.4v3.5h-7.4v4.9h9.1v3.6s-13.4,0-13.4,0Z"/>
      <path class="st0" d="M234.5,49.8v-4.2c1.4.7,3.2,1.3,5.1,1.5.6,0,1.3,0,1.8-.1,1.5-.2,2.4-.8,2.4-1.8s-1.2-2-4-3.1c-3.5-1.3-5.6-2.8-5.6-6.3s3-5.9,7.3-5.9,4,.5,5.3,1v4c-1.2-.7-3.1-1.2-4.9-1.2s-3.4.8-3.4,2.1,1.1,2,3.8,3c3.5,1.4,5.7,2.9,5.7,6.3s-2.8,5.8-7.5,5.8-4.5-.5-6-1.2h0Z"/>
    </g>
    <g>
      <path class="st0" d="M94,10.4l-.6-.8c0,.6,0,1.3,0,1.9v12.9h-2.1V3.9h0l9,11.8,9-11.8h0v20.5h-2.1v-12.9c0-.6,0-1.2,0-1.9-.3.4-.7,1-1.1,1.6l-5.9,7.6-6.4-8.4h0Z"/>
      <path class="st0" d="M121.3,3.9h0l9.2,20.5h-2.2l-2.2-4.9h-9.6l-2.1,4.9h-2.3l9.2-20.5h0ZM125.3,17.8c-1.5-3.3-2.7-6.3-4-9.4-1.3,3.2-2.6,6.1-4,9.4h8Z"/>
      <path class="st0" d="M139.6,4.3c4.3,0,6.9,2.2,6.9,6s-1.9,5.1-4.4,5.7l4.7,8.5h-2.4l-4.5-8.2h-4.6v8.2h-2.1V4.3h6.4,0ZM135.3,6v8.4h4.3c2.9,0,4.7-1.6,4.7-4.2s-1.8-4.2-4.8-4.2h-4.2Z"/>
      <path class="st0" d="M165.6,7.5c-1.5-.8-3.6-1.6-6.1-1.6-4.9,0-8.4,3.6-8.4,8.4s3.5,8.4,8.4,8.4,4.8-.8,6.3-1.5v2c-1,.6-3.2,1.5-6.3,1.5-6.1,0-10.6-4.5-10.6-10.4s4.5-10.4,10.6-10.4,5.1.9,6.1,1.5v2h0Z"/>
      <path class="st0" d="M177.9,3.9c5.8,0,10.3,4.6,10.3,10.4s-4.4,10.4-10.3,10.4-10.3-4.6-10.3-10.4,4.4-10.4,10.3-10.4ZM177.9,22.8c4.7,0,8.1-3.6,8.1-8.4s-3.4-8.4-8.1-8.4-8.1,3.6-8.1,8.4,3.4,8.4,8.1,8.4Z"/>
    </g>
  </g>
  <g>
    <path class="st0" d="M61.4,18.8c.9-1.6,2.7-2.8,4.7-2.8s1.6.2,2.3.5c2,1,3.3,3.2,3,5.6-.4,2.3-2.3,4.2-4.6,4.4-1.3.1-2.6-.2-3.6-.9l-.3.5-5.8,10.1-1.2,2.2h0s7.3,12.5,7.3,12.5h14.2l-7.3-12.5h0c7.9-1.8,13.7-8.8,13.7-17.2s-3.7-12.4-9.1-15.4h0c-1.4-.8-3-1.4-4.6-1.7h0c-1.2-.3-2.5-.4-3.8-.4-5.2,0-9.8,2.2-13,5.8-.8.8-1.4,1.7-2,2.7-.1.2-.3.5-.4.7l-4.9,8.4-3.3,5.7L29.9,5.4c-.3-.6-1.2-.6-1.5,0l-6,10.4,20.5,35.2,6.7-11.7h0s.5-.8.5-.8l2.8-4.9.2-.4,6.8-11.8,1.5-2.5"/>
    <polygon class="st0" points="32.4 44.5 29 38.5 19 21.5 19 21.5 12.3 33.2 12.3 33.2 15.3 38.5 22.6 51 22.6 51 28.6 51 36.2 51 36.2 51 32.4 44.5"/>
    <polygon class="st0" points="9 38.9 9 38.9 2 51 9 51 16 51 16 51 9 38.9"/>
  </g>
</svg>