<?xml version="1.0" encoding="UTF-8"?>
<svg id="Camada_1" data-name="Camada 1" xmlns="http://www.w3.org/2000/svg" viewBox="0 0 1920 1080">
  <defs>
    <style>
      .cls-1 {
        fill: none;
        stroke: rgba(77, 77, 77, .38);
        stroke-miterlimit: 10;
        stroke-width: 1.3px;
      }
    </style>
  </defs>
  <path class="cls-1" d="M1297.45,374.82c16.85-29.95,50.54-52.42,87.98-52.42s29.95,3.74,43.06,9.36c37.44,18.72,61.77,59.9,56.16,104.83-7.49,43.06-43.06,78.62-86.11,82.37-24.34,1.87-48.67-3.74-67.39-16.85l-5.62,9.36-108.57,189.07-22.46,41.18h0l136.65,234h265.82l-136.65-234h0c147.89-33.7,256.46-164.73,256.46-321.98s-69.26-232.12-170.35-288.28h0c-26.21-14.98-56.16-26.21-86.11-31.82h0c-22.46-5.62-46.8-7.49-71.13-7.49-97.34,0-183.45,41.18-243.36,108.57-14.98,14.98-26.21,31.82-37.44,50.54-1.87,3.74-5.62,9.36-7.49,13.1l-91.73,157.25-61.77,106.7-239.61-404.34c-5.62-11.23-22.46-11.23-28.08,0l-112.32,194.68,383.75,658.93,125.42-219.02h0l9.36-14.98,52.42-91.73,3.74-7.49,127.29-220.89,28.08-46.8"/>
  <polygon class="cls-1" points="754.58 855.92 690.93 743.6 503.74 425.36 503.74 425.36 378.31 644.38 378.31 644.38 434.47 743.6 571.13 977.59 571.13 977.59 683.44 977.59 825.71 977.59 825.71 977.59 754.58 855.92"/>
  <polygon class="cls-1" points="316.54 751.09 316.54 751.09 185.5 977.59 316.54 977.59 447.58 977.59 447.58 977.59 316.54 751.09"/>
</svg>