<?xml version="1.0" encoding="utf-8"?>
<!-- Generator: Adobe Illustrator 19.2.1, SVG Export Plug-In . SVG Version: 6.00 Build 0)  -->
<svg version="1.1" id="layer" xmlns="http://www.w3.org/2000/svg" xmlns:xlink="http://www.w3.org/1999/xlink" x="0px" y="0px"
	 viewBox="0 0 652 652" style="enable-background:new 0 0 652 652;" xml:space="preserve">
<path d="M592.8,291.6v-1.7c-2-32.3-30.8-46.8-58.4-46.8c-17.8-0.7-35.1,6.3-47.5,19.2c-3.2,3.5-5.9,7.4-8.2,11.6l8.5-26.7h-43.8
	L427.3,311L407,247.4h-44l8.3,24c-10.6-17.9-28.8-28.1-52.8-28.1c-17.8-0.7-35.1,6.3-47.5,19.2c-8.1,9-13.3,20.3-15,32.3v-12.3
	c0-17.9-10-39.3-57.5-39.3S141,264.5,141,282.4v1.6h43.6v-1.6c0-7.1,7-9.6,13.7-9.6c12.8,0,13.8,4.8,13.8,9.6c0,6.5-9.2,7.8-24,9.6
	c-20.1,2.1-46.9,4.8-51.6,31v-35.3c0-27.5-16-44.6-41.6-44.6c-11.4,0.1-22.2,5.4-29.3,14.4v-10.1H20.6v115.1h44.6v-62.6
	c0-9.6,5.8-19.8,15.5-19.8c12.5,0,14.4,13.1,14.4,20.9v61.5h41.1v-23c3.9,18.8,21.5,27.3,39,27.3c14.1,0.7,28-4.3,38.4-14
	c0.2,2.9,0.7,5.8,1.6,8.5l0.4,1.2h45.3v-5.1l-0.7-0.5c-3-2.1-4.2-5.8-4.2-13.3v-28.2c4.1,26.4,24,51.5,62.3,51.5
	c23.5,0,57.5-12,60.4-38.8v-1.8h-43.2l-0.4,1c-2.4,6-8.6,9.6-15,8.8h-1.6c-11.1,0-16.4-10.1-16.9-20.6h80.3v-1.6
	c0-5.4-0.4-10.8-1.2-16.2l20,57.5v6.3c0,3.9-1.5,5.6-10.6,5.6h-10.6v34.4h23c28.2,0,37.7-7.2,46.7-35.2l22.3-70.1
	c-0.4,2.9-0.6,5.8-0.6,8.7c0,29.8,19.8,61.9,63.3,61.9c27.6,0,56.4-14.4,58.4-46.9V316h-44.4v1.6c0.5,7.5-5.2,13.9-12.7,14.4
	c-0.4,0-0.9,0-1.3,0c-13.1,0-19.2-14.4-19.2-28.2c-0.2-6.9,1.4-13.6,4.8-19.6c2.9-5.3,8.4-8.5,14.4-8.5c7.6-0.1,13.9,5.9,14,13.5
	c0,0.3,0,0.6,0,0.9v1.6L592.8,291.6z M211.9,313.7c-0.3,16.1-3.9,24.2-19.9,24.2c-5.3,0.6-10-3.2-10.6-8.5c-0.1-0.7-0.1-1.5,0-2.2
	c0-6.3,10.4-8.6,19.6-10.6C204.8,315.9,208.4,314.9,211.9,313.7z M301.5,291.2c0.7-12.9,9.6-18.8,17.6-18.8c8.1,0,17,5.9,17.6,18.8
	H301.5z"/>
<path d="M607.9,240.1c-7.1,0.2-12.7,6.1-12.5,13.2c0,0,0,0,0,0c-0.4,7,4.9,12.9,11.8,13.4c7,0.4,12.9-4.9,13.4-11.8c0-0.5,0-1,0-1.6
	C620.7,246.2,615,240.3,607.9,240.1C607.9,240.1,607.9,240.1,607.9,240.1z M607.9,265.3c-6.4-0.2-11.5-5.5-11.4-11.9
	c0,0,0-0.1,0-0.1c-0.4-6.3,4.4-11.8,10.7-12.2c6.3-0.4,11.8,4.4,12.2,10.7c0,0.5,0,1,0,1.5c0.2,6.4-4.8,11.8-11.3,12
	C608,265.3,608,265.3,607.9,265.3z"/>
<path d="M614.8,249.7c0-2.8-2.4-4.1-5.1-4.1h-6.9v15.2h2.3V254h2.8l3.9,6.9h2.6l-4-6.9C612.8,254,614.7,252.1,614.8,249.7
	C614.8,249.8,614.8,249.7,614.8,249.7z M609.5,252.2H605v-4.8h4.5c1.8,0,3.1,0.8,3.1,2.4c0,1.6-1.3,2.5-3.1,2.5V252.2z"/>
</svg>
