<?xml version="1.0" encoding="UTF-8"?>
<svg id="Camada_1" data-name="Camada 1" xmlns="http://www.w3.org/2000/svg" viewBox="0 0 215.87 77.67">
  <defs>
    <style>
      .cls-1 {
        fill: #8e1d3b;
      }
    </style>
  </defs>
  <path class="cls-1" d="M215.25,58.69c1.45.27.06-1.1-1.18-2.27l-2.01.82c1.07.47,2.13.95,3.19,1.45Z"/>
  <path class="cls-1" d="M208.23,55.01c-1.45.03-2.89.13-4.28.32.97-.02,1.95.02,2.94.09,2.64,1.9-1.01,1.46-2.16,1.45,2.4.57,3.01.35,3.15-.22.14-.55-.21-1.36.35-1.65Z"/>
  <path class="cls-1" d="M200.36,54.21c-1.23-.21-1.71.03-1.73.32-.03.3.38.67.85.9.18-.46,1.85-.73.88-1.22Z"/>
  <path class="cls-1" d="M74.22,29.44c.13.74.37,1.55.05,1.58.64.56.95.59-.05-1.58Z"/>
  <path class="cls-1" d="M74.26,31.02c-.12-.11-.25-.23-.4-.37.1.13.17.25.29.39.06.02.07-.01.11-.02Z"/>
  <path class="cls-1" d="M114.2,44.66c1.54-2.11,2.95-2.44,4.51-3.65.53.24,1.05.44,1.52.73,1.47-1.05.31-1.43,1.31-2.44.22.04.46.05.71.03.23.03.47.04.71.02.49-.09.97-.06,1.43-.14.23-.07.46-.03.68-.03.22,0,.43-.01.62-.03.39-.03.71.1.87.13.29.73-.77.66-1,1.02.4-.04.74-.08,1.05-.21.15-.06.3-.13.45-.2.16-.05.32-.07.49-.11.66-.12,1.48-.21,2.72.44l-.14.34c1.66.39,3.59,1.46,5.57,2.95,1.98,1.49,4,3.42,6.07,5.44,2.07,2.03,4.19,4.22,6.53,6.35,2.33,2.12,4.85,4.21,7.8,5.91-.71-.58-.34-.69-.46-1.11,1.42.97,3.02,1.93,4.78,2.68,1.68.77,3.64,1.38,5.61,1.67,3.96.6,7.82-.04,11.05-1.12,1.63-.54,3.15-1.2,4.55-1.89,1.35-.67,2.63-1.37,3.84-2.06,2.42-1.38,4.58-2.73,6.63-3.98-2.99.77-7.13,1.88-11.3,3.24-4.21,1.4-8.42,2.43-12.09,3.33-1.3-.55-2.94-.72-4.39-1.13-1.45-.38-2.59-.98-2.76-1.82-1.09-.56-1.97-1.27-2.87-1.8-.83-.63-1.66-1.16-2.41-1.71-1.52-1.08-2.89-2.06-4.25-3.03-2.72-1.95-5.35-3.98-8.4-7.22-.7-1.09.21-1.1.41-1.8,1.78,1.56,3.54,3.19,5.33,4.78l-2.57-3.56c1.71.98,4.53,4.63,5.76,4.16-2.67-1.72-5.43-4.71-8.26-7.49-2.81-2.78-5.85-5.32-8.55-6.13,1.87,1.66,4.45,3.48,6.5,5.7.63,1.23,1.81,2.93,1.24,3.29-3.62-2.44-6.49-4.99-9.45-6.87l-1.11-.69c-.36-.24-.76-.39-1.14-.59-.75-.41-1.59-.7-2.41-1.03l-.62-.24-.62-.14c-.41-.09-.83-.19-1.25-.28-.42-.07-.85-.05-1.28-.09-.43-.03-.86-.06-1.3.03-1.73.03-4.09.68-4.6.17,1.14-.57.08-.8,1.03-1.41-1.3.68-1.17,1.24-1.23,1.75-.06.5-.25.99-2.06,1.62-.17-.76-.32-1.48-.46-2.23-.15.67-.49,1.19-.98,1.54-.49.35-1.13.59-1.81.9-1.37.54-2.98,1.23-3.84,2.71-1.44-.04-.07-1.73,1.93-3.13-2.52,1.23-1.96,2.45-3.74,3.74l.56-2.78c-.84,2.86-3.62,2.32-5.09,2.71.16.46,2.05.79-.36,2.6-1.16.63-.95-.16-1.35-.18.16.47-.13,1.82-1.67,3.12-.68-.27.44-1.57.13-2.16-1.15.97-2.02,1.85-3.21,2.1-1.78,2.05.7.62-.18,2.17-.87.56-1.48.69-1.83.64-.36-.06-.49-.33-.58-.67-.17-.68-.22-1.58-1.16-1.76,1.76-2.32,4.63-5.11,5.6-6.52-1.41,1.37-2.83,2.75-4.21,4.04-.09-.4-1.04-.07-1.72.05-.35.08-.58.03-.66-.11-.03-.08-.04-.17.04-.33.08-.17.23-.4.46-.69-.28.16-.62.4-.86.51-.25.12-.49.25-.73.39-.23.15-.5.25-.74.38-.25.13-.5.28-.73.36-.96.48-1.84.78-2.5.92-1.42.29-2.87.15-4.62-1.1.23.6.7,1.11.33,1.44-.97-.46-1.25-.99-1.27-1.34-.02-.37.21-.63.26-1-1.47-.93-2.37-.07-3.85-.5-.36-1.01-.61-1.8-.88-2.45-.27-.69-.49-1.25-.71-1.8-.42-1.1-.73-2.16-.91-4.18l-1.03.8c-.32-2.84-2.21-2.3-2.88-5.23.17-.27.98.57,1.65,1.22-1.57-2.09-.12-2.6-1.76-4.63l2.21,1.12c-.97-1.77-2.81-4.22-1.23-3.87-1.52-1.24-2.91-3.32-4.5-5.53-1.6-2.2-3.33-4.56-5.43-6.16l1.04-.5c-1.37-.55-3.17-2.36-5.52-3.83-.62-.35-1.24-.69-1.85-.99-.66-.26-1.34-.46-1.95-.62-.64-.18-1.17-.2-1.63-.17-.47.03-.88.1-1.21.25l-.34-.52c-.98.1-1.96.34-2.89.52-.93.27-1.84.61-2.69.93-2.39.35-2-1.43-2.08-.94-2.7.85-4.9,1.96-6.66,3.08-.93.52-1.71,1.08-2.5,1.57-.81.48-1.49.98-2.21,1.39.15.82-.61,2.18-1.69,3.7-.51.79-1.12,1.6-1.73,2.43-.6.83-1.2,1.67-1.77,2.46-6.09,7.09-10.56,15.5-14.46,23.82-3.88,8.35-7.15,16.72-10.46,24.42-1.16,2.2-1.45,6-2.54,9.08,2.35-3.11,1.91-3.81,3.78-7.1,1.73-2.29,3.58-2.47,5.58-4.2l-1.7.51c.92-3.87,1.84-2.03,2.13-5.3l1.74,1.05c-.43-1.43,1.56-3.41,2.53-4.15l-.79-1.52c1.78-1.79,2.79-3.03,4.25-3.09l-1.25-.38c1.13-.44,4.11-8.21,4.74-4.68.06-.74-.23-1.61.61-2.87l1.24.4c.73-2.06,1.66-4.28,2.6-4.46-.3,1.16,0,1.77.32,2.38,2.27-3.88,1.62-4.78.84-5.63-.77-.84-1.66-1.62.37-5.08l.66.51.33-2.17c.67-.42,1.35-.81,2.03-1.19-.41-1.97,1.24-4.24,3.24-6.41,2.02-2.18,4.39-4.07,5.55-6.02.56-.68,1.59-.95,2.69-1.3.57-.12,1.15-.26,1.73-.46.59-.1,1.17-.38,1.77-.62l-.63-1.14c1.34.17,3.87,0,5.91,1.19.5.3,1.1.57,1.22.92.11.18.2.24.3.47.1.2.18.39.26.57.31.81.43,1.67.21,2.53,1.89.4.06-.3.77-1.04.85.29,1.47.85,1.88,1.33.41.48.61,1.05.71,1.52.11.47.11.98.13,1.5.02.53.07,1.04.24,1.65,1.04,1.07.85.54.6-.18-.25-.71-.58-1.51.25-1.16.82,2.14,1.63,2.77,2.55,3.54.46.37.94.79,1.43,1.49.5.68,1.02,1.65,1.56,3.13-.35.88-1.19-1.18-1.91-1.51,1.6,1.59,3.16,4.33,4.8,7.5.82,1.58,1.67,3.27,2.57,4.94.23.42.46.83.69,1.25l.35.62.41.67c.56.91,1.1,1.79,1.78,2.65,1.24,2.11,2.89,4.55,5.85,6.86.39.28.79.55,1.19.84.39.28.82.55,1.31.79.47.25.95.49,1.44.72.49.22,1.01.39,1.53.57,1.03.39,2.13.57,3.23.77.55.07,1.12.1,1.68.13.57.04,1.13.04,1.7,0,2.36-.08,4.33-.64,6.23-1.26.86-.34,1.8-.69,2.59-1.08.8-.39,1.6-.78,2.36-1.24l1.14-.67.89-.57c.57-.36,1.13-.73,1.68-1.08,1.05-.67,2.08-1.32,3.07-1.95l-.16-.47c3.69-1.45,6-4.85,9.31-6.46-.61.15-1.23.28-1.88.49Z"/>
  <path class="cls-1" d="M154.96,49.24l.29-1.26c-1.11-.75-2.21-1.58-3.32-2.39.49,1.79,1.62,1.91,3.03,3.64Z"/>
  <path class="cls-1" d="M151.98,50.97c.63.39,1.25.8,1.89,1.16-.86-.78-1.68-1.61-2.52-2.41l.63,1.25Z"/>
  <path class="cls-1" d="M108.42,35.86c.18-.06.36-.12.54-.18,1.98-1.79,4.12-3.48,6.53-4.93-2.62,1.47-4.91,3.25-7.07,5.1Z"/>
  <path class="cls-1" d="M75.34,29.19c.92.53,1.3,1.79,2.07,2.43l-2.16-2.98.09.56Z"/>
  <path class="cls-1" d="M44.26,0c-1.81,2.34-4.19,1.01-1.05,2.03,1.59-.51,1.67-.79,1.42-1.07-.24-.28-.81-.53-.37-.96Z"/>
  <path class="cls-1" d="M34.47,7.19c1.38-.84,2.03-1.55,2.7-2.26-2.36.35-1.95,1.29-2.7,2.26Z"/>
</svg>