<?xml version="1.0" encoding="UTF-8"?>
<svg id="Camada_2" data-name="Camada 2" xmlns="http://www.w3.org/2000/svg" viewBox="0 0 1369.96 1369.95">
  <defs>
    <style>
      .cls-1 {
        font-family: Brother-1816-Thin, 'Brother 1816';
        font-weight: 200;
      }

      .cls-1, .cls-2, .cls-3, .cls-4 {
        fill: #fff;
      }

      .cls-1, .cls-3, .cls-4 {
        font-size: 126.74px;
      }

      .cls-3 {
        font-family: Brother-1816-Book, 'Brother 1816';
      }

      .cls-4 {
        font-family: Brother-1816-Black, 'Brother 1816';
        font-weight: 800;
      }
    </style>
  </defs>
  <g id="Camada_1-2" data-name="Camada 1">
    <g>
      <g>
        <path class="cls-2" d="M878,575.77c9.39-16.69,28.17-29.21,49.04-29.21s16.69,2.09,24,5.22c20.87,10.43,34.43,33.39,31.3,58.43-4.17,24-24,43.82-48,45.91-13.56,1.04-27.13-2.09-37.56-9.39l-3.13,5.22-75.63,126.06h0l79.35,133.75h148.19l-76.78-131.47h0c82.43-18.78,142.94-91.82,142.94-179.46s-38.61-129.38-94.95-160.68h0c-14.61-8.35-31.3-14.61-48-17.74h0c-12.52-3.13-26.08-4.17-39.65-4.17-54.26,0-102.25,22.95-135.64,60.52-8.35,8.35-14.61,17.74-20.87,28.17-1.04,2.09-3.13,5.22-4.17,7.3l-51.13,87.64-34.43,59.47-133.55-225.37c-3.13-6.26-12.52-6.26-15.65,0l-62.6,108.51,213.89,367.27,193.03-335.97Z"/>
        <polygon class="cls-2" points="575.42 843.92 539.95 781.32 435.61 603.94 435.61 603.94 365.7 726.02 365.7 726.02 397.01 781.32 473.17 911.74 473.17 911.74 535.78 911.74 615.07 911.74 615.07 911.74 575.42 843.92"/>
        <polygon class="cls-2" points="331.27 785.49 331.27 785.49 258.24 911.74 331.27 911.74 404.31 911.74 404.31 911.74 331.27 785.49"/>
      </g>
      <path class="cls-2" d="M737.77,911.74l42.23-70.39c2.17-3.62,7.42-3.61,9.57.03l41.69,70.36h-93.5Z"/>
    </g>
    <text class="cls-3" transform="translate(684.17 108.07) rotate(3.11)"><tspan x="0" y="0">L</tspan></text>
    <text class="cls-3" transform="translate(752.25 112.59) rotate(8.38)"><tspan x="0" y="0">I</tspan></text>
    <text class="cls-3" transform="translate(789.99 116.66) rotate(14.99)"><tspan x="0" y="0">D</tspan></text>
    <text class="cls-3" transform="translate(880.4 141.67) rotate(23.54)"><tspan x="0" y="0">E</tspan></text>
    <text class="cls-3" transform="translate(951.2 172.51) rotate(31.45)"><tspan x="0" y="0">R</tspan></text>
    <text class="cls-3" transform="translate(1020.75 215.03) rotate(39.75)"><tspan x="0" y="0">A</tspan></text>
    <text class="cls-3" transform="translate(1087.05 269.76) rotate(48.82)"><tspan x="0" y="0">N</tspan></text>
    <text class="cls-3" transform="translate(1151.05 343.71) rotate(58.02)"><tspan x="0" y="0">Ç</tspan></text>
    <text class="cls-3" transform="translate(1197.65 418.78) rotate(66.71)"><tspan x="0" y="0">A</tspan></text>
    <text class="cls-3" transform="translate(1229.01 494.51) rotate(72.4)"><tspan x="0" y="0"> </tspan></text>
    <text class="cls-3" transform="translate(1239.93 524.24) rotate(78.17)"><tspan x="0" y="0">C</tspan></text>
    <text class="cls-3" transform="translate(1258.49 609.88) rotate(87.76)"><tspan x="0" y="0">O</tspan></text>
    <text class="cls-3" transform="translate(1262.65 715.6) rotate(98.27)"><tspan x="0" y="0">M</tspan></text>
    <text class="cls-3" transform="translate(1245.66 818.57) rotate(105.04)"><tspan x="0" y="0"> </tspan></text>
    <text class="cls-3" transform="translate(1238.39 849.55) rotate(110.26)"><tspan x="0" y="0">P</tspan></text>
    <text class="cls-3" transform="translate(1211.89 921.39) rotate(118.16)"><tspan x="0" y="0">R</tspan></text>
    <text class="cls-3" transform="translate(1174.28 993.46) rotate(127.45)"><tspan x="0" y="0">O</tspan></text>
    <text class="cls-3" transform="translate(1108.68 1076.93) rotate(136.46)"><tspan x="0" y="0">P</tspan></text>
    <text class="cls-3" transform="translate(1054.09 1130.25) rotate(145.47)"><tspan x="0" y="0">Ó</tspan></text>
    <text class="cls-3" transform="translate(965.67 1189.17) rotate(154.14)"><tspan x="0" y="0">S</tspan></text>
    <text class="cls-3" transform="translate(903.04 1218.56) rotate(159.51)"><tspan x="0" y="0">I</tspan></text>
    <text class="cls-3" transform="translate(867.42 1232.59) rotate(165.05)"><tspan x="0" y="0">T</tspan></text>
    <text class="cls-3" transform="translate(798.85 1252.13) rotate(173.9)"><tspan x="0" y="0">O</tspan></text>
    <text class="cls-1" transform="translate(697.55 1261.24) rotate(-179.07)"><tspan x="0" y="0"> </tspan></text>
    <text class="cls-4" transform="translate(664.49 1261.03) rotate(-175.86)"><tspan x="0" y="0">•</tspan></text>
    <text class="cls-1" transform="translate(622.44 1257.88) rotate(-172.14)"><tspan x="0" y="0"> </tspan></text>
    <text class="cls-3" transform="translate(589.78 1253.42) rotate(-168.8)"><tspan x="0" y="0">I</tspan></text>
    <text class="cls-3" transform="translate(552.28 1247.69) rotate(-161.98)"><tspan x="0" y="0">N</tspan></text>
    <text class="cls-3" transform="translate(459.48 1216.91) rotate(-152.72)"><tspan x="0" y="0">C</tspan></text>
    <text class="cls-3" transform="translate(381.58 1175.77) rotate(-144.99)"><tspan x="0" y="0">L</tspan></text>
    <text class="cls-3" transform="translate(325.99 1137.66) rotate(-137.12)"><tspan x="0" y="0">U</tspan></text>
    <text class="cls-3" transform="translate(259.42 1074.55) rotate(-129.22)"><tspan x="0" y="0">S</tspan></text>
    <text class="cls-3" transform="translate(215.78 1021.8) rotate(-121.55)"><tspan x="0" y="0">Ã</tspan></text>
    <text class="cls-3" transform="translate(171.37 951.19) rotate(-112.24)"><tspan x="0" y="0">O</tspan></text>
    <text class="cls-3" transform="translate(134.59 856.18) rotate(-105.57)"><tspan x="0" y="0"> </tspan></text>
    <text class="cls-3" transform="translate(124.73 826.09) rotate(-99.8)"><tspan x="0" y="0">C</tspan></text>
    <text class="cls-3" transform="translate(109.83 740.07) rotate(-90.93)"><tspan x="0" y="0">O</tspan></text>
    <text class="cls-3" transform="translate(108.71 634.03) rotate(-79.71)"><tspan x="0" y="0">M</tspan></text>
    <text class="cls-3" transform="translate(129.33 531.74) rotate(-72.93)"><tspan x="0" y="0"> </tspan></text>
    <text class="cls-3" transform="translate(137.26 501.07) rotate(-67.15)"><tspan x="0" y="0">C</tspan></text>
    <text class="cls-3" transform="translate(170.7 420.1) rotate(-57.52)"><tspan x="0" y="0">O</tspan></text>
    <text class="cls-3" transform="translate(228.65 331.22) rotate(-48.25)"><tspan x="0" y="0">R</tspan></text>
    <text class="cls-3" transform="translate(282.92 270.39) rotate(-39.97)"><tspan x="0" y="0">A</tspan></text>
    <text class="cls-3" transform="translate(345.74 217.26) rotate(-31.55)"><tspan x="0" y="0">G</tspan></text>
    <text class="cls-3" transform="translate(424.34 169.81) rotate(-23.14)"><tspan x="0" y="0">E</tspan></text>
    <text class="cls-3" transform="translate(494.56 138.55) rotate(-13.86)"><tspan x="0" y="0">M</tspan></text>
    <text class="cls-1" transform="translate(596.36 115.5) rotate(-7.07)"><tspan x="0" y="0"> </tspan></text>
    <text class="cls-4" transform="translate(628.92 111.26) rotate(-3.36)"><tspan x="0" y="0">•</tspan></text>
  </g>
</svg>