<?xml version="1.0" encoding="UTF-8"?>
<svg id="Camada_1" data-name="Camada 1" xmlns="http://www.w3.org/2000/svg" viewBox="0 0 162.8 162.8">
  <defs>
    <style>
      .cls-1 {
        fill: #e6e6e6;
      }

      .cls-1, .cls-2 {
        stroke: #fff;
        stroke-miterlimit: 10;
      }

      .cls-2 {
        fill: #fff;
      }

      .cls-3 {
        isolation: isolate;
      }

      .cls-4 {
        mix-blend-mode: multiply;
      }
    </style>
  </defs>
  <g class="cls-3">
    <g id="Camada_2" data-name="Camada 2">
      <g id="Camada_1-2" data-name="Camada 1-2">
        <g>
          <g>
            <circle class="cls-2" cx="80.8" cy="81.4" r="21"/>
            <g class="cls-4">
              <path class="cls-2" d="M96.1,97.1c.3-.4-.5-.2,0-.4,0,.2.2.4,0,.4Z"/>
              <path class="cls-1" d="M97.2,95.5c0-1,.5-1.8,1.1-2.5.3-.4.6-.8.8-1.2.2-.4.4-.8.3-1.3,0-.2.7.4.7,0,0-1,0-2,.6-3,.4-1,1.1-2.1,1.6-3.1l.2.2c.2-.4-.4-.9-.3-1.3,0,0,.2.2.4,0-.4,0-.2-.8-.5-1,.2-.2.5,0,.7-.3l-.5-.2c-.6-.3-.6-.7-.5-1.2,0-.4.2-.9,0-1.3h.3c-.9-1.3-1.1-3.1-1.8-4.5.2,0,.5,0,.7-.2-.5,0-.8-.3-1-.7.4-.4-.7-.5-.7-1h0c-.7,0,0-.6-.7-.6l.3-.4c-.7.2,0-.6-.4-.7h0c-.3,0,0-.4-.3-.5h0c-.5-.5-.3-1-.8-.7.3-.4.5.3.9-.3-1.7-1.3-2.9-2.9-4.5-4.2v-.7c-.2,0-.7-.4-1-.2v-.4c-.2-.4-.7.3-.9,0,.2,0,.4-.2.4-.4-.6.2-.9,0-1.3-.2,0,0,.2,0,.3-.2-.6.2-.7-.5-1.2-.4l.3-.2c-.4-.6-.5.6-.9,0,.2,0,.2-.2.3-.3-.7.3-1.4-.2-1.9,0h0c-.6,0-1-.6-1.7-.5-.2-.2.3-.8-.3-.8-.2.7-1,0-.9.9-.4-.3-1.2-.6-1.5-.4.3-.2,0-.9.3-.9l-.3-.5c0-.3.3,0,.3-.2-.2,0-.9.2-1.1,0-.4.4-.8,1.2-1.4,1.2.3-.2-.2-.8,0-.9-.3.4-.6.8-.9,1.3-.2,0,0-.5-.3-.3,0,.2,0,.3-.2.5,0,0-.8.2-1-.5,0-.3.3-.2,0-.4-.4,0-.4.3-.8.3h0c-.3-.2-.7.3-.4.6.2,0,0-.4.2-.2,0,.4-.5.6-.9.6v-.5c-.4.6-.8.9-1.3,1.2,0,.3,0-.6.2-.5-.4,0-.7,0-1,.3s-.6.5-.9.2c0,0,.2.4.2.3-.3,0-.5-.4-.6,0,0-.2-.2.2-.4.3,0,.2,0,0,0-.2-.2.4-1.1,1.2-1.9,1.2,0,.2,0,.8-.2.9l-.2-.4c-.3,0-.4.3-.7,0,0,.6.9-1.1.7-.5-.3-.2-.2.9-.4.4-.3.2-.3.7-.8.6,0,0,0-.6-.3-.5-.3.3,0,.2-.2.6v.3c0,.3-.5.2,0,.5-.2-.2-.4.6-.8,0l-.3-.5v.9h-.2c.5.6-.4.3-.2.9-.2,0-.4.2-.7.3-.2.2-.4.3-.6.2,0,.4,0,.8-.4,1v-.3c-.3,0-.2.2-.3.4h-1c0,.4.4.6.6.8-.8-.2,0,1-.9.9,0-.2,0-.6-.4-.5-.8-.2.2.8-.4,1.1l.6.2c-.5,0,0,.8-.6.4,0,.2-.5.4.2.6-.4.2-.5.7-.7,1.1s-.3.7-1,.8c0,0,0,.4.2.4s-.2-.3,0-.3l.2.2c-.2.2-.3.3-.8,0-.6.4.8.9.5,1.4h-.4l.4.5c-.2.4-.7,0-1.1,0,0,.2,0,.5.2.7l-.6.2c.4,0,.2.2.3.4h0c-.2,0,0,.2,0,.3.3,0,.4-.3.5-.4.2.2,0,.3.3.5-.4,0-.4.3-.5.5s.4.3.4.3c-.2,0,0,.3-.4.2,0,0,.2-.2,0-.3-.2,0-.6,0-.3.4.2.2.9,0,.6.4,0,0-.3-.2-.4-.2l-.2.4h.4-.2c.4,0,0,.6.6.7,0,.2-.3.4-.3.6h0c-.2.2,0,.5.2.7h0s0,.4.3.6c-.3.3-1.5.3-1,.6,0,.3.8.4,1.1.2v.9c0,.3.2.6,0,.9h.4c0,.9,1,1.5.4,2.4-.2-.2-.4,0-.6.2.4,0-.2.4.3.2.3-.2.5-.2.5-.5.4.4.7,1.1.5,1.5,0-.2.2-.2.4,0-.5.2-.5.6,0,.8h.3l-.2.2c.2,0,.7-.3.6,0l-.3.3c.4,0,1,.2.9.6l-.3.5s.5,0,.5-.2c0,.6.2.9,0,1.3,1.5,0,2.3.9,3.1,1.7l-.2.2c0,.4.4-.3.4,0-.2,0-.2.6-.6.7,0,.5.7,0,1,0,.2-.2-.3,0,0-.3,0,0,.3.6.7.2,0,.2-.3.5-.5.6h.3c0,.6-1.2.4-1.4,1.2h.2c0,.7-.9.2-.5.7.4,0,1-.5,1-.9.5.2.9-.9,1.4-.5,0,.3-.4-.2-.6.2,0,.5.6,0,.7.3,0-.3.4-.7.6-.7,0,.4-.4.3,0,.6.2-.2.6-.2.5-.6.5-.5.2.4.7,0,0,.5-.9.8-.6,1.2.2-.4.8-.3.9-1.1,0,.2,0,.5-.3.7,0,.4.9-.5.6.3l.3-.4v.6c.2,0,.9-.3.6.3,0,0,.6.2.6-.4-.2-.4-.5.2-.4-.5,0,.6.4,0,.7,0v.3s.3,0,.4-.2c0,0-.2.3,0,.4l.2-.4c.4,0,0,.8.3.8,0,0-.3.2-.4.2,0,0,0,.4.3.3.2-.3.4-.8.6-1.1.3,0,0,.4.3,0l-.4.4s0,.7.3.7.7-.6.4-.8c.2,0,.3.3,0,.6.4,0,0-.4.4-.6,0,.3.4.7.6,1.1l-.4.6h.2c-.4.5,0,.5-.2,1,.2,0,.4,0,.5-.2-.3-.9.7-1.1.6-2,.6,0,.2,2,.9.8,0-.2.2-.8,0-.6.3,0,.3-.8.7-.4-.3.3.3.8-.2,1.3,0-.3-.2-.2-.3,0,0,.3,0,.8.3.8s.6,0,.5-.5c0-.5-.4,0-.2-.4.5,0,.5.6.7-.3-.3,0-.4-.4-.3-.7,0,0,.2,0,.3-.2v.3c.5.2,0-.6.6-.5l.3.6c0,.5-.7-.2-.6.7.3,0,.4-.4.8-.2,0,0-.2,0-.2.2,0,0,.3,1.2.8.5.2-.3,0-.3,0-.6.5-.2.6-.5,1-.6,0,.6.6,0,.3.7-.2-.3-1-.2-1.1.4.3.7-.4,0-.5.7.5,0,.5.7.6,1.2l.3-.3c0-.4-.2-.4-.2-.9.5,0,1-.3,1.2-.7.2.2.2.6,0,.7.6-.2,1.2-.4,1.8-.3-.6-.6.6-.3.2-.8-.3,0-.7-.5-.7-.9.2,0,0,.3.2.4,0-.4.5.5.6-.2-.4.4.2.9.2,1.5.3-.4,0,.4.5.3.3-.4.7-.8,1.1-1.1.7.3,1.3-.6,1.8-.8.4,0,.5.8.8.7.3-.2-.6-.5,0-.5h0s1.1,0,.7-.8l.2.7v-.3c0,.2.3.3.3.5.6.2.5-.5.8-.7l-.4-.2c.3-.6.9-.5,1.2-1l.2.3v-.4c.3.4.7.3.6,0v1.4c-.4,0,0-.6-.5-.8-.3-.2-.7.2-.5.6.2,0,.2-.2.2-.4.4.4,0,.6.2,1,0,0,.3,0,.2-.2,0,.3-.2.5-.5.8,0-.3-.3-.2-.3-.4.3.4,0,.8-.4.9-.6-.3-.6.8-1.1.9v-1.4c-.4,0-.3.2-.7,0,0,.4.2,1,0,1.4l-.2-.3c-.3.3,0,.8-.5,1-.4,0-.9.2-1.3.4-.4,0-.8.2-1.1.3l-.2-.3c0,.9-1.1.7-1.5,1.1-.5,0-.9,0-1.3.3-.4,0-.8.2-1,0-.4,0-.7.2-1.1.4-.4,0-.7.2-1.1.2h-2.3l.3-.5c-.3.4-.2-.3-.4-.2.3.4-.4.5-.6.9-.7-.5-1.6-.2-2.3,0v-.4c-.7.6-1.4-.2-2.1-.5,0-.2,0-.6-.3-.6-.6.4-.8.3-1.5.5-.5,0-1.1-.6-1.4-1-1,0-1.8-.4-2.6-.8-.4-.2-.8-.5-1.2-.7-.4-.2-.8-.5-1.3-.7l.2-.4c-1-.2-1.8-.9-2.4-1.6-.6-.8-1.2-1.5-1.9-2l.7-.3c0-.5-.8-.8-1.2-.4,0-.3-.3-.5-.5-.7s-.3-.4,0-.8c0-.5-.6-.3-.9-.7-.3-1-.4-1.3-1-2.1v.2c.2,0,.6,0,.5-.3-.4-.2-.3-1.3-1-.6,0-.6-.2-1.1-.5-1.6s-.4-1.1-.2-1.7c-.2,0-.3,0-.5-.2-.3-.9.2-1.9-.4-2.6,0-.2.4.2.4-.2,0-.2-.3,0-.5-.2-.3-.7-.2-1.5,0-2.2s.4-1.4.4-2.1c-.2-2.4.5-4.8,1.3-6.9h.2c-.3-.9,1.4-1.2.7-2.2.2,0,.4-.6.7-.3,0-.4.3-.7.6-1s.6-.7.7-1.2v.2c.8-.5.8-1.5,1.7-1.9v.4c.5,0,0-1.1.8-.7,0-.2-.2-.4-.3-.3,1.6-1.3,2.8-3,4.5-4.4,1.6-.3.8,1.2,1.5,0,.2,0,0-.3,0-.2.3-.5,1.1.5,1.1,0-.3-.4,0-.3,0-.7,1,0,1.3.3,1.8-.4v.3c.6-1,1.6-1,2-2,4.5-1.4,9.4-1.8,14-.5,2.2.8,4.4,1.8,6.3,3.1,2,1.3,3.7,3,5.1,4.9,0,1.3,0,1.4,1.1,2.2h-.2c.6-.3.5.7,1.1.5.4.8.9,1.5,1.2,2.3.4.8.8,1.5,1.1,2.4-.2-.2-.7-.2-.5,0l.5.2h0c.2.3.5.4.6.2,1,2.1,1.2,4.5,1.1,6.7,0,1.1-.2,2.2-.4,3.3-.2,1.1-.4,2.2-.6,3.3-.3.5-.4,1.1-.6,1.7s-.3,1.3-.4,1.8c-2,2.9-4.1,4.8-6,7.6,0,0-.8-1.4-.2-2.6h0l-.3.5v.3Z"/>
              <path class="cls-2" d="M95.7,97.6c-.3-.2-.7,0-.7-.5.2.2.6.3.7.5Z"/>
              <path class="cls-2" d="M86.6,99.4h-.2s0-.3.2-.2v.3-.1Z"/>
              <path class="cls-2" d="M84.6,99.7c0-.3.3-.6.6-.7l-.6.7Z"/>
              <path class="cls-2" d="M82.6,98.9c-.2-.2,0-.3,0-.4v.4Z"/>
              <path class="cls-2" d="M82.5,99.5q-.2,0-.3-.3c0,.2.3-.2.3.3Z"/>
              <path class="cls-2" d="M78.5,98.7s-.3.2-.4,0c0,.2.5-.3.4,0Z"/>
              <path class="cls-2" d="M76.7,98.7h-.2s0-.3.2-.3v.3Z"/>
              <polygon class="cls-2" points="64.7 71.5 64.7 71.8 64.4 71.6 64.7 71.5"/>
              <path class="cls-2" d="M77.1,62.8c.2-.2.2.2.2.2-.2,0,0-.3-.2-.2Z"/>
              <polygon class="cls-2" points="85.8 61.7 85.7 61.7 85.9 61.2 85.8 61.7"/>
            </g>
          </g>
          <g>
            <path class="cls-2" d="M84.9,27.5s-.3.1-.4.1c0,0,0-.1.4-.1Z"/>
            <path class="cls-2" d="M83.7,17h-.2.2Z"/>
            <path class="cls-2" d="M83.8,16.9h.6-.6Z"/>
            <path class="cls-2" d="M81.1,28.5c0,.1-.3.2-.7.3l.7-.3Z"/>
            <path class="cls-2" d="M78.8,27.4h-.3.3Z"/>
            <path class="cls-2" d="M86.4,37.1h.2-.2Z"/>
            <path class="cls-2" d="M85.4,37.8v.2h0c-.2,0,0,0,0-.2Z"/>
            <path class="cls-2" d="M84.7,37.5v.2-.2Z"/>
            <path class="cls-2" d="M78.1,42.4h-.6.6Z"/>
            <path class="cls-2" d="M87.1,36.9h-.5c.2,0,.2-.2.5,0Z"/>
            <path class="cls-2" d="M85.1,27.5h-.3.3Z"/>
            <path class="cls-2" d="M83.9,13c0-.1,0-.2.2-.3.2.2,0,.3-.2.3Z"/>
            <path class="cls-2" d="M85.1,34.4c-1.7,0,0,.4-1.7.4.4-.2.6-.3-.2-.4-.9.2,0,.4-1.3.5l.5-.3c-.7-.2-1.8,0-1.7,0,1.9-.2-.8-.9-.5-1.1h-.2l-.9-.3h.4c-1-.2-1.6-.5-1.4-.8,1.1,0,.4-1.1,1.3-1.3-.3.1-.3.3,0,.5h1.3c0-.4-1.2,0-.4-.4,1.8,0,0,.5.2.7.4,0,.8-.2.9-.4,0,.5.7.9-1.1,1.2h1.3c-1.1.3,1,.2,0,.5,1.7,0,.9-.7,1.8-1-1.3-.4,0-1,.2-1.5-1.2,0-2.3.3-3,.1-.8-.5.7-.5,1.4-.8-.4-.3-2.1,0-2.1-.6l-.8.3c-1.7-.3.7-.3.3-.5.4,0,.9,0,.8.4.6,0,.9-.2,1-.3h0c.8,0,1.8,0,1.3-.4-1,.2-.8-.3-1.2-.4h-.2c.3-.2.2-.4.4-.6h-.2c.4-.2,1.7-.2,1.4-.5-.5,0-1.9.4-1.7,0-.8,0-.8.4-.6.6-.3-.3-1.6-.4-1.6,0-1,0,.4-.3,0-.5h.9c-1.3,0,0-.6.8-.7l-.7.3c1.1,0,1.8-.4,2.4-.2-1.7-.1.8-.9-.6-1h.9c-.5-.5,1.4-1.1,1.8-1.8-.5.2-2.4.2-1.7.7-.4-.6-1.8-.2-2.7-.4-.7-.5,1.7-.3,2.3-.4l-.3.4c2.1-.5-.5-1.3.9-2-.6,0-.3.1-.5.2-1.1-.3.2-.3.7-.5-.2-.3-.7-.7-2-.5-.3-.4.8,0,1.2-.1h-.3l1.5-.4c-.4-.3-1.2-.7-2.4-.8.3-.7,3-.2,3.5-.8-.7-.3-1,0-1.5,0v-.5c-1.3.2-.6.5-2.3.5,1.8-.4.5-.5,1.7-1h.2c1.2-.2.4-.7.6-1-.7.1-.8.5-1.1.7-.6-.3,0-1.2,1.5-1.5-.2-.2-.9-.6-1.5-.3-.3-.7,2.2-.3,1.8-.9h-1.2c-1.7-.6,1.5-1.3,0-1.9h1.4c-.6-.2-.9-.4-1.4-.5l-.5.3c-1.2-.3,1.1-.3.3-.6.4,0,1.4.3,1.9.3-.8,1.3,1.2,2.6-.2,3.9-.2,0-.4-.1-.7,0,.3.1,0,.4.7.4h0c-.3.3,1.4.6,1.4.8-1,.1.4.7-1.3.6l1.1.2c-.6,0-1.4,0-1.8.2,0,.2.8.2,1.2,0,.7.9.5,2,0,2.9l.8-.2c.4.2-1.4.8.6.6-.8.5.6,1.2-1.5,1.3,2,.3.9,1.1.6,1.7-1.8-.1-.5.5-1.3.7,1.4,0,1.4-.5,2.3-.5-2.1.6,1.6,1.8-2,2.1h.4c0,.1.6.3.8.4-.6,0-.9-.2-1.1.1,0,.2,1.1.1,1.6.2-.8.5-1.1,1.2-2.6,1.3.4.1,1.2.3,1.5.1-1.1.7.2.7-.5,1.4,0-.3,1.5-.1.9-.5,2,.3-.4,1.1.7,1.7l-1.3.2c-.2.3,1,.4,1.5,0,.8.6,0,.9,0,1.4.2,0,.4,0,.3,0v.7c-.3,0-.9.3-1.8.3.7,0,1.2-.2.7-.6h-.3v-.1Z"/>
            <path class="cls-2" d="M84.4,35h-.2.2Z"/>
            <path class="cls-2" d="M78.8,28.9c.3,0,.5.1.5.2-.2,0-.4,0-.5-.2Z"/>
            <path class="cls-2" d="M82.1,41.2c-2,0,.3-.4-.2-.7-.3.3-1.4.2-2,.2,2.5-.3-.5-.4,0-1-.8,0-.9.3-1.9.3.6-.3,1-.9,2.4-1,0-.6-.5-1-.3-1.4-.6.4-1.4,0-2.6.4,1.6-.4,3.6-1.4,5.6-2h-3.1c-1-.7,1.4-.2,1-.9l.3.3c.5-.3,1.9-.3,2.9-.4l-.2.8c1.1,0,.9-.5,1.2-.7,1.3-.2.9.4,1.9.3-.8,0-.6.4-.9.6h.6c.6.4-.8.6-.8,1h.4c-.6,0-1.4.2-1.7.4v-.2c-1.3.3-2.2,1-3.6.5l.4.8c1.5,0,3.8-.2,3.9-.7h.6c.8.3-1.2.9-2.4.7-3.6.3,0,1.2-1.6,1.8,1,0,1.4-.3,2.1-.4,0-.2,0-.3-.7-.3.5-.8,3.1.2,2.8-.7-.5-.4-1.6.5-1.7,0l2.7-.4c0,.4-.5.7-.8,1-1.8,1.7-.3,2.9-.3,2.9l-.9,7.5c-.4.8-.3,1.1-3,1.4-.6-.2-.3-.7-1.2-.5,1,0,1.6-.4,1.5-.8-1,0-.5.4-.7.3h0c-.5,0-.8,0-.9.2-1.5-.5-1.2-1.3.7-1.7-1-.4-1.5.3-2.3.5-.8-1.3-.6-2.2-.7-3.5,1.7,0,1.1,0,2.3-.3h-.6c.3,0,1.5-.2,1.9,0-1.3-.8,2.3-.9,3.1-1.4h-.9c.2-.4.2-.5.7-.9-1.7-.7-.3.6-2.5.4l.4-.2c-.8,0-2.3.2-3,.5,1.4-.7-.6-1,.5-1.7-1,0-1.8.7-1.9.9,0-.2.6-.7-.3-.7h1.2c.2-.5-1.2,0-2,0,.2-1,4.1,0,4.8-1h-.2v-.2Z"/>
            <path class="cls-2" d="M81.4,30.9v.3-.3Z"/>
            <path class="cls-2" d="M79,32.9h-.4.4Z"/>
            <path class="cls-2" d="M77.3,33.1c.4,0,.83-.07,1.3-.2-.4,0-.4.5-1.3.2Z"/>
            <path class="cls-2" d="M77.6.3c.4,0,.7-.3,1-.3l-.4.4h-.6v-.1Z"/>
            <path class="cls-2" d="M79,1.1l.5.4-1.7.3c0-.4,1.2-.2,1.2-.6h0v-.1Z"/>
            <path class="cls-2" d="M80,2.1h.4-.4Z"/>
            <path class="cls-2" d="M79.2,2.2l-1.2.2.9-.5.2.2h.8l-.9.2s.3,0,.2-.2h0v.1Z"/>
            <path class="cls-2" d="M79.2,2.6h-.4.4Z"/>
            <path class="cls-2" d="M81.5,3.6h-1.6c-.5-.4,1.3-.4.8-.7-1,.5-.7-.2-1.4-.4,1.2,0,1.9.3,2.3.7h-.8c0,.2.4,0,.8.3h-.1v.1Z"/>
            <path class="cls-2" d="M79.6,5.6l1.1-.3c-.6,0-.6-.5-1.8-.5.2-.2.7-.2,1-.3-.6,0-1.1-.2-.2-.4.8.7,1.1.5,1.4,1.2.13,0,.2-.07.2-.2l.6.4c-1.4,0-1.5.6-2.4.2h.1v-.1Z"/>
            <path class="cls-2" d="M80.5,6.2c0-.3,1.2-.5,1.9-.3l-.9.7c0-.2,0-.5-1-.4Z"/>
            <path class="cls-2" d="M80.5,6.7c.6,0,1.9.3.7.6.2-.4-1.6-.2-.7-.6Z"/>
            <path class="cls-2" d="M81.6,9.1l-.8-.7c-1.5-.1-.5.3-1.2.5-.3-.6.2-.4,1.1-.8,0-.2.7-.4,1.1-.6-1.2.8,2.5.9-.3,1.5h.1v.1Z"/>
            <polygon class="cls-2" points="80.1 7.8 80.7 7.7 80.2 8 80.1 7.8"/>
            <path class="cls-2" d="M83.3,10.6c1.8.4-1,.8-.2,1.2,0,0,.2,0,.5-.1l-.2.4h.4c-1.1,0-1.5.4-2.3.6-1.1-.4,1.3-.2,0-.5-.5,0-1.2.1-1.6.2.5-.2,1.2-.3,1.8-.4,0-.2-.5-.2-.9-.2.6-.3,2.2-.3,1.8-.7-.9-.3-1.5.2-1.1-.3,1.7.2-.3-.5.8-.7-.3-.4-1.4-.6-2-.5,1.3,0,2.5-.3,2.8-.6l-1.1.6,1.6.2c-.7.3-.6.6-.4.9h0l.1-.1Z"/>
            <path class="cls-2" d="M79.8,12.4s-.2,0-.3.1h.3v-.1Z"/>
            <polygon class="cls-2" points="79.8 9.5 79.5 9.6 79.1 9.5 79.8 9.5"/>
            <path class="cls-2" d="M78.7,12.7s.5-.1.5,0h-.7c0,.1.2,0,.2,0h0Z"/>
            <polygon class="cls-2" points="79.7 13 80.6 13.2 79.9 13.4 79.7 13"/>
            <path class="cls-2" d="M80.6,21.1c-.5-.3.5-.2,1.3-.3.2.4-.9,0-1.3.3Z"/>
            <path class="cls-2" d="M79.3,26.2c-.7-.3.3-.5.3-.8.5.3.2.6-.3.8Z"/>
            <path class="cls-2" d="M75.7,28.4c.3,0,.5-.2.7,0l1.9-.3c.6.4-1.8.3-2.6.3h0Z"/>
            <path class="cls-2" d="M75.4,30.8l.7-.4v.2c.8-.1,1.2-.2,1.8-.3-.4.3-1.1.6-2.5.5h0Z"/>
            <path class="cls-2" d="M78.2,30h0c-.2.1-.5.1,0,0Z"/>
            <path class="cls-2" d="M78.1,30.3h-.2s.2-.1.2-.2c.2,0,.3,0,0,.2h0Z"/>
            <path class="cls-2" d="M76.3,31.1l-.2.7-.4-.3c1.2,0-.7-.3.6-.4Z"/>
            <path class="cls-2" d="M77.3,34.7h1.1c.2.5-2.2,1.1-.4,1.3-.7-.2-1.3.4-1.6-.2,1-.2,1.1-.8.9-1.2h0v.1Z"/>
            <path class="cls-2" d="M79,36.3h.9c0,.2-.4.3-.9.2,1.5,0-1-.2,0-.3h0v.1Z"/>
            <path class="cls-2" d="M78.9,38.4s0-.3.4,0c0,.4-1.4.3-2.1.5-.7-.3,1.1-.6,1.7-.4v-.1Z"/>
            <path class="cls-2" d="M87.4,41.4c-1,0-.8-.3-.5-.4-.2,0,0,.3.5.4Z"/>
            <polygon class="cls-2" points="79.2 41.5 79 41.3 80.5 41.2 79.2 41.5"/>
            <polygon class="cls-2" points="78.4 43.8 77.4 44 77.6 43.6 78.4 43.8"/>
            <path class="cls-2" d="M78.7,44.2v.4h-.5c-.3-.3.4-.2.4-.3h0l.1-.1Z"/>
            <path class="cls-2" d="M78.4,45.3h-.2l.6-.4-.4.5h0v-.1Z"/>
            <path class="cls-2" d="M84.6,51.5c1,0,.4.3.6.4-.2,0-1.5-.2-.6-.4Z"/>
          </g>
          <g>
            <path class="cls-2" d="M53,49.3s0,.2-.2.3l.2-.3Z"/>
            <path class="cls-2" d="M48.4,45.8l.3-.3c0,.2-.2.3-.3.3Z"/>
            <path class="cls-2" d="M51.4,51.7s0,.2-.2.5l.2-.5Z"/>
            <path class="cls-2" d="M49.7,52.5h-.2.2Z"/>
            <path class="cls-2" d="M55.1,58.6l-.3.3.3-.3Z"/>
            <path class="cls-2" d="M57.8,51.8s0,.2-.2.3c0,0,0-.2.2-.3Z"/>
            <path class="cls-2" d="M53.2,49.2v.2-.2Z"/>
            <path class="cls-2" d="M46.9,44.2v-.2c.2,0,0,0,0,.2Z"/>
            <path class="cls-2" d="M55.8,51.8c-1,.9,0,.2-.8,1,0-.3.2-.5-.3,0-.4.6.2,0-.5.9l.2-.4c-.5.3-.9,1-1,.9.9-1.1-.7,0-.7-.2h0l-.7.5h0l.2-.2c-.6.4-1.1.7-1.1.4.5-.6-.2-.6.2-1.2,0,.2,0,.3.2.2l.7-.7s-.7.6-.4,0c1-.9.2.2.4.2.2-.2.3-.5.4-.6.2,0,.7,0,0,1.1.3-.2.6-.6.7-.7-.4.7.6-.5.2.2.8-.9.2-.7.6-1.3-.9.5-.4-.3-.5-.7-.7.7-1.1,1.3-1.5,1.6-.6.2.2-.5.4-1-.4,0-1.1,1.1-1.3.9l-.3.5c-1,.8.2-.5,0-.4.3-.2.5-.5.6-.3.3-.3.4-.5.4-.6h0c.4-.5.9-1,.5-.9-.5.6-.5.3-.8.5v.2c0-.3-.2-.3,0-.5h0c.2-.2.8-.9.5-.8-.3.3-.9,1.2-.9.9-.4.4-.3.6,0,.5-.3,0-1,.7-.9.8-.6.5,0-.3-.2-.2l.5-.5c-.7.7-.3-.2.2-.7l-.3.5c.6-.6.8-1.1,1.2-1.3-1,.8,0-.8-.7,0l.5-.4c-.5,0,.3-1.2.2-1.7-.2.4-1.2,1.3-.7,1.2-.4,0-1,.9-1.6,1.3-.5.2.8-1,1-1.4v.3c.9-1.3-.8-.2-.3-1.2-.3.3,0,.2-.2.4-.7.5,0-.2.2-.5-.2,0-.6,0-1.2.9-.3,0,.4-.4.6-.7h-.2l.7-.8c-.3,0-.9.4-1.6,1,0-.4,1.5-1.7,1.6-2.2-.5.3-.5.6-.8.8v-.2c-.8.8-.3.6-1.2,1.5.8-1.1,0-.5.5-1.3h0c.5-.8,0-.5,0-.8-.3.4-.2.6-.3.8-.4.2-.5-.5.2-1.4-.2,0-.7.2-.9.7-.4,0,1.1-1.3.6-1.3l-.6.6c-1.1.7.3-1.3-.7-.7l.7-.8c-.4.3-.6.3-.9.6v.4c-.9.5.4-.7-.2-.4.2-.2.8-.6,1.1-.9,0,.9,1.7.3,1.4,1.6,0,0-.2.2-.4.3.2,0,0,.2.5-.2h0c0,.2,1-.6,1.1-.5-.5.6.5,0-.5.9l.7-.5c-.3.4-.7.8-.9,1,.2,0,.5-.3.7-.6.7,0,1,.5,1.1,1.2l.3-.5c.3,0-.4,1,.6,0-.2.6.8.2-.3,1.3,1.2-1,.9,0,1,.4-1,.9,0,.5-.4,1,.8-.7.5-1,1-1.4-.9,1.4,1.5,0-.3,1.8,0,0,.2,0,.2-.2,0,0,.4-.2.6-.2-.3.3-.5.4-.6.6.2,0,.6-.5.9-.8-.2.6-.2,1-.9,1.8.3-.2.7-.5.8-.7-.3.9.4.2.3.8,0,0,.8-.8.3-.7,1.2-1,.2.6,1,.3l-.6.8c0,.3.7-.4.8-.7.7-.2.4.3.5.5l.2-.2.3.2c0,.2-.4.6-.8,1,.4-.4.5-.7,0-.6h-.1l-.2-.1Z"/>
            <path class="cls-2" d="M50.4,53c.2,0,.3-.2.3-.2,0,0-.2.2-.3.2Z"/>
            <path class="cls-2" d="M56.8,56c-1.1,1,0-.3-.4-.2,0,.3-.7.8-1,1.1,1.2-1.5-.4,0-.4-.4-.4.4-.4.6-.9,1.1.2-.5.2-.8.9-1.6-.2-.2-.6,0-.7-.4,0,.5-.7.8-1.2,1.5.7-1,1.4-2.5,2.2-3.8-.8.8-1,.9-1.7,1.6-.8.3.7-.8.2-.9h.3c0-.4.9-1.2,1.4-1.8l.2.4c.6-.6.3-.7.4-.9.6-.8.7-.3,1.2-.9-.4.5,0,.5-.2.7l.3-.3c.5-.2-.2.7,0,.8,0,0,.2,0,.2-.2-.3.4-.7.8-.7,1h0c-.6.7-.8,1.5-1.8,2.1h.5c.8-.8,1.9-2,1.8-2.3l.3-.4c.6-.3-.2,1-1,1.6-1.8,2,.4.5-.2,1.6.5-.5.6-.8.9-1.2,0,0,0-.2-.5.2,0-.6,1.7-1.6,1.2-1.7-.4,0-.6,1-1,.9l1.3-1.6v.8c-.3,1.6,1,1.3,1,1.3l2.4,3.4c0,.5.3.5-1,2.1-.3.2-.4,0-.8.5.5-.6.7-1,.5-1.1-.5.5,0,.4-.3.5h0c-.2.3-.4.5-.4.6-1,.6-1.1,0-.3-1-.7.4-.7.9-1,1.4-.9,0-1.2-.5-1.7-1,.9-.9.5-.6,1.1-1.3l-.4.3c.2-.2.8-.8,1-.9-1,.4.9-1.6,1.1-2.2l-.5.5v-.7c-1.2.6,0,.4-1.1,1.5v-.3c-.3.5-1,1.3-1.3,1.8.5-1-.7,0-.4-.9-.5.6-.7,1.2-.7,1.3-.2,0,0-.6-.4,0l.7-.7c0-.2-.6.6-1.1,1-.3-.5,2.1-2.2,2.2-2.9h-.2,0Z"/>
            <path class="cls-2" d="M52.5,52.5v.2-.2Z"/>
            <path class="cls-2" d="M52,54.5s-.2.2-.2.3c0,0,0-.2.2-.3Z"/>
            <path class="cls-2" d="M51.2,55.5c.2-.2.4-.47.6-.8-.2.3,0,.4-.6.8Z"/>
            <path class="cls-2" d="M38.7,42.7c.2-.2.3-.5.5-.7v.4l-.5.3Z"/>
            <path class="cls-2" d="M39.8,42.3h.4l-.8.9c0-.2.5-.7.4-.9Z"/>
            <path class="cls-2" d="M40.7,42.2l.2-.2s0,.2-.2.2Z"/>
            <path class="cls-2" d="M40.3,42.6l-.6.7.3-.7h.2c.2-.3.4-.3.5-.4l-.4.5v-.2h0v.1Z"/>
            <path class="cls-2" d="M40.4,42.8l-.2.2s.2,0,.2-.2Z"/>
            <path class="cls-2" d="M42,41.9c-.3.2-.6.6-.8.9-.4,0,.6-.9,0-.7-.3.7-.5.3-.9.6.7-.6,1.1-.9,1.5-1l-.4.4s.3-.2.5-.3h0l.1.1Z"/>
            <path class="cls-2" d="M41.8,43.7l.5-.7c-.3.3-.5,0-1.1.7,0-.2.3-.4.4-.7-.4.3-.7.5-.3,0,.7-.2.8-.4,1.2-.3v-.2l.5-.2c-.7.8-.6,1-1.2,1.3h0v.1Z"/>
            <path class="cls-2" d="M42.5,43.5c0-.2.4-.8.9-1.2l-.2.8s0-.2-.7.4Z"/>
            <path class="cls-2" d="M42.7,43.7c.4-.3,1.2-.9.6-.2,0-.2-.9.8-.6.2Z"/>
            <path class="cls-2" d="M44.2,44l-.7.2c-.8.8,0,.4-.4.8-.4,0,0-.2.3-.9,0,0,.2-.5.4-.8-.3,1,1.7-1,.4.8h0v-.1Z"/>
            <polygon class="cls-2" points="42.9 44.3 43.2 44 43.1 44.3 42.9 44.3"/>
            <path class="cls-2" d="M45.7,43.7c1.1-.8-.2.8.3.6l.2-.3v.2l.3-.2c-.6.6-.7.9-1,1.5-.8.5.6-.8-.2-.3-.2.3-.6.7-.8,1,.2-.4.5-.7.8-1.1,0-.2-.3.2-.5.4.2-.4,1.1-1.3.7-1.2-.6.4-.7.8-.7.5,1-.8-.3,0,.2-.7-.3,0-1,.5-1.3.9.7-.7,1.2-1.4,1.3-1.7l-.4.8.9-.8c-.3.5,0,.5,0,.6h0v-.2h.2Z"/>
            <path class="cls-2" d="M44.5,46.2v.2-.2Z"/>
            <polygon class="cls-2" points="43.4 45.1 43.3 45.3 43 45.5 43.4 45.1"/>
            <path class="cls-2" d="M44.1,46.9s.2-.3.3-.3l-.3.4v-.2h0v.1Z"/>
            <polygon class="cls-2" points="44.7 46.5 45.3 46.1 45 46.5 44.7 46.5"/>
            <path class="cls-2" d="M48.3,49.1c-.4.2.2-.4.6-.8.3,0-.5.5-.6.8Z"/>
            <path class="cls-2" d="M49.5,51.8c-.5.3,0-.4-.2-.5.4-.2.3,0,.2.5Z"/>
            <path class="cls-2" d="M48.5,54.5c.2-.2.2-.3.3-.4l.9-1.1c.5-.2-.8,1-1.2,1.5h0Z"/>
            <path class="cls-2" d="M49.2,55.6l.2-.5h0c.4-.4.5-.6.8-1,0,.3-.4.8-1.1,1.5h.1Z"/>
            <path class="cls-2" d="M50.4,53.8h0c0,.2-.3.4,0,0Z"/>
            <path class="cls-2" d="M50.5,53.9h0v-.1s.2,0,0,0h0v.1Z"/>
            <path class="cls-2" d="M49.9,55.2l.2.4h-.3c.6-.5-.5.3,0-.4h.1Z"/>
            <path class="cls-2" d="M51.8,56.1l.6-.6c.3,0-.8,1.6.3.7-.5.3-.5.8-.9.8.5-.6.3-.9,0-.9Z"/>
            <path class="cls-2" d="M53.3,55.8c.2-.2.3-.3.5-.4,0,0,0,.3-.4.5.8-.8-.6.4,0,0h0l-.1-.1Z"/>
            <path class="cls-2" d="M54,56.6s0-.2.2-.3c0,.2-.6.8-1,1.3-.5.2.3-.8.8-1Z"/>
            <path class="cls-2" d="M59.7,53.3c-.5.5-.6.3-.4,0h.4Z"/>
            <polygon class="cls-2" points="55.4 57.7 55.2 57.7 55.9 56.9 55.4 57.7"/>
            <polygon class="cls-2" points="55.8 59 55.4 59.6 55.3 59.3 55.8 59"/>
            <path class="cls-2" d="M56.1,59v.4c-.2,0,.2-.3.2-.3h-.1l-.1-.1Z"/>
            <path class="cls-2" d="M56.4,59.5h-.2l.2-.5v.4h0v.1Z"/>
            <path class="cls-2" d="M62.1,58.6c.5-.6.3,0,.5-.2,0,0-.9.7-.5.2Z"/>
          </g>
          <g>
            <path class="cls-2" d="M49.3,109.7s.2,0,.3.2l-.3-.2Z"/>
            <path class="cls-2" d="M45.8,114.3l-.3-.3c.2,0,.3.2.3.3Z"/>
            <path class="cls-2" d="M51.7,111.4s.2,0,.5.2l-.5-.2Z"/>
            <path class="cls-2" d="M52.5,113v.2-.2Z"/>
            <path class="cls-2" d="M58.6,107.7l.3.3s-.2-.2-.3-.3Z"/>
            <path class="cls-2" d="M51.8,105s.2,0,.3.2c0,0-.2,0-.3-.2Z"/>
            <path class="cls-2" d="M49.2,109.6h.2-.2Z"/>
            <path class="cls-2" d="M44.2,115.8h-.2c0-.2,0,0,.2,0Z"/>
            <path class="cls-2" d="M51.8,107c.9.9.2,0,1,.8-.3,0-.5-.2,0,.3.6.4,0-.2.9.5l-.4-.2c.3.4,1,.9.9.9-1.1-.9,0,.7-.2.7h0l.3.7h0l-.2-.2c.4.6.7,1.1.4,1.1-.6-.5-.6.2-1.2-.2.2,0,.3,0,.2-.2l-.7-.7s.6.7,0,.4c-.9-1,.2-.2.2-.4-.2-.2-.5-.3-.6-.4,0-.2,0-.7,1.1,0-.2-.3-.6-.6-.7-.7.7.4-.5-.6.2-.2-.9-.8-.7-.2-1.3-.6.5.9-.3.4-.7.5.7.7,1.3,1.1,1.6,1.5.2.6-.5-.2-1-.4,0,.4,1.1,1.1.9,1.3l.5.3c.8,1-.5-.2-.4,0-.2-.3-.5-.5-.3-.6-.3-.3-.5-.4-.6-.4h0c-.5-.5-1-.9-.9-.6.6.5.3.5.5.8h.2c-.3,0-.3.2-.5,0h0c-.3,0-1-.7-1-.4.3.3,1.2.9.9.9.4.4.6.3.5,0,0,.3.7,1,.8.9.5.6-.3,0-.2.2-.2-.2-.3-.3-.5-.5.7.7-.2.3-.7-.2l.5.3c-.6-.6-1.1-.8-1.3-1.2.8.9-.8,0,0,.7l-.4-.5c0,.5-1.2-.3-1.7-.2.4.2,1.3,1.2,1.2.7,0,.4.9,1,1.3,1.6.2.6-1-.8-1.4-1.1h.3c-1.3-.9-.2.8-1.2.3.3.3.2,0,.4.2.5.7-.2,0-.5-.2,0,.2,0,.6.9,1.2,0,.3-.4-.4-.7-.6v.2l-.8-.7c0,.3.4.9,1,1.6-.4,0-1.7-1.5-2.2-1.6.3.5.6.5.8.8h-.2c.8.8.6.3,1.5,1.2-1.1-.8-.5,0-1.3-.5h0c-.7-.6-.5,0-.7,0,.4.3.6.2.8.3.2.4-.5.5-1.4-.2,0,.2.2.7.7.9,0,.4-1.3-1.1-1.3-.6l.6.6c.7,1.1-1.3-.3-.7.7l-.8-.7c.3.4.3.6.6.9h.4c.5.9-.7-.3-.4.2-.2-.2-.6-.8-.9-1.1.9,0,.3-1.7,1.6-1.4,0,0,.2.2.3.4,0-.2.2,0-.2-.5h0c.3,0-.5-1.1-.4-1.1.6.5,0-.5.9.4l-.5-.7c.4.3.8.7,1,.9,0-.2-.3-.5-.6-.7,0-.7.5-1,1.2-1.1l-.5-.3c0-.3,1,.4,0-.6.6.2.2-.8,1.3.3-1-1.2,0-.9.4-1,.9,1,.5,0,1,.4-.7-.8-1-.6-1.4-1,1.4.9,0-1.5,1.8.3,0,0,0-.2-.2-.2,0,0-.2-.4-.2-.6.3.3.4.6.6.6,0-.2-.5-.6-.8-.9.6.2,1,.2,1.8.9-.2-.3-.5-.7-.7-.8.9.3.2-.4.8-.3,0,0-.8-.8-.7-.3-1-1.2.6-.2.3-1l.8.6c.3,0-.4-.7-.7-.8-.2-.7.3-.4.5-.5l-.2-.2.2-.3c.2,0,.6.4,1,.8-.4-.4-.7-.5-.6,0h0v.5l.1.1Z"/>
            <path class="cls-2" d="M53,112.4c0-.2-.2-.3-.2-.3,0,0,.2.2.2.3Z"/>
            <path class="cls-2" d="M56,105.9c1,1.1-.3,0-.2.4.3,0,.8.7,1.1,1-1.5-1.2,0,.4-.4.4.4.4.6.4,1.1.9-.5-.2-.8-.2-1.6-.9-.2.2,0,.6-.4.7.5,0,.8.7,1.5,1.2-1-.7-2.5-1.4-3.8-2.2.8.8.9.9,1.7,1.7.3.8-.8-.7-.9-.2v-.3c-.4,0-1.2-.9-1.8-1.4l.4-.2c-.6-.6-.7-.3-.9-.4-.8-.6-.3-.7-.9-1.2.5.4.5,0,.7.2l-.3-.3c-.2-.5.7.2.8,0,0,0,0-.2-.2-.2.4.3.8.7,1,.7h0c.8.6,1.6.8,2.2,1.8v-.5c-.8-.8-2-1.9-2.3-1.8l-.4-.3c-.3-.6,1,.2,1.6,1,2,1.8.5-.4,1.6.2-.5-.5-.8-.6-1.2-.9,0,0-.2,0,.2.5-.6,0-1.6-1.7-1.7-1.2,0,.4,1,.6.9.9l-1.6-1.3h.8c1.6.3,1.3-1,1.3-1l3.4-2.4c.5,0,.5-.3,2.1,1,.2.3,0,.4.5.8-.6-.5-1-.7-1.1-.5.5.5.4,0,.5.3h0c.3.3.5.5.6.4.6,1,0,1.1-1,.3.4.7.9.7,1.4,1.1,0,.9-.5,1.2-1,1.7-.9-.9-.6-.5-1.3-1.1l.3.4c-.2-.2-.8-.8-.9-1,.4,1-1.6-.9-2.2-1.1l.5.5h-.7c.6,1.2.4,0,1.5,1.1h-.3c.5.3,1.3,1,1.8,1.3-1-.5,0,.7-.9.4.6.5,1.2.7,1.3.7,0,.2-.6,0,0,.4l-.7-.7c-.2,0,.6.6,1,1.1-.5.3-2.2-2.1-2.9-2.2h0v.2h-.2Z"/>
            <path class="cls-2" d="M52.5,110.3s.07,0,.2,0h-.2Z"/>
            <path class="cls-2" d="M54.5,110.8s.2.2.3.2c0,0-.2,0-.3-.2Z"/>
            <path class="cls-2" d="M55.5,111.6c-.2-.2-.47-.4-.8-.6.3.2.4,0,.8.6Z"/>
            <path class="cls-2" d="M42.7,124c-.2-.2-.5-.3-.7-.4h.4s.3.5.3.4Z"/>
            <path class="cls-2" d="M42.3,123v-.4l.9.8c-.2,0-.7-.5-.9-.4Z"/>
            <path class="cls-2" d="M42.2,122.1l-.2-.2s.2,0,.2.2Z"/>
            <path class="cls-2" d="M42.6,122.4l.7.6-.7-.3v-.2c-.3-.2-.3-.4-.4-.5l.5.4h-.2.1Z"/>
            <path class="cls-2" d="M42.8,122.3l.2.2s0-.2-.2-.2Z"/>
            <path class="cls-2" d="M41.9,120.7c.2.3.6.6.9.8,0,.4-.9-.6-.7,0,.7.3.3.5.6.9-.6-.7-.9-1.1-1-1.5l.4.4s-.2-.3-.3-.5h0l.1-.1Z"/>
            <path class="cls-2" d="M43.7,120.9l-.7-.5c.3.3,0,.5.7,1.1-.2,0-.4-.3-.7-.4.3.4.5.7,0,.3-.2-.7-.4-.8-.3-1.2h-.2l-.2-.5c.8.7,1,.6,1.3,1.2h.1Z"/>
            <path class="cls-2" d="M43.5,120.2c-.2,0-.8-.4-1.2-.9l.8.2s-.2,0,.4.7Z"/>
            <path class="cls-2" d="M43.7,120c-.3-.4-.9-1.2-.2-.6-.2,0,.8.9.2.6Z"/>
            <path class="cls-2" d="M44,118.5l.2.7c.8.8.4,0,.8.4,0,.4-.2,0-.9-.3,0,0-.5-.2-.8-.4,1,.3-1-1.7.8-.4h-.1Z"/>
            <polygon class="cls-2" points="44.3 119.9 44 119.6 44.3 119.7 44.3 119.9"/>
            <path class="cls-2" d="M43.7,117.1c-.8-1.1.8.2.6-.3l-.3-.2h.2l-.2-.3c.6.6.9.7,1.5,1,.5.8-.8-.6-.3.2.3.2.7.6,1,.8-.4-.2-.7-.5-1.1-.8-.2,0,.2.3.4.6-.4-.2-1.3-1.1-1.2-.7.4.6.8.7.5.7-.8-1,0,.3-.7-.2,0,.3.5,1,.9,1.3-.7-.7-1.4-1.2-1.7-1.3l.8.4-.8-.9c.5.3.5,0,.6,0h0l-.2-.2v-.1Z"/>
            <path class="cls-2" d="M46.2,118.2h.2-.2Z"/>
            <polygon class="cls-2" points="45.1 119.3 45.3 119.4 45.5 119.7 45.1 119.3"/>
            <path class="cls-2" d="M46.9,118.7s-.3-.2-.3-.3l.4.3h-.2.1Z"/>
            <polygon class="cls-2" points="46.5 118 46.1 117.5 46.5 117.8 46.5 118"/>
            <path class="cls-2" d="M49.1,114.4c.2.4-.4-.2-.8-.6,0-.3.5.5.8.6Z"/>
            <path class="cls-2" d="M51.8,113.2c.3.5-.4,0-.5.2-.2-.4,0-.3.5-.2Z"/>
            <path class="cls-2" d="M54.5,114.3c-.2-.2-.3-.2-.4-.3l-1.1-.9c-.2-.5,1,.8,1.5,1.2h0Z"/>
            <path class="cls-2" d="M55.6,113.5l-.5-.2h0c-.4-.5-.7-.6-1-.9.3,0,.8.4,1.5,1.1h0Z"/>
            <path class="cls-2" d="M53.8,112.3h0s.2.3,0,0Z"/>
            <path class="cls-2" d="M53.9,112.3h-.2s0-.2,0,0h.2Z"/>
            <path class="cls-2" d="M55.2,112.9l.4-.2v.3c-.5-.6.3.5-.4,0h0v-.1Z"/>
            <path class="cls-2" d="M56.1,111l-.6-.6c0-.3,1.6.8.7-.3.3.4.8.6.8.9-.6-.5-.9-.3-.9,0Z"/>
            <path class="cls-2" d="M55.8,109.4c-.2-.2-.3-.3-.4-.5,0,0,.3,0,.5.4-.8-.8.4.6,0,0l-.1.1Z"/>
            <path class="cls-2" d="M56.6,108.7s-.2,0-.3-.2c.2,0,.8.6,1.3.9.2.5-.8-.3-1-.8h0v.1Z"/>
            <path class="cls-2" d="M53.3,103.1c.5.5.3.6,0,.4v-.4Z"/>
            <polygon class="cls-2" points="57.7 107.4 57.7 107.6 56.9 106.8 57.7 107.4"/>
            <polygon class="cls-2" points="59 106.9 59.6 107.3 59.3 107.4 59 106.9"/>
            <path class="cls-2" d="M59,106.6h.2l.2.2c0,.2-.3-.2-.3-.2h-.1Z"/>
            <path class="cls-2" d="M59.5,106.3v.2l-.5-.2h.5Z"/>
            <path class="cls-2" d="M58.6,100.7c-.6-.5,0-.3-.2-.5,0,0,.7.9.2.5Z"/>
          </g>
          <g>
            <path class="cls-2" d="M109.7,113.4s0-.2.2-.3l-.2.3Z"/>
            <path class="cls-2" d="M114.3,116.9l-.3.3c0-.2.2-.3.3-.3Z"/>
            <path class="cls-2" d="M111.4,111.1s0-.2.2-.5l-.2.5Z"/>
            <path class="cls-2" d="M113,110.2h.2-.2Z"/>
            <path class="cls-2" d="M107.7,104.1l.3-.3-.3.3Z"/>
            <path class="cls-2" d="M105,111s0-.2.2-.3c0,0,0,.2-.2.3Z"/>
            <path class="cls-2" d="M109.6,113.6v-.2.2Z"/>
            <path class="cls-2" d="M115.8,118.5v.2c-.2,0,0,0,0-.2Z"/>
            <path class="cls-2" d="M107,110.9c.9-.9,0-.2.8-1,0,.3-.2.5.3,0,.4-.6-.2,0,.5-.9l-.2.4c.4-.3.9-1,.9-.9-.9,1.1.7,0,.7.2h0l.7-.5h0l-.2.2c.6-.4,1.1-.7,1.1-.4-.5.6.2.6-.2,1.2,0-.2,0-.3-.2-.2l-.7.7s.7-.6.4,0c-1,.9-.2-.2-.4-.2-.2.2-.3.5-.4.6-.2,0-.7,0,0-1.1-.3.2-.6.6-.7.7.4-.7-.6.4-.2-.2-.8.9-.2.7-.6,1.3.9-.5.4.3.5.7.7-.7,1.1-1.3,1.5-1.6.6-.2-.2.5-.4,1,.4,0,1.1-1.1,1.3-.9l.3-.6c1-.8-.2.5,0,.4-.3.2-.5.4-.6.3-.3.3-.4.5-.4.6h0c-.4.5-.9,1-.5.9.5-.6.5-.3.8-.5v-.2c0,.3.2.3,0,.5h0c-.2.2-.8.9-.6.8.3-.3.9-1.2.9-.9.4-.4.3-.6,0-.5.3,0,1-.7.9-.8.6-.5,0,.3.2.2l-.5.5c.7-.7.3.2-.2.7l.3-.5c-.6.6-.8,1.1-1.2,1.3.9-.8,0,.8.7,0l-.5.4c.5,0-.3,1.2-.2,1.7.2-.4,1.2-1.3.7-1.2.4,0,1-.9,1.6-1.3.6-.2-.8,1-1.1,1.4v-.3c-.9,1.3.8.2.3,1.2.3-.3,0-.2.2-.4.7-.5,0,.2-.2.5.2,0,.6,0,1.2-.9.3,0-.4.4-.6.7h.2l-.7.8c.3,0,.9-.4,1.6-1,0,.4-1.5,1.7-1.6,2.2.5-.3.5-.6.8-.8v.2c.8-.8.3-.6,1.2-1.5-.8,1.1,0,.5-.5,1.3h0c-.5.8,0,.6,0,.8.3-.4.2-.6.3-.8.4-.2.5.4-.2,1.4.2,0,.7-.2.9-.7.4,0-1.1,1.3-.6,1.3l.6-.6c1.1-.7-.3,1.3.7.7l-.7.8c.4-.3.6-.3.9-.6v-.4c.9-.5-.3.7.2.4-.2.2-.8.6-1.1.9,0-.9-1.7-.3-1.4-1.6,0,0,.2-.2.4-.3-.2,0,0-.2-.5.2h0c0-.2-1,.6-1.1.5.5-.6-.5,0,.4-.9l-.7.5c.3-.4.7-.8.9-1-.2,0-.5.3-.7.6-.7,0-1-.5-1.1-1.2l-.3.5c-.3,0,.4-1.1-.6,0,.2-.6-.8-.2.3-1.3-1.2.9-.9,0-1-.4,1-.9,0-.5.4-1-.8.7-.6.9-1,1.4.9-1.4-1.5,0,.3-1.8,0,0-.2,0-.2.2,0,0-.4.2-.6.2.3-.3.6-.4.6-.6-.2,0-.6.6-.9.8.2-.6.2-1.1.9-1.8-.3.2-.7.5-.8.7.3-.9-.4-.2-.3-.8,0,0-.8.8-.3.7-1.2.9-.2-.6-1-.3l.6-.8c0-.3-.7.4-.8.7-.7.2-.4-.3-.5-.5l-.2.2-.3-.2c0-.2.4-.6.8-1.1-.4.4-.5.7,0,.6h0l.5.3h.2Z"/>
            <path class="cls-2" d="M112.4,109.7c-.2,0-.3.2-.3.2,0,0,.2-.2.3-.2Z"/>
            <path class="cls-2" d="M105.9,106.7c1.1-1,0,.3.4.2,0-.3.7-.8,1-1.1-1.2,1.5.4,0,.4.4.4-.4.4-.6.9-1.1-.2.5-.2.8-.9,1.6.2.2.6,0,.7.4,0-.5.7-.8,1.2-1.5-.7,1-1.4,2.5-2.2,3.8.8-.8.9-.9,1.7-1.6.8-.3-.7.8-.2.9h-.3c0,.4-.9,1.2-1.4,1.8l-.2-.4c-.6.6-.3.7-.4.9-.6.8-.7.3-1.2.9.4-.5,0-.5.2-.7l-.3.3c-.5.2.2-.7,0-.8,0,0-.2,0-.2.2.3-.4.7-.8.7-1.1h0c.6-.7.8-1.5,1.8-2.1h-.5c-.8.8-1.9,2-1.8,2.3l-.3.4c-.6.3.2-1,1-1.6,1.8-2-.4-.5.2-1.6-.5.5-.6.8-.9,1.2,0,0,0,.2.5-.2,0,.6-1.7,1.6-1.2,1.7.4,0,.6-1,.9-.9l-1.3,1.6v-.8c.3-1.6-1-1.3-1-1.3l-2.4-3.4c0-.5-.3-.6,1-2.1.3-.2.4,0,.8-.5-.5.6-.7,1-.5,1.1.5-.5,0-.4.3-.5h0c.2-.3.4-.5.4-.6,1-.6,1.1,0,.3,1,.7-.4.7-.9,1.1-1.4.9,0,1.2.5,1.7,1-.9.9-.5.6-1.1,1.3l.4-.3c-.2.2-.8.8-1,.9,1-.4-.9,1.6-1.1,2.2l.5-.5v.7c1.2-.6,0-.4,1.1-1.5v.3c.3-.5,1-1.3,1.3-1.8-.5,1,.7,0,.4.9.5-.6.7-1.2.7-1.3.2,0,0,.6.4,0l-.7.7c0,.2.6-.6,1.1-1,.3.5-2.1,2.2-2.2,2.9h.2v.1Z"/>
            <path class="cls-2" d="M110.3,110.3s0-.07,0-.2v.2Z"/>
            <path class="cls-2" d="M110.8,108.3s.2-.2.2-.3c0,0,0,.2-.2.3Z"/>
            <path class="cls-2" d="M111.6,107.3c-.2.2-.4.47-.6.8.2-.3,0-.4.6-.8Z"/>
            <path class="cls-2" d="M124,120.1c-.2.2-.3.5-.4.7v-.4s.5-.3.4-.3Z"/>
            <path class="cls-2" d="M123,120.5h-.4l.8-.9c0,.2-.5.7-.4.9Z"/>
            <path class="cls-2" d="M122.1,120.6l-.2.2s0-.2.2-.2Z"/>
            <path class="cls-2" d="M122.4,120.2l.6-.7-.3.7h-.2c-.2.3-.4.3-.5.4l.4-.5v.2h0v-.1Z"/>
            <path class="cls-2" d="M122.3,120l.2-.2s-.2,0-.2.2Z"/>
            <path class="cls-2" d="M120.7,120.8c.3-.2.6-.6.8-.9.4,0-.6.9,0,.7.3-.7.5-.3.9-.6-.7.6-1.1.9-1.5.9l.4-.4s-.3.2-.5.3h-.1Z"/>
            <path class="cls-2" d="M120.9,119.1l-.5.7c.3-.3.5,0,1.1-.7,0,.2-.3.4-.4.7.4-.3.7-.5.3,0-.7.2-.8.4-1.2.3v.2l-.5.2c.7-.8.6-1,1.2-1.3h0v-.1Z"/>
            <path class="cls-2" d="M120.2,119.3c0,.2-.4.8-.9,1.2l.2-.8s0,.2.7-.4Z"/>
            <path class="cls-2" d="M120,119.1c-.4.3-1.2.9-.6.2,0,.2.9-.8.6-.2Z"/>
            <path class="cls-2" d="M118.5,118.8l.7-.2c.8-.8,0-.4.4-.8.4,0,0,.2-.3.9,0,0-.2.5-.4.8.3-1-1.7,1-.4-.8h0v.1Z"/>
            <polygon class="cls-2" points="119.9 118.4 119.6 118.8 119.7 118.4 119.9 118.4"/>
            <path class="cls-2" d="M117.1,119.1c-1.1.8.2-.8-.3-.6l-.2.3v-.2l-.3.2c.6-.6.7-.9,1-1.4.8-.5-.6.8.2.3.2-.3.6-.7.8-.9-.2.4-.5.7-.8,1.1,0,.2.3-.2.6-.4-.2.4-1.1,1.3-.7,1.2.6-.4.7-.8.7-.5-1,.8.3,0-.2.7.3,0,1-.5,1.3-.9-.7.7-1.2,1.4-1.3,1.7l.4-.8-.9.8c.3-.5,0-.5,0-.6h-.3Z"/>
            <path class="cls-2" d="M118.2,116.6v-.2.2Z"/>
            <polygon class="cls-2" points="119.3 117.7 119.4 117.5 119.7 117.3 119.3 117.7"/>
            <path class="cls-2" d="M118.7,115.9s-.2.3-.3.3l.3-.4v.2h0v-.1Z"/>
            <polygon class="cls-2" points="118 116.3 117.5 116.7 117.8 116.2 118 116.3"/>
            <path class="cls-2" d="M114.4,113.6c.4-.2-.2.4-.6.8-.3,0,.5-.5.6-.8Z"/>
            <path class="cls-2" d="M113.2,111c.5-.3,0,.4.2.5-.4.2-.3,0-.2-.5Z"/>
            <path class="cls-2" d="M114.3,108.2c-.2.2-.2.3-.3.4l-.9,1.1c-.5.2.8-1,1.2-1.5h0Z"/>
            <path class="cls-2" d="M113.5,107.1l-.2.5h0c-.4.4-.5.6-.8,1,0-.3.4-.8,1.1-1.5h-.1Z"/>
            <path class="cls-2" d="M112.3,109h0c0-.2.3-.3,0,0Z"/>
            <path class="cls-2" d="M112.3,108.8h0s-.2,0,0,0h0Z"/>
            <path class="cls-2" d="M112.9,107.5l-.2-.4h.3c-.6.6.5-.3,0,.4h-.1Z"/>
            <path class="cls-2" d="M111,106.7l-.6.6c-.3,0,.8-1.6-.3-.7.4-.3.6-.8.9-.8-.5.6-.3.9,0,.9Z"/>
            <path class="cls-2" d="M109.4,107c-.2.2-.3.3-.5.4,0,0,0-.3.4-.6-.8.8.6-.4,0,0h0l.1.2Z"/>
            <path class="cls-2" d="M108.7,106.1s0,.2-.2.3c0-.2.6-.8.9-1.3.5-.2-.3.8-.8,1h.1Z"/>
            <path class="cls-2" d="M103.1,109.4c.5-.5.6-.3.4,0h-.4Z"/>
            <polygon class="cls-2" points="107.4 105.1 107.6 105 106.8 105.9 107.4 105.1"/>
            <polygon class="cls-2" points="106.9 103.8 107.3 103.2 107.4 103.4 106.9 103.8"/>
            <path class="cls-2" d="M106.6,103.8v-.2l.2-.2c.2,0-.2.3-.2.3h0v.1Z"/>
            <path class="cls-2" d="M106.3,103.2h.2l-.2.5v-.4h0v-.1Z"/>
            <path class="cls-2" d="M100.7,104.1c-.5.6-.3,0-.5.2,0,0,.9-.7.5-.2Z"/>
          </g>
          <g>
            <path class="cls-2" d="M113.4,53s-.2,0-.3-.2l.3.2Z"/>
            <path class="cls-2" d="M116.9,48.4l.3.3c-.2,0-.3-.2-.3-.3Z"/>
            <path class="cls-2" d="M111.1,51.4s-.2,0-.5-.2l.5.2Z"/>
            <path class="cls-2" d="M110.2,49.7v-.2.2Z"/>
            <path class="cls-2" d="M109.8,57.3h0c0-.2,0,0,0,0h0Z"/>
            <path class="cls-2" d="M104.1,55.1l-.3-.3s.2.2.3.3Z"/>
            <path class="cls-2" d="M111,57.8s-.2,0-.3-.2c0,0,.2,0,.3.2Z"/>
            <path class="cls-2" d="M113.6,53.2h-.2.2Z"/>
            <path class="cls-2" d="M118.5,46.9h.2c0,.2,0,0-.2,0Z"/>
            <path class="cls-2" d="M110.9,55.8c-.9-1-.2,0-1-.8.3,0,.5.2,0-.3-.6-.4,0,.2-.9-.5l.4.2c-.3-.5-1-.9-.9-1,1.1.9,0-.7.2-.7h0l-.3-.7h0l.2.2c-.4-.6-.7-1.1-.4-1.1.6.5.6-.2,1.2.2-.2,0-.3,0-.2.2l.7.7s-.6-.7,0-.4c.9,1-.2.2-.2.4.2.2.5.3.6.4,0,.2,0,.7-1.1,0,.2.3.6.6.7.7-.7-.4.4.6-.2.2.9.8.7.2,1.3.6-.5-.9.3-.4.7-.5-.7-.7-1.3-1.1-1.6-1.5-.2-.6.5.2,1,.4,0-.4-1.1-1.1-.9-1.3l-.6-.3c-.8-1,.5.2.4,0,.2.3.4.5.3.6.3.3.5.4.6.4h0c.5.5,1,.9.9.6-.6-.5-.3-.5-.5-.8h-.2c.3,0,.3-.2.5,0h0c.3,0,1,.7.9.4-.3-.3-1.2-.9-.9-.9-.4-.4-.6-.3-.5,0,0-.3-.7-1-.8-.9-.5-.6.3,0,.2-.2.2.2.3.3.5.5-.7-.7.2-.3.7.2l-.5-.3c.6.6,1.1.8,1.3,1.2-.8-1,.8,0,0-.7l.4.5c0-.5,1.2.3,1.7.2-.4-.2-1.3-1.2-1.2-.7,0-.4-.9-1-1.3-1.6-.2-.5,1,.8,1.4,1h-.3c1.3.9.2-.8,1.2-.3-.3-.3-.2,0-.4-.2-.5-.7.2,0,.5.2,0-.2,0-.6-.9-1.2,0-.3.4.4.7.6v-.2l.8.7c0-.3-.4-.9-1-1.6.4,0,1.7,1.5,2.2,1.6-.3-.5-.6-.5-.8-.8h.2c-.8-.8-.6-.3-1.5-1.2,1.1.8.5,0,1.3.5h0c.7.6.5,0,.7,0-.4-.3-.6-.2-.8-.3-.2-.4.4-.5,1.4.2,0-.2-.2-.7-.7-.9,0-.4,1.3,1.1,1.3.6l-.6-.6c-.7-1.1,1.3.3.7-.7l.8.7c-.3-.4-.3-.6-.6-.9h-.4c-.5-.9.7.4.4-.2.2.2.6.8.9,1.1-.9,0-.3,1.7-1.6,1.4,0,0-.2-.2-.3-.4,0,.2-.2,0,.2.5h0c-.3,0,.5,1,.4,1.1-.6-.5,0,.5-.9-.5l.5.7c-.4-.3-.8-.7-1-.9,0,.2.3.5.6.7,0,.7-.5,1-1.2,1.1l.5.3c0,.3-1.1-.4,0,.6-.6-.2-.2.8-1.3-.3.9,1.2,0,.9-.4,1-.9-1-.5,0-1-.4.7.8.9.5,1.4,1-1.4-.9,0,1.5-1.8-.3,0,0,0,.2.2.2,0,0,.2.4.2.6-.3-.3-.4-.5-.6-.6,0,.2.6.6.8.9-.6-.2-1.1-.2-1.8-.9.2.3.5.7.7.8-.9-.3-.2.4-.8.3,0,0,.8.8.7.3.9,1.2-.6.2-.3,1l-.8-.6c-.3,0,.4.7.7.8.2.7-.3.4-.5.5l.2.2-.2.3c-.2,0-.6-.4-1.1-.8.4.4.7.5.6,0h0l.4-.2-.2-.1Z"/>
            <path class="cls-2" d="M109.7,50.4c0,.2.2.3.2.3,0,0-.2-.2-.2-.3Z"/>
            <path class="cls-2" d="M106.7,56.8c-1-1.1.3,0,.2-.4-.3,0-.8-.7-1.1-1,1.5,1.2,0-.4.4-.4-.4-.4-.6-.4-1.1-.9.5.2.8.2,1.6.9.2-.2,0-.6.4-.7-.5,0-.8-.7-1.5-1.2,1,.7,2.5,1.4,3.8,2.2-.8-.8-.9-1-1.6-1.7-.3-.8.8.7.8.2v.3c.4,0,1.2.9,1.8,1.4l-.4.2c.6.6.7.3.9.4.8.6.3.7.9,1.2-.5-.4-.5,0-.7-.2l.3.3c.2.5-.7-.2-.8,0,0,0,0,.2.2.2-.4-.3-.8-.7-1.1-.7h0c-.8-.6-1.6-.8-2.2-1.8v.5c.8.8,2,1.9,2.3,1.8l.4.3c.3.6-1-.2-1.6-1-2-1.8-.5.4-1.6-.2.5.5.8.6,1.2.9,0,0,.2,0-.2-.5.6,0,1.6,1.7,1.7,1.2,0-.4-1-.6-.9-1l1.6,1.3h-.8c-1.6-.3-1.3,1-1.3,1l-3.4,2.4c-.5,0-.6.3-2.1-1-.2-.3,0-.4-.5-.8.6.5,1,.7,1.1.5-.5-.5-.4,0-.5-.3h0c-.3-.3-.5-.5-.6-.4-.6-1,0-1.1,1-.3-.4-.7-.9-.7-1.4-1,0-.9.5-1.2,1-1.7.9.9.6.5,1.3,1.1l-.3-.4c.2.2.8.8.9,1-.4-1,1.6.9,2.2,1.1l-.5-.5h.7c-.6-1.2-.4,0-1.5-1.1h.3c-.5-.3-1.3-1-1.8-1.3,1,.5,0-.7.9-.4-.6-.5-1.2-.7-1.3-.7,0-.2.6,0,0-.4l.7.7c.2,0-.6-.6-1-1.1.5-.3,2.2,2.1,2.9,2.2h0l.2-.2h.1Z"/>
            <path class="cls-2" d="M110.3,52.5s-.07,0-.2,0h.2Z"/>
            <path class="cls-2" d="M108.3,52s-.2-.2-.3-.2c0,0,.2,0,.3.2Z"/>
            <path class="cls-2" d="M107.3,51.2c.2.2.47.4.8.6-.3-.2-.4,0-.8-.6Z"/>
            <path class="cls-2" d="M120.1,38.7c.2.2.5.3.7.5h-.4s-.3-.5-.3-.5Z"/>
            <path class="cls-2" d="M120.5,39.8v.4l-.9-.8c.2,0,.7.5.9.4Z"/>
            <path class="cls-2" d="M120.6,40.7l.2.2s-.2,0-.2-.2Z"/>
            <path class="cls-2" d="M120.2,40.3l-.7-.6.7.3v.2c.3.2.3.4.4.5l-.5-.4h.2-.1Z"/>
            <path class="cls-2" d="M120,40.4l-.2-.2s0,.2.2.2Z"/>
            <path class="cls-2" d="M120.8,42c-.2-.3-.6-.6-.9-.8,0-.4.9.6.7,0-.7-.3-.3-.5-.6-.9.6.7.9,1.1.9,1.5l-.4-.4s.2.3.3.5h0v.1Z"/>
            <path class="cls-2" d="M119.1,41.8l.7.5c-.3-.3,0-.5-.7-1.1.2,0,.4.3.7.4-.3-.4-.5-.7,0-.3.2.7.4.8.3,1.2h.2l.2.5c-.8-.7-1-.6-1.3-1.2h-.1Z"/>
            <path class="cls-2" d="M119.3,42.5c.2,0,.8.4,1.2.9l-.8-.2s.2,0-.4-.7Z"/>
            <path class="cls-2" d="M119.1,42.7c.3.4.9,1.2.2.6.2,0-.8-.9-.2-.6Z"/>
            <path class="cls-2" d="M118.8,44.2l-.2-.7c-.8-.8-.4,0-.8-.4,0-.4.2,0,.9.3,0,0,.5.2.8.4-1-.3,1,1.7-.8.4h.1Z"/>
            <polygon class="cls-2" points="118.4 42.9 118.8 43.2 118.4 43.1 118.4 42.9"/>
            <path class="cls-2" d="M119.1,45.7c.8,1.1-.8-.2-.6.3l.3.2h-.2l.2.3c-.6-.6-.9-.7-1.4-1-.5-.8.8.6.3-.2-.3-.2-.7-.6-.9-.8.4.2.7.5,1.1.8.2,0-.2-.3-.4-.5.4.2,1.3,1.1,1.2.7-.4-.6-.8-.7-.5-.7.8,1,0-.3.7.2,0-.3-.5-1-.9-1.3.7.7,1.4,1.2,1.7,1.3l-.8-.4.8.9c-.5-.3-.5,0-.6,0h0v.2Z"/>
            <path class="cls-2" d="M116.6,44.5h-.2.2Z"/>
            <polygon class="cls-2" points="117.7 43.4 117.5 43.3 117.3 43 117.7 43.4"/>
            <path class="cls-2" d="M115.9,44.1s.3.2.3.3l-.4-.3h.2-.1Z"/>
            <polygon class="cls-2" points="116.3 44.7 116.7 45.3 116.2 45 116.3 44.7"/>
            <path class="cls-2" d="M113.6,48.3c-.2-.4.4.2.8.6,0,.3-.5-.5-.8-.6Z"/>
            <path class="cls-2" d="M111,49.5c-.3-.5.4,0,.5-.2.2.4,0,.3-.5.2Z"/>
            <path class="cls-2" d="M108.2,48.5c.2.2.3.2.4.3l1.1.9c.2.5-1-.8-1.5-1.2h0Z"/>
            <path class="cls-2" d="M107.1,49.2l.5.2h0c.4.5.7.6,1.1.9-.3,0-.8-.4-1.5-1.1h-.1Z"/>
            <path class="cls-2" d="M109,50.4h0s-.2-.3,0,0Z"/>
            <path class="cls-2" d="M108.8,50.5h.2s0,.2,0,0h-.2Z"/>
            <path class="cls-2" d="M107.5,49.9l-.4.2v-.3c.6.6-.3-.5.4,0h0v.1Z"/>
            <path class="cls-2" d="M106.7,51.8l.6.6c0,.3-1.6-.8-.7.3-.3-.5-.8-.5-.8-.9.6.5.9.3.9,0Z"/>
            <path class="cls-2" d="M107,53.3c.2.2.3.3.4.5,0,0-.3,0-.6-.4.8.8-.4-.6,0,0h0l.2-.1Z"/>
            <path class="cls-2" d="M106.1,54s.2,0,.3.2c-.2,0-.8-.6-1.3-1-.2-.5.8.3,1,.8Z"/>
            <path class="cls-2" d="M109.4,59.7c-.5-.5-.3-.6,0-.4v.4Z"/>
            <polygon class="cls-2" points="105.1 55.4 105 55.2 105.9 55.9 105.1 55.4"/>
            <polygon class="cls-2" points="103.8 55.8 103.2 55.4 103.4 55.3 103.8 55.8"/>
            <path class="cls-2" d="M103.8,56.1h-.4c0-.2.3.2.3.2h0l.1-.2Z"/>
            <path class="cls-2" d="M103.2,56.4v-.2l.5.2h-.5Z"/>
            <path class="cls-2" d="M104.1,62.1c.6.5,0,.3.2.5,0,0-.7-.9-.2-.5Z"/>
          </g>
          <g>
            <path class="cls-2" d="M27.5,77.9s.1.3.1.4c0,0-.1,0-.1-.4Z"/>
            <path class="cls-2" d="M16.9,78.9v-.6.6Z"/>
            <path class="cls-2" d="M28.5,81.6c.1,0,.2.3.3.7l-.3-.7Z"/>
            <path class="cls-2" d="M27.4,84v.3-.3Z"/>
            <path class="cls-2" d="M37.1,76.4v-.2.2Z"/>
            <path class="cls-2" d="M37.8,77.3h.2c0,.3,0,0-.2,0Z"/>
            <path class="cls-2" d="M37.5,78.1h.2-.2Z"/>
            <path class="cls-2" d="M42.4,84.7v.6-.6Z"/>
            <path class="cls-2" d="M36.9,75.7v.5c0-.2-.2-.2,0-.5Z"/>
            <path class="cls-2" d="M27.5,77.6v.3-.3Z"/>
            <path class="cls-2" d="M13,78.8c-.1,0-.2,0-.3-.2.2-.2.3,0,.3.2Z"/>
            <path class="cls-2" d="M34.4,77.6c0,1.7.4,0,.4,1.7-.2-.4-.3-.6-.4.2.2.9.4,0,.5,1.3l-.3-.5c-.2.7,0,1.8,0,1.7-.2-1.9-.9.8-1.1.5v.2l-.3.9h0v-.3c-.2,1-.5,1.6-.8,1.4,0-1.1-1.1-.4-1.3-1.3.1.3.3.3.5,0v-1.3c-.4,0,0,1.2-.4.4,0-1.8.5,0,.7-.2,0-.4-.2-.8-.4-.9.5,0,.9-.7,1.2,1.1v-1.3c.3,1.1.2-1,.5,0,0-1.7-.7-.9-1-1.8-.4,1.3-1,0-1.5-.2,0,1.2.3,2.3.1,3-.5.8-.5-.7-.8-1.4-.3.4,0,2.1-.6,2.1l.3.8c-.3,1.7-.3-.7-.5-.3,0-.4,0-.9.4-.8,0-.6-.2-.9-.3-1h0c-.1-.9-.1-1.8-.5-1.4.2,1-.3.8-.4,1.2v.2c-.2-.3-.4-.2-.6-.4v.2c-.2-.4-.2-1.7-.5-1.4,0,.5.4,1.9,0,1.7,0,.8.4.8.6.6-.3.3-.4,1.6,0,1.6,0,1-.3-.4-.5,0v-.9c0,1.3-.6,0-.7-.8l.3.7c0-1.1-.4-1.8-.2-2.4-.1,1.7-.9-.8-1,.6v-.9c-.5.5-1.1-1.4-1.8-1.8.2.5.2,2.4.7,1.7-.6.4-.2,1.8-.4,2.7-.5.7-.3-1.7-.4-2.3l.4.3c-.5-2.1-1.3.5-2-.9,0,.6.1.3.2.5-.3,1.1-.3-.2-.5-.7-.3.2-.7.7-.5,2-.4.3,0-.8-.1-1.2v.3l-.4-1.5c-.3.4-.7,1.2-.8,2.4-.7-.3-.2-3-.8-3.5-.3.7,0,1,0,1.5h-.5c.2,1.3.5.6.5,2.3-.4-1.8-.5-.5-1-1.7v-.2c-.2-1.2-.7-.4-1-.6.1.7.5.8.7,1.1-.3.6-1.2,0-1.5-1.5-.2.2-.6.9-.3,1.5-.7.3-.3-2.2-.9-1.8v1.2c-.6,1.7-1.3-1.5-1.9,0v-1.4c-.2.6-.4.9-.5,1.4l.3.5c-.3,1.2-.3-1.1-.6-.3,0-.4.3-1.4.3-1.9,1.3.8,2.6-1.2,3.9.2,0,.2-.1.4,0,.7.1-.3.4,0,.4-.7h0c.4.2.7-1.5.9-1.5.1,1,.7-.4.6,1.3l.2-1.1c0,.6,0,1.4.2,1.8.2,0,.2-.8,0-1.2.9-.7,2-.5,2.9,0l-.2-.8c.2-.4.8,1.4.6-.6.5.8,1.2-.6,1.3,1.5.3-2,1.1-.9,1.7-.6-.1,1.8.5.5.7,1.3,0-1.4-.5-1.4-.5-2.3.6,2.1,1.8-1.6,2.1,2v-.4c.1,0,.3-.6.4-.8,0,.6-.2.9.1,1.1.2,0,.1-1.1.2-1.6.5.8,1.2,1.1,1.3,2.6.1-.4.3-1.2.1-1.5.7,1.1.7-.2,1.4.5-.3,0-.1-1.5-.5-.9.3-2,1.1.4,1.7-.7l.2,1.3c.3.2.4-1,0-1.5.6-.8.9,0,1.4,0,0-.2,0-.4,0-.3h.7c0,.3.3.9.3,1.8,0-.7-.2-1.2-.6-.7h0v.4h-.1Z"/>
            <path class="cls-2" d="M35,78.3v.2h0v-.2h0Z"/>
            <path class="cls-2" d="M28.9,83.9c0-.3.1-.5.2-.5,0,.2,0,.4-.2.5Z"/>
            <path class="cls-2" d="M41.2,80.6c0,2-.4-.3-.7.2.3.3.2,1.4.2,2-.3-2.5-.4.5-1,0,0,.8.3.9.3,1.9-.3-.6-.9-1-1-2.4-.6,0-1,.5-1.4.3.4.6,0,1.4.4,2.6-.4-1.6-1.4-3.6-2-5.6v3.1c-.7,1-.2-1.4-.9-1l.3-.3c-.3-.5-.3-1.9-.4-2.9l.8.2c0-1.1-.5-.9-.7-1.2-.2-1.3.4-.9.3-1.9,0,.8.4.6.6.9v-.6c.4-.6.6.8,1,.8v-.4c0,.6.2,1.4.4,1.7h-.2c.3,1.3,1,2.2.5,3.6l.8-.4c0-1.5-.2-3.8-.7-3.9v-.6c.3-.8.9,1.2.7,2.4.3,3.6,1.2,0,1.8,1.6,0-1-.3-1.4-.4-2.1-.2,0-.3,0-.3.7-.8-.5.2-3.1-.7-2.8-.4.5.5,1.6,0,1.7l-.4-2.7c.4,0,.7.5,1,.8,1.7,1.8,2.9.3,2.9.3l7.5.9c.8.4,1.1.3,1.4,3-.2.6-.7.3-.5,1.2,0-1-.4-1.6-.8-1.5,0,1,.4.5.3.7h0c0,.6,0,.9.2.9-.5,1.5-1.3,1.2-1.7-.7-.4,1,.3,1.5.5,2.3-1.3.8-2.2.6-3.5.7,0-1.7,0-1.1-.3-2.3v.6c0-.3-.2-1.5,0-1.9-.8,1.3-.9-2.3-1.4-3.1v.9c-.4-.2-.5-.2-.9-.7-.7,1.7.6.3.4,2.5l-.2-.4c0,.8.2,2.3.5,3-.7-1.4-1,.6-1.7-.5,0,1,.7,1.8.9,1.9-.2,0-.7-.6-.7.3v-1.2c-.5-.2,0,1.2,0,2-1-.2,0-4.1-1-4.8h0v.2h-.2Z"/>
            <path class="cls-2" d="M30.9,81.4h.3-.3Z"/>
            <path class="cls-2" d="M32.9,83.7v.4-.4Z"/>
            <path class="cls-2" d="M33.1,85.5c0-.4-.07-.83-.2-1.3,0,.4.5.4.2,1.3Z"/>
            <path class="cls-2" d="M.3,85.1c0-.4-.3-.7-.3-1l.4.4v.6h-.1Z"/>
            <path class="cls-2" d="M1.1,83.7l.4-.5.3,1.7c-.4,0-.2-1.2-.6-1.2h-.1Z"/>
            <path class="cls-2" d="M2.1,82.8v-.4.4Z"/>
            <path class="cls-2" d="M2.2,83.5l.2,1.2-.5-.9.2-.2v-.8l.2.9s0-.3-.2-.2h.1Z"/>
            <path class="cls-2" d="M2.6,83.6v.4-.4Z"/>
            <path class="cls-2" d="M3.6,81.3v1.6c-.4.5-.4-1.3-.7-.8.5,1-.2.7-.4,1.4,0-1.2.3-1.9.7-2.3v.8c.2,0,0-.4.3-.8h0l.1.1Z"/>
            <path class="cls-2" d="M5.6,83.2l-.3-1.1c0,.6-.5.6-.5,1.8-.2-.2-.2-.7-.3-1,0,.6-.2,1.1-.4.2.7-.8.5-1.1,1.2-1.4,0-.13-.07-.2-.2-.2l.4-.6c0,1.4.6,1.5.2,2.4h0l-.1-.1Z"/>
            <path class="cls-2" d="M6.2,82.3c-.3,0-.5-1.2-.3-1.9l.7.9c-.2,0-.5,0-.4,1Z"/>
            <path class="cls-2" d="M6.7,82.3c0-.6.3-1.9.6-.7-.4-.2-.2,1.6-.6.7Z"/>
            <path class="cls-2" d="M9.1,81.2l-.7.8c-.1,1.5.3.5.5,1.2-.6.3-.4-.2-.8-1.1-.2,0-.4-.7-.6-1.1.8,1.2.9-2.5,1.5.3h.1v-.1Z"/>
            <polygon class="cls-2" points="7.8 82.7 7.7 82.1 8 82.6 7.8 82.7"/>
            <path class="cls-2" d="M10.6,79.5c.4-1.8.8,1,1.2.2,0,0,0-.2-.1-.5l.4.2v-.4c0,1.1.4,1.5.6,2.3-.4,1.1-.2-1.3-.5,0,0,.5.1,1.2.2,1.6-.2-.5-.3-1.2-.4-1.8-.2,0-.2.5-.2.9-.3-.6-.3-2.2-.7-1.8-.3.9.2,1.5-.3,1.1.2-1.7-.5.3-.7-.8-.4.3-.6,1.4-.5,2,0-1.3-.3-2.5-.6-2.8l.6,1.1.2-1.6c.3.7.6.6.9.4h0l-.1-.1Z"/>
            <path class="cls-2" d="M12.4,82.9s0,.2.1.3v-.3h-.1Z"/>
            <polygon class="cls-2" points="9.5 82.9 9.6 83.2 9.5 83.7 9.5 82.9"/>
            <path class="cls-2" d="M12.7,84s-.1-.5,0-.5v.7c.1,0,0-.2,0-.2h0Z"/>
            <polygon class="cls-2" points="13 83 13.2 82.1 13.4 82.8 13 83"/>
            <path class="cls-2" d="M21.1,82.1c-.3.5-.2-.5-.3-1.3.4-.2,0,.9.3,1.3Z"/>
            <path class="cls-2" d="M26.2,83.5c-.3.7-.5-.3-.8-.3.3-.5.6-.2.8.3Z"/>
            <path class="cls-2" d="M28.4,87.1c0-.3-.2-.5,0-.7l-.3-1.9c.4-.6.3,1.8.3,2.6h0Z"/>
            <path class="cls-2" d="M30.8,87.4l-.4-.7h.2c-.1-.8-.2-1.2-.3-1.8.3.4.6,1.1.5,2.5h0Z"/>
            <path class="cls-2" d="M30,84.5h.1c0,.3,0,.6-.1,0Z"/>
            <path class="cls-2" d="M30.3,84.6v.2s-.1-.2-.2-.2c0-.2,0-.3.2,0h0Z"/>
            <path class="cls-2" d="M31.1,86.4l.7.2-.3.4c0-1.2-.3.7-.4-.6Z"/>
            <path class="cls-2" d="M34.7,85.4v-1.1c.5-.2,1.1,2.2,1.3.4-.2.7.4,1.3-.2,1.6-.2-1-.8-1.1-1.2-.9h.1Z"/>
            <path class="cls-2" d="M36.3,83.7v-.9c.2,0,.3.4.2.9,0-1.5-.2,1-.3,0h.1Z"/>
            <path class="cls-2" d="M38.4,83.8s-.3,0,0-.4c.4,0,.3,1.4.5,2.1-.3.7-.6-1.1-.4-1.7h-.1Z"/>
            <path class="cls-2" d="M41.4,75.4c0,1-.3.8-.4.5,0,.2.3,0,.4-.5Z"/>
            <polygon class="cls-2" points="41.5 83.5 41.3 83.8 41.2 82.3 41.5 83.5"/>
            <polygon class="cls-2" points="43.8 84.3 44 85.3 43.6 85.2 43.8 84.3"/>
            <path class="cls-2" d="M44.2,84.1h.4v.5c-.3.3-.2-.4-.3-.4h-.1v-.1Z"/>
            <path class="cls-2" d="M45.3,84.3v.2l-.4-.6.5.4h-.1Z"/>
            <path class="cls-2" d="M51.5,78.1c0-1,.3-.4.4-.6,0,.2-.2,1.5-.4.6Z"/>
          </g>
          <g>
            <path class="cls-2" d="M77.9,135.2s.3-.1.4-.1c0,0,0,.1-.4.1Z"/>
            <path class="cls-2" d="M79.1,145.8h.2-.2Z"/>
            <path class="cls-2" d="M78.9,145.8h-.6.6Z"/>
            <path class="cls-2" d="M81.6,134.3c0-.1.3-.2.7-.3l-.7.3Z"/>
            <path class="cls-2" d="M84,135.3h.3-.3Z"/>
            <path class="cls-2" d="M76.4,125.7h-.2.2Z"/>
            <path class="cls-2" d="M77.3,124.9v-.2h0c.2,0,0,0,0,.2Z"/>
            <path class="cls-2" d="M78.1,125.2v-.2.2Z"/>
            <path class="cls-2" d="M84.7,120.4h.6-.6Z"/>
            <path class="cls-2" d="M75.7,125.8h.5c-.2,0-.2.2-.5,0Z"/>
            <path class="cls-2" d="M77.6,135.3h.3-.3Z"/>
            <path class="cls-2" d="M78.8,149.8c0,.1,0,.2-.2.3-.2-.2,0-.3.2-.3Z"/>
            <path class="cls-2" d="M77.6,128.4c1.7.1,0-.4,1.7-.4-.4.2-.6.4.2.4.9-.2,0-.4,1.3-.5l-.5.3c.7.2,1.8,0,1.7.1-1.9.2.8.9.5,1.1h.2c0-.1.9.3.9.3h-.4c1,.2,1.6.5,1.4.8-1.1.1-.4,1.1-1.3,1.3.3-.1.3-.3,0-.5h-1.3c0,.4,1.2,0,.4.4-1.8,0,0-.5-.2-.7-.4,0-.8.2-.9.4,0-.5-.7-.9,1.1-1.2-.4-.1-1.1,0-1.3,0,1.1-.3-1-.2,0-.5-1.7.1-.9.7-1.8,1,1.3.4,0,1-.2,1.5,1.2,0,2.3-.3,3-.1.8.5-.7.5-1.4.8.4.3,2.1,0,2.1.6l.8-.3c1.7.3-.7.3-.3.5-.4,0-.9,0-.8-.4-.6,0-.9.2-1,.3h0c-.8,0-1.8,0-1.3.4,1-.2.8.3,1.2.4h.2c-.3.2-.2.4-.4.6h.2c-.4.2-1.7.2-1.4.5.5,0,1.9-.4,1.7,0,.8,0,.8-.4.6-.6.3.3,1.6.4,1.6,0,1,0-.4.3,0,.5h-.9c1.3,0,0,.6-.8.7l.7-.3c-1.1,0-1.8.4-2.4.2,1.7.1-.8.9.6,1h-.9c.5.6-1.4,1.1-1.8,1.8.5-.2,2.4-.2,1.7-.7.4.6,1.8.2,2.7.4.7.5-1.7.3-2.3.4l.3-.4c-2.1.4.5,1.3-.9,2,.6,0,.3-.1.5-.2,1.1.3-.2.3-.7.5.2.3.7.7,2,.5.3.4-.8,0-1.2.1h.3l-1.5.4c.4.3,1.2.7,2.4.8-.3.7-3,.2-3.5.8.7.3,1,0,1.5,0v.5c1.3-.2.6-.5,2.3-.5-1.8.4-.5.5-1.7,1h-.2c-1.2.2-.4.7-.6,1,.7-.1.8-.5,1.1-.7.6.3,0,1.2-1.5,1.5.2.2.9.6,1.5.3.3.7-2.2.3-1.8.9h1.2c1.7.6-1.5,1.3,0,1.9h-1.4c.6.2.9.4,1.4.5l.5-.3c1.2.3-1.1.3-.3.6-.4,0-1.4-.3-1.9-.3.8-1.3-1.2-2.6.2-3.9.2,0,.4.1.7,0-.3-.1,0-.4-.7-.4h0c.3-.3-1.4-.6-1.4-.8,1-.1-.4-.7,1.3-.6l-1.1-.2c.6,0,1.4,0,1.8-.2,0-.2-.8-.2-1.2,0-.7-.9-.5-2,0-2.9l-.8.2c-.4-.2,1.4-.8-.6-.6.8-.5-.6-1.2,1.5-1.3-2-.3-.9-1.1-.6-1.7,1.8.1.5-.5,1.3-.7-1.4,0-1.4.5-2.3.5,2.1-.6-1.6-1.8,2-2.1h-.4c0-.1-.6-.3-.8-.4.6,0,.9.2,1.1-.1,0-.2-1.1-.1-1.6-.2.8-.5,1.1-1.2,2.6-1.3-.4-.1-1.2-.3-1.5-.1,1.1-.7-.2-.7.5-1.4,0,.3-1.5.1-.9.5-2-.3.4-1.1-.7-1.7l1.3-.2c.2-.4-1-.4-1.5-.1-.8-.6,0-.9,0-1.4-.2,0-.4,0-.3,0v-.7c.3,0,.9-.3,1.8-.3-.7,0-1.2.2-.7.6h.3v.1Z"/>
            <path class="cls-2" d="M78.3,127.8h.2-.2Z"/>
            <path class="cls-2" d="M83.9,133.8c-.3,0-.5-.1-.5-.2.2,0,.4,0,.5.2Z"/>
            <path class="cls-2" d="M80.6,121.5c2,0-.3.4.2.7.3-.3,1.4-.2,2-.2-2.5.3.5.4,0,1.1.8,0,.9-.3,1.9-.3-.6.3-1,.9-2.4,1,0,.6.5,1,.3,1.4.6-.4,1.4,0,2.6-.4-1.6.4-3.6,1.4-5.6,2h3.1c1,.7-1.4.2-1,.9l-.3-.3c-.5.3-1.9.3-2.9.4l.2-.8c-1.1,0-.9.5-1.2.7-1.3.2-.9-.4-1.9-.3.8,0,.6-.4.9-.6h-.6c-.6-.4.8-.6.8-1h-.4c.6,0,1.4-.2,1.7-.4v.2c1.3-.3,2.2-1,3.6-.5l-.4-.8c-1.5,0-3.8.2-3.9.7h-.6c-.8-.3,1.2-.9,2.4-.7,3.6-.3,0-1.2,1.6-1.8-1,0-1.4.3-2.1.4,0,.2,0,.3.7.3-.5.8-3.1-.2-2.8.7.5.4,1.6-.5,1.7,0l-2.7.4c0-.4.5-.7.8-1,1.8-1.7.3-2.9.3-2.9l.9-7.6c.4-.8.3-1.1,3-1.4.6.2.3.7,1.2.5-1,0-1.6.4-1.5.8,1,0,.5-.4.7-.3h0c.5,0,.8,0,.9-.2,1.5.5,1.2,1.3-.7,1.7,1,.4,1.5-.3,2.3-.4.8,1.3.6,2.2.7,3.6-1.7,0-1.1,0-2.3.3h.6c-.3,0-1.5.2-1.9,0,1.3.8-2.3.9-3.1,1.4h.9c-.2.4-.2.5-.7.9,1.7.7.3-.6,2.5-.4l-.4.2c.8,0,2.3-.2,3-.5-1.4.7.6,1-.5,1.7,1,0,1.8-.7,1.9-.9,0,.2-.6.7.3.7h-1.2c-.2.5,1.2,0,2,0-.2,1-4.1,0-4.8,1h0l.2-.2v.2Z"/>
            <path class="cls-2" d="M81.4,131.9v-.3.3Z"/>
            <path class="cls-2" d="M83.7,129.8h.4-.4Z"/>
            <path class="cls-2" d="M85.5,129.6c-.4,0-.83.07-1.3.2.4-.1.4-.5,1.3-.2Z"/>
            <path class="cls-2" d="M85.1,162.5c-.4,0-.7.3-1,.3l.4-.4h.6v.1Z"/>
            <path class="cls-2" d="M83.7,161.7l-.5-.4,1.7-.3c0,.4-1.2.2-1.2.6h0v.1Z"/>
            <path class="cls-2" d="M82.8,160.6h-.4.4Z"/>
            <path class="cls-2" d="M83.5,160.6h1.2c0-.1-.9.4-.9.4l-.2-.2c-.4,0-.6-.1-.8-.1l.9-.2s-.3.1-.2.2h0v-.1Z"/>
            <path class="cls-2" d="M83.6,160.2h.4-.4Z"/>
            <path class="cls-2" d="M81.3,159.2c.4.1,1.1-.1,1.6-.1.5.4-1.3.4-.8.7,1-.5.7.2,1.4.4-1.2-.1-1.9-.3-2.3-.7h.8c0-.2-.4-.1-.8-.3h.1Z"/>
            <path class="cls-2" d="M83.2,157.2l-1.1.3c.6,0,.6.5,1.8.5-.2.2-.7.2-1,.3.6.1,1.1.2.2.4-.8-.7-1.1-.5-1.4-1.1-.13,0-.2.07-.2.2l-.6-.4c1.4,0,1.5-.6,2.4-.2h-.1Z"/>
            <path class="cls-2" d="M82.3,156.6c0,.3-1.2.5-1.9.4l.9-.7c0,.2,0,.5,1,.4h0v-.1Z"/>
            <path class="cls-2" d="M82.3,156.1c-.6-.1-1.9-.4-.7-.6-.2.4,1.6.2.7.6Z"/>
            <path class="cls-2" d="M81.2,153.6l.8.7c1.5.1.5-.3,1.2-.5.3.6-.2.4-1.1.8,0,.2-.7.4-1.1.6,1.2-.9-2.5-.9.3-1.5h-.1v-.1Z"/>
            <polygon class="cls-2" points="82.7 155 82.1 155 82.6 154.7 82.7 155"/>
            <path class="cls-2" d="M79.5,152.1c-1.8-.4,1-.8.2-1.2,0,0-.2,0-.5.1l.2-.4h-.4c1.1,0,1.5-.4,2.3-.6,1.1.4-1.3.2,0,.5.5,0,1.2-.1,1.6-.2-.5.2-1.2.3-1.8.4,0,.2.5.2.9.2-.6.3-2.2.3-1.8.7.9.3,1.5-.2,1.1.3-1.7-.2.3.5-.8.7.3.4,1.4.6,2,.5-1.3,0-2.5.3-2.8.6l1.1-.6-1.6-.2c.7-.3.6-.6.4-.9h0l-.1.1Z"/>
            <path class="cls-2" d="M82.9,150.4s.2,0,.3-.1h-.3v.1Z"/>
            <polygon class="cls-2" points="82.9 153.3 83.2 153.1 83.7 153.2 82.9 153.3"/>
            <path class="cls-2" d="M84,150.1s-.5.1-.5,0h.7c0-.1-.2,0-.2,0h0Z"/>
            <polygon class="cls-2" points="83 149.7 82.1 149.5 82.8 149.4 83 149.7"/>
            <path class="cls-2" d="M82.1,141.6c.5.3-.5.2-1.3.3-.2-.4.9,0,1.3-.3Z"/>
            <path class="cls-2" d="M83.5,136.5c.7.3-.3.6-.3.8-.5-.3-.2-.6.3-.8Z"/>
            <path class="cls-2" d="M87.1,134.4c-.3,0-.5.2-.7,0l-1.9.3c-.6-.4,1.8-.3,2.6-.3h0Z"/>
            <path class="cls-2" d="M87.4,131.9l-.7.4v-.2c-.8.1-1.2.2-1.8.3.4-.3,1.1-.6,2.5-.5h0Z"/>
            <path class="cls-2" d="M84.5,132.8h0c.2-.1.5-.1,0,0Z"/>
            <path class="cls-2" d="M84.6,132.5h.2s-.2.1-.2.2c-.2,0-.3,0,0-.2h0Z"/>
            <path class="cls-2" d="M86.4,131.6l.2-.7.4.3c-1.2,0,.7.3-.6.4h0Z"/>
            <path class="cls-2" d="M85.4,128h-1.1c-.2-.5,2.2-1.1.4-1.3.7.2,1.3-.4,1.6.2-1,.2-1.1.8-.9,1.2h0v-.1Z"/>
            <path class="cls-2" d="M83.7,126.4h-.9c0-.2.4-.3.9-.2-1.5,0,1,.2,0,.3h0v-.1Z"/>
            <path class="cls-2" d="M83.8,124.4s0,.3-.4,0c0-.4,1.4-.3,2.1-.5.7.3-1.1.6-1.7.4v.1Z"/>
            <path class="cls-2" d="M75.4,121.4c1,0,.8.3.5.4.2,0,0-.3-.5-.4Z"/>
            <polygon class="cls-2" points="83.5 121.3 83.8 121.4 82.3 121.5 83.5 121.3"/>
            <polygon class="cls-2" points="84.3 119 85.3 118.7 85.2 119.1 84.3 119"/>
            <path class="cls-2" d="M84.1,118.6v-.4h.5c.3.3-.4.2-.4.3h0l-.1.1Z"/>
            <path class="cls-2" d="M84.3,117.4h.2l-.6.4.4-.4h0Z"/>
            <path class="cls-2" d="M78.1,111.3c-1,0-.4-.3-.6-.4.2,0,1.5.2.6.4Z"/>
          </g>
          <g>
            <path class="cls-2" d="M135.2,84.9s-.1-.3-.1-.4c0,0,.1,0,.1.4Z"/>
            <path class="cls-2" d="M145.8,83.8v.6-.6Z"/>
            <path class="cls-2" d="M134.3,81.1c-.1,0-.2-.3-.3-.7l.3.7Z"/>
            <path class="cls-2" d="M135.3,78.8v-.3.3Z"/>
            <path class="cls-2" d="M125.7,86.4v.2-.2Z"/>
            <path class="cls-2" d="M124.9,85.4h-.2c0-.3,0,0,.2,0Z"/>
            <path class="cls-2" d="M125.2,84.7h-.2.2Z"/>
            <path class="cls-2" d="M120.4,78.1v-.6.6Z"/>
            <path class="cls-2" d="M125.8,87.1v-.5c0,.2.2.2,0,.5Z"/>
            <path class="cls-2" d="M135.3,85.1v-.3.3Z"/>
            <path class="cls-2" d="M149.8,83.9c.1,0,.2,0,.3.2-.2.2-.3,0-.3-.2Z"/>
            <path class="cls-2" d="M128.4,85.1c.1-1.7-.4,0-.4-1.7.2.4.4.6.4-.2-.2-.9-.4,0-.5-1.3l.3.5c.2-.7,0-1.8.1-1.7.2,1.9.9-.8,1.1-.5v-.2c-.1,0,.3-.9.3-.9h0v.3c.2-1,.5-1.6.8-1.4.1,1.1,1.1.4,1.3,1.3-.1-.3-.3-.3-.5,0v1.3c.4,0,0-1.2.4-.4,0,1.8-.5,0-.7.2,0,.4.2.8.4.9-.5,0-.9.7-1.2-1.1-.1.4,0,1.1,0,1.3-.3-1.1-.2,1-.5,0,.1,1.7.7.9,1,1.8.4-1.3,1,0,1.5.2,0-1.2-.3-2.3-.1-3,.5-.8.5.7.8,1.4.3-.4,0-2.1.6-2.1l-.3-.8c.3-1.7.3.7.5.3,0,.4,0,.9-.4.8,0,.6.2.9.3,1h0c.1.9.1,1.8.5,1.4-.2-1,.3-.8.4-1.2v-.2c.2.3.4.2.6.4v-.2c.2.4.2,1.7.5,1.4,0-.5-.4-1.9,0-1.7,0-.8-.4-.8-.6-.6.3-.3.4-1.6,0-1.6,0-1,.3.4.5,0v.9c0-1.3.6,0,.7.8l-.3-.7c0,1.1.4,1.8.2,2.4.1-1.7.9.8,1-.6v.9c.6-.5,1.1,1.4,1.8,1.8-.2-.5-.2-2.4-.7-1.7.6-.4.2-1.8.4-2.7.5-.7.3,1.7.4,2.3l-.4-.3c.4,2.1,1.3-.5,2,.9,0-.6-.1-.3-.2-.5.3-1.1.3.2.5.7.3-.2.7-.7.5-2,.4-.3,0,.8.1,1.2v-.3l.4,1.5c.3-.4.7-1.2.8-2.4.7.3.2,3,.8,3.5.3-.7,0-1,0-1.5h.5c-.2-1.3-.5-.6-.5-2.3.4,1.8.5.5,1,1.7v.2c.2,1.2.7.4,1,.6-.1-.7-.5-.8-.7-1.1.3-.6,1.2,0,1.5,1.5.2-.2.6-.9.3-1.5.7-.3.3,2.2.9,1.8v-1.2c.6-1.7,1.3,1.5,1.9,0v1.4c.2-.6.4-.9.5-1.4l-.3-.5c.3-1.2.3,1.1.6.3,0,.4-.3,1.4-.3,1.9-1.3-.8-2.6,1.2-3.9-.2,0-.2.1-.4,0-.7-.1.3-.4,0-.4.7h0c-.4-.2-.7,1.5-.9,1.5-.1-1-.7.4-.6-1.3l-.2,1.1c0-.6,0-1.4-.2-1.8-.2,0-.2.8,0,1.2-.9.7-2,.5-2.9,0l.2.8c-.2.4-.8-1.4-.6.6-.5-.8-1.2.6-1.3-1.5-.3,2-1.1.9-1.7.6.1-1.8-.5-.5-.7-1.3,0,1.4.5,1.4.5,2.3-.6-2.1-1.8,1.6-2.1-2v.4c-.1,0-.3.6-.4.8,0-.6.2-.9-.1-1.1-.2,0-.1,1.1-.2,1.6-.5-.8-1.2-1.1-1.3-2.6-.1.4-.3,1.2-.1,1.5-.7-1.1-.7.2-1.4-.5.3,0,.1,1.5.5.9-.3,2-1.1-.4-1.7.7l-.2-1.3c-.4-.2-.4,1-.1,1.5-.6.8-.9,0-1.4,0,0,.2,0,.4,0,.3h-.7c0-.3-.3-.9-.3-1.8,0,.7.2,1.2.6.7h0v-.4h.1Z"/>
            <path class="cls-2" d="M127.8,84.4v-.2h0v.2h0Z"/>
            <path class="cls-2" d="M133.8,78.8c0,.3-.1.5-.2.5,0-.2,0-.4.2-.5Z"/>
            <path class="cls-2" d="M121.5,82.1c0-2,.4.3.7-.2-.3-.3-.2-1.4-.2-2,.3,2.5.4-.5,1.1,0,0-.8-.3-.9-.3-1.9.3.6.9,1,1,2.4.6,0,1-.5,1.4-.3-.4-.6,0-1.4-.4-2.6.4,1.6,1.4,3.6,2,5.6v-3.1c.7-1,.2,1.4.9,1l-.3.3c.3.5.3,1.9.4,2.9l-.8-.2c0,1.1.5.9.7,1.2.2,1.3-.4.9-.3,1.9,0-.8-.4-.6-.6-.9v.6c-.4.6-.6-.8-1-.8v.4c0-.6-.2-1.4-.4-1.7h.2c-.3-1.3-1-2.2-.5-3.6l-.8.4c0,1.5.2,3.8.7,3.9v.6c-.3.8-.9-1.2-.7-2.4-.3-3.6-1.2,0-1.8-1.6,0,1,.3,1.4.4,2.1.2,0,.3,0,.3-.7.8.5-.2,3.1.7,2.8.4-.5-.5-1.6,0-1.7l.4,2.7c-.4,0-.7-.5-1-.8-1.7-1.8-2.9-.3-2.9-.3l-7.6-.9c-.8-.4-1.1-.3-1.4-3,.2-.6.7-.3.5-1.2,0,1,.4,1.6.8,1.5,0-1-.4-.5-.3-.7h0c0-.6,0-.9-.2-.9.5-1.5,1.3-1.2,1.7.7.4-1-.3-1.5-.4-2.3,1.3-.8,2.2-.6,3.6-.7,0,1.7,0,1.1.3,2.3v-.6c0,.3.2,1.5,0,1.9.8-1.3.9,2.3,1.4,3.1v-.9c.4.2.5.2.9.7.7-1.7-.6-.3-.4-2.5l.2.4c0-.8-.2-2.3-.5-3,.7,1.4,1-.6,1.7.5,0-1-.7-1.8-.9-1.9.2,0,.7.6.7-.3v1.2c.5.2,0-1.2,0-2,1,.2,0,4.1,1,4.8h0l-.2-.2h.2Z"/>
            <path class="cls-2" d="M131.9,81.4h-.3.3Z"/>
            <path class="cls-2" d="M129.8,79v-.4.4Z"/>
            <path class="cls-2" d="M129.6,77.3c0,.4.07.83.2,1.3-.1-.4-.5-.4-.2-1.3Z"/>
            <path class="cls-2" d="M162.5,77.6c0,.4.3.7.3,1l-.4-.4v-.6h.1Z"/>
            <path class="cls-2" d="M161.7,79l-.4.5-.3-1.7c.4,0,.2,1.2.6,1.2h.1Z"/>
            <path class="cls-2" d="M160.6,80v.4-.4Z"/>
            <path class="cls-2" d="M160.6,79.2v-1.2c-.1,0,.4.9.4.9l-.2.2c0,.4-.1.6-.1.8l-.2-.9s.1.3.2.2h-.1Z"/>
            <path class="cls-2" d="M160.2,79.2v-.4.4Z"/>
            <path class="cls-2" d="M159.2,81.5c.1-.4-.1-1.1-.1-1.6.4-.5.4,1.3.7.8-.5-1,.2-.7.4-1.4-.1,1.2-.3,1.9-.7,2.3v-.8c-.2,0-.1.4-.3.8h0v-.1Z"/>
            <path class="cls-2" d="M157.2,79.6l.3,1.1c0-.6.5-.6.5-1.8.2.2.2.7.3,1,.1-.6.2-1.1.4-.2-.7.8-.5,1.1-1.1,1.4,0,.13.07.2.2.2l-.4.6c0-1.4-.6-1.5-.2-2.4h0v.1Z"/>
            <path class="cls-2" d="M156.6,80.5c.3,0,.5,1.2.4,1.9l-.7-.9c.2,0,.5,0,.4-1h-.1Z"/>
            <path class="cls-2" d="M156.1,80.5c-.1.6-.4,1.9-.6.7.4.2.2-1.6.6-.7Z"/>
            <path class="cls-2" d="M153.6,81.6l.7-.8c.1-1.5-.3-.5-.5-1.2.6-.3.4.2.8,1.1.2,0,.4.7.6,1.1-.9-1.2-.9,2.5-1.5-.3h-.1v.1Z"/>
            <polygon class="cls-2" points="155 80.1 155 80.7 154.7 80.2 155 80.1"/>
            <path class="cls-2" d="M152.1,83.3c-.4,1.8-.8-1-1.2-.2,0,0,0,.2.1.5l-.4-.2v.4c0-1.1-.4-1.5-.6-2.3.4-1.1.2,1.3.5,0,0-.5-.1-1.2-.2-1.6.2.5.3,1.2.4,1.8.2,0,.2-.5.2-.9.3.6.3,2.2.7,1.8.3-.9-.2-1.5.3-1.1-.2,1.7.5-.3.7.8.4-.3.6-1.4.5-2,0,1.3.3,2.5.6,2.8l-.6-1.1-.2,1.6c-.3-.7-.6-.6-.9-.4h0l.1.1Z"/>
            <path class="cls-2" d="M150.4,79.8s0-.2-.1-.3v.3h.1Z"/>
            <polygon class="cls-2" points="153.3 79.8 153.1 79.5 153.2 79.1 153.3 79.8"/>
            <path class="cls-2" d="M150.1,78.7s.1.5,0,.5v-.7c-.1,0,0,.2,0,.2h0Z"/>
            <polygon class="cls-2" points="149.7 79.7 149.5 80.6 149.4 79.9 149.7 79.7"/>
            <path class="cls-2" d="M141.6,80.6c.3-.5.2.5.3,1.3-.4.2,0-.9-.3-1.3Z"/>
            <path class="cls-2" d="M136.5,79.3c.3-.7.6.3.8.3-.3.5-.6.2-.8-.3Z"/>
            <path class="cls-2" d="M134.4,75.7c0,.3.2.5,0,.7l.3,1.9c-.4.6-.3-1.8-.3-2.6h0Z"/>
            <path class="cls-2" d="M131.9,75.4l.4.7h-.2c.1.8.2,1.2.3,1.8-.3-.4-.6-1.1-.5-2.5h0Z"/>
            <path class="cls-2" d="M132.8,78.2h-.1c0-.3,0-.6.1,0Z"/>
            <path class="cls-2" d="M132.5,78.1v-.2s.1.2.2.2c0,.2,0,.3-.2,0h0Z"/>
            <path class="cls-2" d="M131.6,76.3l-.7-.2.3-.4c0,1.2.3-.7.4.6h0Z"/>
            <path class="cls-2" d="M128,77.3v1.1c-.5.2-1.1-2.2-1.3-.4.2-.7-.4-1.3.2-1.6.2,1,.8,1.1,1.2.9h-.1Z"/>
            <path class="cls-2" d="M126.4,79v.9c-.2,0-.3-.4-.2-.9,0,1.5.2-1,.3,0h-.1Z"/>
            <path class="cls-2" d="M124.4,78.9s.3,0,0,.4c-.4,0-.3-1.4-.5-2.1.3-.7.6,1.1.4,1.7h.1Z"/>
            <path class="cls-2" d="M121.4,87.4c0-1,.3-.8.4-.5,0-.2-.3,0-.4.5Z"/>
            <polygon class="cls-2" points="121.3 79.2 121.4 79 121.5 80.5 121.3 79.2"/>
            <polygon class="cls-2" points="119 78.4 118.7 77.4 119.1 77.6 119 78.4"/>
            <path class="cls-2" d="M118.6,78.7h-.4v-.5c.3-.3.2.4.3.4h.1v.1Z"/>
            <path class="cls-2" d="M117.4,78.4v-.2l.4.6-.4-.4h0Z"/>
            <path class="cls-2" d="M111.3,84.6c0,1-.3.4-.4.6,0-.2.2-1.5.4-.6Z"/>
          </g>
        </g>
      </g>
    </g>
  </g>
</svg>