<?xml version="1.0" encoding="UTF-8"?>
<svg id="Camada_1" data-name="Camada 1" xmlns="http://www.w3.org/2000/svg" viewBox="0 0 219.76 63.98">
  <defs>
    <style>
      .cls-1 {
        fill: #212125;
      }

      .cls-2 {
        fill: #c62b38;
      }
    </style>
  </defs>
  <path class="cls-2" d="M55.61,20.46c3.95.16,8.08-.22,12.01,0,8.36.47,11.48,7.81,9.66,15.31-2.47,10.17-13.81,7.47-21.67,7.85v-23.17ZM62.7,26.37v11.18l.17.17h2.79c5.94,0,6.55-9.01,1.95-10.86-.76-.31-1.18-.29-1.95-.37-.15-.02-.31-.12-.34-.12h-2.61Z"/>
  <polygon class="cls-2" points="54.34 20.46 54.34 26.37 42.03 26.37 42.03 29.27 54.34 29.27 54.34 34.83 42.03 34.83 42.03 37.55 42.21 37.72 54.34 37.72 54.34 43.63 34.95 43.63 34.95 20.46 54.34 20.46"/>
  <polygon class="cls-2" points="33.79 20.46 33.79 26.37 27.46 26.37 27.29 26.55 27.29 43.63 20.21 43.63 20.21 26.37 13.71 26.37 13.71 20.64 13.88 20.46 33.79 20.46"/>
  <polygon class="cls-2" points="83.94 20.58 85.68 23.94 87.65 20.58 92.88 20.58 88.24 27.47 93.11 34.71 87.95 34.71 85.74 31.24 83.71 34.71 78.48 34.71 83.36 27.47 78.72 20.58 83.94 20.58"/>
  <path d="M161.24,29.85c.21.05.23-.06.33-.19,1.29-1.66,1.72-2.77,4.14-3.05,10.54-1.22,10.42,18.64,0,17.37-1.25-.15-2.44-.78-3.25-1.73-.46-.54-.72-1.27-1.22-1.74v3.13h-2.09v-22.3l.17-.17h1.74l.17.17v8.51ZM165.63,28.49c-6.26.74-5.88,14.39,1.25,13.64,6.33-.67,6.25-14.53-1.25-13.64Z"/>
  <path d="M206.05,43.63h-1.97v-2.49s-.19-.21-.23-.17c-.59,1.39-1.99,2.49-3.46,2.86-4.16,1.05-8.04-1.59-7.19-6.14.68-3.65,6.58-3.44,9.28-4.06,1.3-.29,1.56-.48,1.49-1.88-.09-1.83-1.27-3.07-3.09-3.28-2.22-.26-4.25.54-5.35,2.52-.21.06-1.48-.41-1.75-.54-.12-.06-.18.03-.15-.2.07-.55,1.02-1.66,1.45-2.04,2.99-2.63,9.61-2.3,10.78,2.11.04.15.2.77.2.85v12.45ZM203.96,34.94c-2.71,1.37-9.16,0-8.71,4.58.26,2.64,3.85,3.07,5.85,2.24,1.24-.52,2.86-2.37,2.86-3.75v-3.07Z"/>
  <path d="M188.13,28.27c5.07,4.45,3.21,15.73-4.67,15.78s-9.91-11.82-4.26-16.15c2.56-1.96,6.53-1.73,8.93.38ZM182.81,28.49c-6.71.8-6.25,14.32,1.13,13.63,6.92-.65,6.39-14.53-1.13-13.63Z"/>
  <path d="M155.56,30.66l-1.78.34c-.4-.53-.62-1.21-1.12-1.67-1.97-1.85-7.29-.92-6.57,2.5.47,2.26,4.79,2.41,6.63,3.12,5.04,1.93,3.77,7.79-1.1,8.87-3.44.76-7.58-.33-8.25-4.23l1.9-.33c.15.05.56,1.16.77,1.43,2.22,2.97,9.25,1.19,7.41-2.64-.78-1.62-4.48-1.89-6.13-2.46-1.38-.47-2.83-1.46-3.22-2.92-1.88-6.97,10.33-8.43,11.46-1.99Z"/>
  <polygon points="123.98 41.66 134.66 41.66 134.66 43.63 121.77 43.63 121.77 21.33 121.95 21.16 123.8 21.16 123.98 21.33 123.98 41.66"/>
  <rect x="137.91" y="26.72" width="2.09" height="16.91"/>
  <circle cx="138.95" cy="22.26" r="1.5"/>
  <path class="cls-1" d="M113.35,20.87h2.44v13c0,2.18-.21,3.97-.64,5.37-.42,1.4-1.2,2.5-2.31,3.31-1.12.81-2.54,1.21-4.27,1.21-2.43,0-4.25-.73-5.47-2.18s-1.82-4.02-1.82-7.71v-13h2.44v12.99c0,2.04.16,3.51.47,4.42.32.91.84,1.6,1.56,2.08.72.48,1.6.71,2.63.71,1.74,0,3-.49,3.78-1.47s1.17-2.9,1.17-5.74v-12.99Z"/>
</svg>